<?xml version="1.0" encoding="utf-8" standalone="no"?>
<!DOCTYPE svg PUBLIC "-//W3C//DTD SVG 1.1//EN" "http://www.w3.org/Graphics/SVG/1.1/DTD/svg11.dtd">
<svg version="1.1" width="2592pt" height="1512pt" viewBox="0 0 2592 1512" overflow="visible" xmlns="http://www.w3.org/2000/svg">
  <path d="M1457.03,582.1329 L1452.646,583.6431" stroke="#F49F4A" stroke-width="0.96" fill="none" />
  <path d="M1449.966,584.5663 L1444.606,586.413" stroke="#F49F4A" stroke-width="0.96" fill="none" />
  <path d="M1441.926,587.3364 L1436.566,589.183" stroke="#F49F4A" stroke-width="0.96" fill="none" />
  <path d="M1433.886,590.1063 L1428.526,591.9529" stroke="#F49F4A" stroke-width="0.96" fill="none" />
  <path d="M1425.846,592.8763 L1420.486,594.7229" stroke="#F49F4A" stroke-width="0.96" fill="none" />
  <path d="M1417.806,595.6462 L1412.446,597.4929" stroke="#F49F4A" stroke-width="0.96" fill="none" />
  <path d="M1409.766,598.4162 L1404.406,600.2628" stroke="#F49F4A" stroke-width="0.96" fill="none" />
  <path d="M1401.725,601.1862 L1396.365,603.0328" stroke="#F49F4A" stroke-width="0.96" fill="none" />
  <path d="M1393.685,603.9561 L1388.325,605.8027" stroke="#F49F4A" stroke-width="0.96" fill="none" />
  <path d="M1385.645,606.7261 L1380.285,608.5727" stroke="#F49F4A" stroke-width="0.96" fill="none" />
  <path d="M1377.605,609.496 L1372.245,611.3427" stroke="#F49F4A" stroke-width="0.96" fill="none" />
  <path d="M1369.565,612.266 L1364.205,614.1126" stroke="#F49F4A" stroke-width="0.96" fill="none" />
  <path d="M1361.525,615.0359 L1356.165,616.8826" stroke="#F49F4A" stroke-width="0.96" fill="none" />
  <path d="M1353.484,617.8059 L1348.124,619.6526" stroke="#F49F4A" stroke-width="0.96" fill="none" />
  <path d="M1345.444,620.5759 L1340.084,622.4225" stroke="#F49F4A" stroke-width="0.96" fill="none" />
  <path d="M1337.404,623.3458 L1332.044,625.1925" stroke="#F49F4A" stroke-width="0.96" fill="none" />
  <path d="M1329.364,626.1158 L1324.004,627.9625" stroke="#F49F4A" stroke-width="0.96" fill="none" />
  <path d="M1321.324,628.8857 L1315.964,630.7324" stroke="#F49F4A" stroke-width="0.96" fill="none" />
  <path d="M1313.284,631.6557 L1307.924,633.5024" stroke="#F49F4A" stroke-width="0.96" fill="none" />
  <path d="M1305.244,634.4257 L1299.883,636.2723" stroke="#F49F4A" stroke-width="0.96" fill="none" />
  <path d="M1297.203,637.1957 L1291.843,639.0423" stroke="#F49F4A" stroke-width="0.96" fill="none" />
  <path d="M1289.163,639.9656 L1283.803,641.8123" stroke="#F49F4A" stroke-width="0.96" fill="none" />
  <path d="M1281.123,642.7356 L1275.763,644.5822" stroke="#F49F4A" stroke-width="0.96" fill="none" />
  <path d="M1273.083,645.5056 L1267.723,647.3522" stroke="#F49F4A" stroke-width="0.96" fill="none" />
  <path d="M1265.043,648.2755 L1259.683,650.1221" stroke="#F49F4A" stroke-width="0.96" fill="none" />
  <path d="M1257.003,651.0455 L1251.642,652.8921" stroke="#F49F4A" stroke-width="0.96" fill="none" />
  <path d="M1248.962,653.8154 L1243.602,655.662" stroke="#F49F4A" stroke-width="0.96" fill="none" />
  <path d="M1240.922,656.5854 L1235.562,658.432" stroke="#F49F4A" stroke-width="0.96" fill="none" />
  <path d="M1232.882,659.3553 L1227.522,661.202" stroke="#F49F4A" stroke-width="0.96" fill="none" />
  <path d="M1224.842,662.1253 L1219.482,663.972" stroke="#F49F4A" stroke-width="0.96" fill="none" />
  <path d="M1216.802,664.8953 L1211.442,666.7419" stroke="#F49F4A" stroke-width="0.96" fill="none" />
  <path d="M1208.761,667.6652 L1203.401,669.5119" stroke="#F49F4A" stroke-width="0.96" fill="none" />
  <path d="M1200.721,670.4352 L1195.361,672.2819" stroke="#F49F4A" stroke-width="0.96" fill="none" />
  <path d="M1192.681,673.2051 L1187.321,675.0518" stroke="#F49F4A" stroke-width="0.96" fill="none" />
  <path d="M1184.641,675.9751 L1179.281,677.8218" stroke="#F49F4A" stroke-width="0.96" fill="none" />
  <path d="M1176.601,678.7451 L1171.241,680.5917" stroke="#F49F4A" stroke-width="0.96" fill="none" />
  <path d="M1168.561,681.5151 L1163.201,683.3617" stroke="#F49F4A" stroke-width="0.96" fill="none" />
  <path d="M1160.521,684.285 L1156.137,685.7952" stroke="#F49F4A" stroke-width="0.96" fill="none" />
  <path d="M1620.411,462.5984 L1616.513,463.9361" stroke="#F49F4A" stroke-width="0.96" fill="none" />
  <path d="M1613.832,464.8562 L1608.469,466.6964" stroke="#F49F4A" stroke-width="0.96" fill="none" />
  <path d="M1605.788,467.6165 L1600.426,469.4567" stroke="#F49F4A" stroke-width="0.96" fill="none" />
  <path d="M1597.745,470.3768 L1592.382,472.217" stroke="#F49F4A" stroke-width="0.96" fill="none" />
  <path d="M1589.701,473.1371 L1584.339,474.9773" stroke="#F49F4A" stroke-width="0.96" fill="none" />
  <path d="M1581.658,475.8974 L1576.295,477.7376" stroke="#F49F4A" stroke-width="0.96" fill="none" />
  <path d="M1573.614,478.6577 L1568.252,480.4979" stroke="#F49F4A" stroke-width="0.96" fill="none" />
  <path d="M1565.571,481.418 L1560.208,483.2582" stroke="#F49F4A" stroke-width="0.96" fill="none" />
  <path d="M1557.527,484.1783 L1552.165,486.0185" stroke="#F49F4A" stroke-width="0.96" fill="none" />
  <path d="M1549.484,486.9386 L1544.121,488.7788" stroke="#F49F4A" stroke-width="0.96" fill="none" />
  <path d="M1541.44,489.6989 L1536.078,491.5391" stroke="#F49F4A" stroke-width="0.96" fill="none" />
  <path d="M1533.397,492.4592 L1528.034,494.2994" stroke="#F49F4A" stroke-width="0.96" fill="none" />
  <path d="M1525.353,495.2195 L1519.991,497.0597" stroke="#F49F4A" stroke-width="0.96" fill="none" />
  <path d="M1517.31,497.9798 L1511.948,499.82" stroke="#F49F4A" stroke-width="0.96" fill="none" />
  <path d="M1509.266,500.7401 L1503.904,502.5803" stroke="#F49F4A" stroke-width="0.96" fill="none" />
  <path d="M1501.223,503.5004 L1495.86,505.3406" stroke="#F49F4A" stroke-width="0.96" fill="none" />
  <path d="M1493.179,506.2607 L1487.817,508.1009" stroke="#F49F4A" stroke-width="0.96" fill="none" />
  <path d="M1485.136,509.021 L1479.774,510.8612" stroke="#F49F4A" stroke-width="0.96" fill="none" />
  <path d="M1477.092,511.7813 L1471.73,513.6215" stroke="#F49F4A" stroke-width="0.96" fill="none" />
  <path d="M1469.049,514.5416 L1463.687,516.3818" stroke="#F49F4A" stroke-width="0.96" fill="none" />
  <path d="M1461.005,517.3019 L1455.643,519.1422" stroke="#F49F4A" stroke-width="0.96" fill="none" />
  <path d="M1452.962,520.0623 L1447.6,521.9024" stroke="#F49F4A" stroke-width="0.96" fill="none" />
  <path d="M1444.918,522.8225 L1439.556,524.6627" stroke="#F49F4A" stroke-width="0.96" fill="none" />
  <path d="M1436.875,525.5828 L1431.513,527.423" stroke="#F49F4A" stroke-width="0.96" fill="none" />
  <path d="M1428.831,528.3431 L1423.469,530.1833" stroke="#F49F4A" stroke-width="0.96" fill="none" />
  <path d="M1420.788,531.1035 L1415.426,532.9437" stroke="#F49F4A" stroke-width="0.96" fill="none" />
  <path d="M1412.745,533.8638 L1408.847,535.2014" stroke="#F49F4A" stroke-width="0.96" fill="none" />
  <path d="M1781.017,344.4769 L1784.031,347.1192" stroke="#F49F4A" stroke-width="0.96" fill="none" />
  <path d="M1786.162,348.9878 L1790.426,352.7251" stroke="#F49F4A" stroke-width="0.96" fill="none" />
  <path d="M1792.557,354.5937 L1796.82,358.331" stroke="#F49F4A" stroke-width="0.96" fill="none" />
  <path d="M1798.952,360.1996 L1803.215,363.9368" stroke="#F49F4A" stroke-width="0.96" fill="none" />
  <path d="M1805.346,365.8055 L1809.609,369.5427" stroke="#F49F4A" stroke-width="0.96" fill="none" />
  <path d="M1811.741,371.4113 L1816.004,375.1486" stroke="#F49F4A" stroke-width="0.96" fill="none" />
  <path d="M1818.135,377.0172 L1822.399,380.7545" stroke="#F49F4A" stroke-width="0.96" fill="none" />
  <path d="M1824.53,382.6231 L1827.544,385.2654" stroke="#F49F4A" stroke-width="0.96" fill="none" />
  <path d="M1667.495,509.583 L1664.125,510.7441" stroke="#F49F4A" stroke-width="0.96" fill="none" />
  <path d="M1661.445,511.6675 L1656.085,513.5144" stroke="#F49F4A" stroke-width="0.96" fill="none" />
  <path d="M1653.405,514.4379 L1648.045,516.2848" stroke="#F49F4A" stroke-width="0.96" fill="none" />
  <path d="M1645.365,517.2082 L1640.005,519.0551" stroke="#F49F4A" stroke-width="0.96" fill="none" />
  <path d="M1637.325,519.9786 L1631.965,521.8254" stroke="#F49F4A" stroke-width="0.96" fill="none" />
  <path d="M1629.285,522.7489 L1623.925,524.5958" stroke="#F49F4A" stroke-width="0.96" fill="none" />
  <path d="M1621.245,525.5192 L1615.885,527.3661" stroke="#F49F4A" stroke-width="0.96" fill="none" />
  <path d="M1613.205,528.2896 L1607.845,530.1365" stroke="#F49F4A" stroke-width="0.96" fill="none" />
  <path d="M1605.165,531.0599 L1599.805,532.9068" stroke="#F49F4A" stroke-width="0.96" fill="none" />
  <path d="M1597.125,533.8303 L1591.765,535.6771" stroke="#F49F4A" stroke-width="0.96" fill="none" />
  <path d="M1589.085,536.6006 L1583.725,538.4475" stroke="#F49F4A" stroke-width="0.96" fill="none" />
  <path d="M1581.045,539.3709 L1575.685,541.2178" stroke="#F49F4A" stroke-width="0.96" fill="none" />
  <path d="M1573.005,542.1413 L1567.645,543.9882" stroke="#F49F4A" stroke-width="0.96" fill="none" />
  <path d="M1564.965,544.9116 L1559.605,546.7585" stroke="#F49F4A" stroke-width="0.96" fill="none" />
  <path d="M1556.925,547.6819 L1551.565,549.5289" stroke="#F49F4A" stroke-width="0.96" fill="none" />
  <path d="M1548.885,550.4523 L1543.525,552.2992" stroke="#F49F4A" stroke-width="0.96" fill="none" />
  <path d="M1540.844,553.2227 L1535.484,555.0695" stroke="#F49F4A" stroke-width="0.96" fill="none" />
  <path d="M1532.804,555.993 L1527.444,557.8398" stroke="#F49F4A" stroke-width="0.96" fill="none" />
  <path d="M1524.764,558.7633 L1519.404,560.6102" stroke="#F49F4A" stroke-width="0.96" fill="none" />
  <path d="M1516.724,561.5336 L1511.364,563.3806" stroke="#F49F4A" stroke-width="0.96" fill="none" />
  <path d="M1508.684,564.304 L1503.324,566.1509" stroke="#F49F4A" stroke-width="0.96" fill="none" />
  <path d="M1500.644,567.0743 L1495.284,568.9213" stroke="#F49F4A" stroke-width="0.96" fill="none" />
  <path d="M1492.604,569.8447 L1487.244,571.6916" stroke="#F49F4A" stroke-width="0.96" fill="none" />
  <path d="M1484.564,572.6151 L1479.204,574.4619" stroke="#F49F4A" stroke-width="0.96" fill="none" />
  <path d="M1476.524,575.3854 L1471.164,577.2322" stroke="#F49F4A" stroke-width="0.96" fill="none" />
  <path d="M1468.484,578.1557 L1463.124,580.0026" stroke="#F49F4A" stroke-width="0.96" fill="none" />
  <path d="M1460.444,580.926 L1457.074,582.0872" stroke="#F49F4A" stroke-width="0.96" fill="none" />
  <path d="M1571.684,414.4667 L1568.496,415.563" stroke="#F49F4A" stroke-width="0.96" fill="none" />
  <path d="M1565.815,416.4847 L1560.454,418.3281" stroke="#F49F4A" stroke-width="0.96" fill="none" />
  <path d="M1557.773,419.2498 L1552.412,421.0932" stroke="#F49F4A" stroke-width="0.96" fill="none" />
  <path d="M1549.732,422.0149 L1544.37,423.8583" stroke="#F49F4A" stroke-width="0.96" fill="none" />
  <path d="M1541.69,424.78 L1536.328,426.6234" stroke="#F49F4A" stroke-width="0.96" fill="none" />
  <path d="M1533.648,427.5451 L1528.287,429.3885" stroke="#F49F4A" stroke-width="0.96" fill="none" />
  <path d="M1525.606,430.3102 L1520.245,432.1536" stroke="#F49F4A" stroke-width="0.96" fill="none" />
  <path d="M1517.564,433.0753 L1512.203,434.9187" stroke="#F49F4A" stroke-width="0.96" fill="none" />
  <path d="M1509.522,435.8404 L1504.161,437.6837" stroke="#F49F4A" stroke-width="0.96" fill="none" />
  <path d="M1501.48,438.6054 L1496.119,440.4489" stroke="#F49F4A" stroke-width="0.96" fill="none" />
  <path d="M1493.439,441.3705 L1488.077,443.2139" stroke="#F49F4A" stroke-width="0.96" fill="none" />
  <path d="M1485.397,444.1357 L1480.036,445.979" stroke="#F49F4A" stroke-width="0.96" fill="none" />
  <path d="M1477.355,446.9007 L1471.994,448.7441" stroke="#F49F4A" stroke-width="0.96" fill="none" />
  <path d="M1469.313,449.6658 L1463.952,451.5092" stroke="#F49F4A" stroke-width="0.96" fill="none" />
  <path d="M1461.271,452.4309 L1455.91,454.2743" stroke="#F49F4A" stroke-width="0.96" fill="none" />
  <path d="M1453.229,455.196 L1447.868,457.0394" stroke="#F49F4A" stroke-width="0.96" fill="none" />
  <path d="M1445.188,457.9611 L1439.826,459.8045" stroke="#F49F4A" stroke-width="0.96" fill="none" />
  <path d="M1437.146,460.7262 L1431.785,462.5696" stroke="#F49F4A" stroke-width="0.96" fill="none" />
  <path d="M1429.104,463.4913 L1423.743,465.3347" stroke="#F49F4A" stroke-width="0.96" fill="none" />
  <path d="M1421.062,466.2564 L1415.701,468.0998" stroke="#F49F4A" stroke-width="0.96" fill="none" />
  <path d="M1413.02,469.0215 L1407.659,470.8649" stroke="#F49F4A" stroke-width="0.96" fill="none" />
  <path d="M1404.978,471.7866 L1399.617,473.63" stroke="#F49F4A" stroke-width="0.96" fill="none" />
  <path d="M1396.937,474.5517 L1391.575,476.3951" stroke="#F49F4A" stroke-width="0.96" fill="none" />
  <path d="M1388.895,477.3168 L1383.533,479.1602" stroke="#F49F4A" stroke-width="0.96" fill="none" />
  <path d="M1380.853,480.0818 L1375.492,481.9253" stroke="#F49F4A" stroke-width="0.96" fill="none" />
  <path d="M1372.811,482.847 L1367.45,484.6903" stroke="#F49F4A" stroke-width="0.96" fill="none" />
  <path d="M1364.769,485.612 L1361.581,486.7083" stroke="#F49F4A" stroke-width="0.96" fill="none" />
  <path d="M1163.847,456.7994 L1165.236,460.872" stroke="#F49F4A" stroke-width="0.96" fill="none" />
  <path d="M1166.144,463.5368 L1167.964,468.9004" stroke="#F49F4A" stroke-width="0.96" fill="none" />
  <path d="M1168.871,471.5863 L1170.677,476.9616" stroke="#F49F4A" stroke-width="0.96" fill="none" />
  <path d="M1171.574,479.6508 L1173.354,485.034" stroke="#F49F4A" stroke-width="0.96" fill="none" />
  <path d="M1174.242,487.7491 L1175.979,493.1187" stroke="#F49F4A" stroke-width="0.96" fill="none" />
  <path d="M1176.84,495.8201 L1178.538,501.2323" stroke="#F49F4A" stroke-width="0.96" fill="none" />
  <path d="M1179.373,503.942 L1181.01,509.372" stroke="#F49F4A" stroke-width="0.96" fill="none" />
  <path d="M1181.811,512.0917 L1183.373,517.5432" stroke="#F49F4A" stroke-width="0.96" fill="none" />
  <path d="M1184.132,520.2747 L1185.602,525.751" stroke="#F49F4A" stroke-width="0.96" fill="none" />
  <path d="M1186.311,528.4957 L1187.672,533.9996" stroke="#F49F4A" stroke-width="0.96" fill="none" />
  <path d="M1188.322,536.7588 L1189.557,542.2922" stroke="#F49F4A" stroke-width="0.96" fill="none" />
  <path d="M1190.144,545.0884 L1191.237,550.6641" stroke="#F49F4A" stroke-width="0.96" fill="none" />
  <path d="M1191.742,553.4465 L1192.673,559.0377" stroke="#F49F4A" stroke-width="0.96" fill="none" />
  <path d="M1193.091,561.8022 L1193.854,567.4351" stroke="#F49F4A" stroke-width="0.96" fill="none" />
  <path d="M1194.191,570.2513 L1194.774,575.8731" stroke="#F49F4A" stroke-width="0.96" fill="none" />
  <path d="M1195.021,578.6971 L1195.42,584.353" stroke="#F49F4A" stroke-width="0.96" fill="none" />
  <path d="M1195.57,587.1839 L1195.769,592.8503" stroke="#F49F4A" stroke-width="0.96" fill="none" />
  <path d="M1195.815,595.6848 L1195.792,601.3542" stroke="#F49F4A" stroke-width="0.96" fill="none" />
  <path d="M1195.72,604.1979 L1195.653,605.9628 L1195.445,609.8647" stroke="#F49F4A" stroke-width="0.96" fill="none" />
  <path d="M1195.241,612.6862 L1194.709,618.3115" stroke="#F49F4A" stroke-width="0.96" fill="none" />
  <path d="M1194.384,621.1125 L1193.626,626.7136" stroke="#F49F4A" stroke-width="0.96" fill="none" />
  <path d="M1193.197,629.5289 L1192.853,631.664 L1192.265,635.144" stroke="#F49F4A" stroke-width="0.96" fill="none" />
  <path d="M1191.787,637.9385 L1190.876,643.5311" stroke="#F49F4A" stroke-width="0.96" fill="none" />
  <path d="M1190.469,646.3356 L1189.813,651.9578" stroke="#F49F4A" stroke-width="0.96" fill="none" />
  <path d="M1189.582,654.7914 L1189.358,660.4406" stroke="#F49F4A" stroke-width="0.96" fill="none" />
  <path d="M1189.375,663.2686 L1189.689,668.9193" stroke="#F49F4A" stroke-width="0.96" fill="none" />
  <path d="M1189.989,671.7343 L1190.877,677.329" stroke="#F49F4A" stroke-width="0.96" fill="none" />
  <path d="M1191.458,680.088 L1192.891,685.5603" stroke="#F49F4A" stroke-width="0.96" fill="none" />
  <path d="M1193.735,688.264 L1195.665,693.6132" stroke="#F49F4A" stroke-width="0.96" fill="none" />
  <path d="M1196.75,696.2728 L1199.089,701.4341" stroke="#F49F4A" stroke-width="0.96" fill="none" />
  <path d="M1200.345,703.9643 L1203.025,708.9535" stroke="#F49F4A" stroke-width="0.96" fill="none" />
  <path d="M1204.44,711.4087 L1206.679,715.0916" stroke="#F49F4A" stroke-width="0.96" fill="none" />
  <path d="M1408.847,535.2014 L1402.721,537.3036" stroke="#F49F4A" stroke-width="0.96" fill="none" />
  <path d="M1400.04,538.2237 L1394.677,540.0639" stroke="#F49F4A" stroke-width="0.96" fill="none" />
  <path d="M1391.996,540.984 L1386.634,542.8242" stroke="#F49F4A" stroke-width="0.96" fill="none" />
  <path d="M1383.953,543.7443 L1378.59,545.5845" stroke="#F49F4A" stroke-width="0.96" fill="none" />
  <path d="M1375.909,546.5046 L1370.547,548.3448" stroke="#F49F4A" stroke-width="0.96" fill="none" />
  <path d="M1367.866,549.2649 L1362.503,551.1051" stroke="#F49F4A" stroke-width="0.96" fill="none" />
  <path d="M1359.822,552.0252 L1354.46,553.8654" stroke="#F49F4A" stroke-width="0.96" fill="none" />
  <path d="M1351.779,554.7855 L1346.417,556.6257" stroke="#F49F4A" stroke-width="0.96" fill="none" />
  <path d="M1343.735,557.5458 L1338.373,559.386" stroke="#F49F4A" stroke-width="0.96" fill="none" />
  <path d="M1335.692,560.3061 L1330.329,562.1463" stroke="#F49F4A" stroke-width="0.96" fill="none" />
  <path d="M1327.648,563.0664 L1322.286,564.9066" stroke="#F49F4A" stroke-width="0.96" fill="none" />
  <path d="M1319.605,565.8267 L1314.243,567.6669" stroke="#F49F4A" stroke-width="0.96" fill="none" />
  <path d="M1311.561,568.587 L1306.199,570.4272" stroke="#F49F4A" stroke-width="0.96" fill="none" />
  <path d="M1303.518,571.3473 L1298.156,573.1875" stroke="#F49F4A" stroke-width="0.96" fill="none" />
  <path d="M1295.474,574.1076 L1290.112,575.9478" stroke="#F49F4A" stroke-width="0.96" fill="none" />
  <path d="M1287.431,576.8679 L1282.069,578.7081" stroke="#F49F4A" stroke-width="0.96" fill="none" />
  <path d="M1279.387,579.6282 L1274.025,581.4684" stroke="#F49F4A" stroke-width="0.96" fill="none" />
  <path d="M1271.344,582.3885 L1265.982,584.2287" stroke="#F49F4A" stroke-width="0.96" fill="none" />
  <path d="M1263.3,585.1488 L1257.938,586.989" stroke="#F49F4A" stroke-width="0.96" fill="none" />
  <path d="M1255.257,587.9091 L1249.895,589.7493" stroke="#F49F4A" stroke-width="0.96" fill="none" />
  <path d="M1247.214,590.6694 L1241.851,592.5096" stroke="#F49F4A" stroke-width="0.96" fill="none" />
  <path d="M1239.17,593.4297 L1233.808,595.27" stroke="#F49F4A" stroke-width="0.96" fill="none" />
  <path d="M1231.126,596.1901 L1225.764,598.0303" stroke="#F49F4A" stroke-width="0.96" fill="none" />
  <path d="M1223.083,598.9503 L1217.721,600.7905" stroke="#F49F4A" stroke-width="0.96" fill="none" />
  <path d="M1215.04,601.7106 L1209.677,603.5508" stroke="#F49F4A" stroke-width="0.96" fill="none" />
  <path d="M1206.996,604.4709 L1201.634,606.3112" stroke="#F49F4A" stroke-width="0.96" fill="none" />
  <path d="M1198.953,607.2313 L1193.59,609.0715" stroke="#F49F4A" stroke-width="0.96" fill="none" />
  <path d="M1190.909,609.9916 L1185.547,611.8318" stroke="#F49F4A" stroke-width="0.96" fill="none" />
  <path d="M1182.866,612.7518 L1177.503,614.592" stroke="#F49F4A" stroke-width="0.96" fill="none" />
  <path d="M1174.822,615.5121 L1169.46,617.3524" stroke="#F49F4A" stroke-width="0.96" fill="none" />
  <path d="M1166.779,618.2725 L1160.653,620.3746" stroke="#F49F4A" stroke-width="0.96" fill="none" />
  <path d="M1522.933,365.7513 L1517.503,367.5501" stroke="#F49F4A" stroke-width="0.96" fill="none" />
  <path d="M1514.813,368.4416 L1509.431,370.2245" stroke="#F49F4A" stroke-width="0.96" fill="none" />
  <path d="M1506.74,371.116 L1501.358,372.8989" stroke="#F49F4A" stroke-width="0.96" fill="none" />
  <path d="M1498.668,373.7903 L1493.286,375.5733" stroke="#F49F4A" stroke-width="0.96" fill="none" />
  <path d="M1490.595,376.4648 L1485.214,378.2477" stroke="#F49F4A" stroke-width="0.96" fill="none" />
  <path d="M1482.523,379.1392 L1477.141,380.9221" stroke="#F49F4A" stroke-width="0.96" fill="none" />
  <path d="M1474.45,381.8135 L1469.069,383.5965" stroke="#F49F4A" stroke-width="0.96" fill="none" />
  <path d="M1466.378,384.4879 L1460.996,386.2709" stroke="#F49F4A" stroke-width="0.96" fill="none" />
  <path d="M1458.305,387.1624 L1452.924,388.9453" stroke="#F49F4A" stroke-width="0.96" fill="none" />
  <path d="M1450.233,389.8367 L1444.851,391.6197" stroke="#F49F4A" stroke-width="0.96" fill="none" />
  <path d="M1442.16,392.5111 L1436.779,394.2941" stroke="#F49F4A" stroke-width="0.96" fill="none" />
  <path d="M1434.088,395.1855 L1428.706,396.9685" stroke="#F49F4A" stroke-width="0.96" fill="none" />
  <path d="M1426.016,397.8599 L1420.634,399.6429" stroke="#F49F4A" stroke-width="0.96" fill="none" />
  <path d="M1417.943,400.5343 L1412.561,402.3173" stroke="#F49F4A" stroke-width="0.96" fill="none" />
  <path d="M1409.871,403.2087 L1404.489,404.9917" stroke="#F49F4A" stroke-width="0.96" fill="none" />
  <path d="M1401.798,405.8831 L1396.417,407.6661" stroke="#F49F4A" stroke-width="0.96" fill="none" />
  <path d="M1393.726,408.5575 L1388.344,410.3405" stroke="#F49F4A" stroke-width="0.96" fill="none" />
  <path d="M1385.653,411.2319 L1380.272,413.0149" stroke="#F49F4A" stroke-width="0.96" fill="none" />
  <path d="M1377.581,413.9063 L1372.199,415.6893" stroke="#F49F4A" stroke-width="0.96" fill="none" />
  <path d="M1369.508,416.5807 L1364.127,418.3636" stroke="#F49F4A" stroke-width="0.96" fill="none" />
  <path d="M1361.436,419.2551 L1356.054,421.0381" stroke="#F49F4A" stroke-width="0.96" fill="none" />
  <path d="M1353.363,421.9295 L1347.982,423.7125" stroke="#F49F4A" stroke-width="0.96" fill="none" />
  <path d="M1345.291,424.6039 L1339.909,426.3868" stroke="#F49F4A" stroke-width="0.96" fill="none" />
  <path d="M1337.219,427.2783 L1331.837,429.0612" stroke="#F49F4A" stroke-width="0.96" fill="none" />
  <path d="M1329.146,429.9527 L1323.764,431.7357" stroke="#F49F4A" stroke-width="0.96" fill="none" />
  <path d="M1321.074,432.6271 L1315.692,434.41" stroke="#F49F4A" stroke-width="0.96" fill="none" />
  <path d="M1313.001,435.3015 L1307.571,437.1004 L1304.456,438.1362" stroke="#F49F4A" stroke-width="0.96" fill="none" />
  <path d="M1301.766,439.0304 L1296.386,440.8187" stroke="#F49F4A" stroke-width="0.96" fill="none" />
  <path d="M1293.696,441.7129 L1288.316,443.5013" stroke="#F49F4A" stroke-width="0.96" fill="none" />
  <path d="M1285.626,444.3954 L1280.246,446.1838" stroke="#F49F4A" stroke-width="0.96" fill="none" />
  <path d="M1277.556,447.078 L1272.177,448.8664" stroke="#F49F4A" stroke-width="0.96" fill="none" />
  <path d="M1269.487,449.7606 L1264.107,451.5489" stroke="#F49F4A" stroke-width="0.96" fill="none" />
  <path d="M1261.417,452.4431 L1256.037,454.2315" stroke="#F49F4A" stroke-width="0.96" fill="none" />
  <path d="M1253.347,455.1257 L1247.967,456.914" stroke="#F49F4A" stroke-width="0.96" fill="none" />
  <path d="M1245.277,457.8082 L1239.897,459.5966" stroke="#F49F4A" stroke-width="0.96" fill="none" />
  <path d="M1237.208,460.4908 L1231.828,462.2791" stroke="#F49F4A" stroke-width="0.96" fill="none" />
  <path d="M1229.138,463.1733 L1223.758,464.9617" stroke="#F49F4A" stroke-width="0.96" fill="none" />
  <path d="M1221.068,465.8559 L1215.688,467.6443" stroke="#F49F4A" stroke-width="0.96" fill="none" />
  <path d="M1212.998,468.5384 L1207.619,470.3268" stroke="#F49F4A" stroke-width="0.96" fill="none" />
  <path d="M1204.929,471.221 L1199.549,473.0093" stroke="#F49F4A" stroke-width="0.96" fill="none" />
  <path d="M1196.859,473.9035 L1191.479,475.6919" stroke="#F49F4A" stroke-width="0.96" fill="none" />
  <path d="M1188.789,476.5861 L1183.409,478.3745" stroke="#F49F4A" stroke-width="0.96" fill="none" />
  <path d="M1180.719,479.2686 L1175.339,481.057" stroke="#F49F4A" stroke-width="0.96" fill="none" />
  <path d="M1172.65,481.9512 L1167.27,483.7396" stroke="#F49F4A" stroke-width="0.96" fill="none" />
  <path d="M1164.58,484.6338 L1159.2,486.4221" stroke="#F49F4A" stroke-width="0.96" fill="none" />
  <path d="M1156.51,487.3163 L1151.13,489.1047" stroke="#F49F4A" stroke-width="0.96" fill="none" />
  <path d="M1148.44,489.9988 L1143.061,491.7872" stroke="#F49F4A" stroke-width="0.96" fill="none" />
  <path d="M1140.371,492.6814 L1137.255,493.7172" stroke="#F49F4A" stroke-width="0.96" fill="none" />
  <path d="M1620.411,462.5984 L1626.661,460.5574" stroke="#F49F4A" stroke-width="0.96" fill="none" />
  <path d="M1629.356,459.6775 L1634.745,457.9177" stroke="#F49F4A" stroke-width="0.96" fill="none" />
  <path d="M1637.44,457.0378 L1642.829,455.2779" stroke="#F49F4A" stroke-width="0.96" fill="none" />
  <path d="M1645.523,454.398 L1650.913,452.6382" stroke="#F49F4A" stroke-width="0.96" fill="none" />
  <path d="M1653.607,451.7583 L1658.997,449.9984" stroke="#F49F4A" stroke-width="0.96" fill="none" />
  <path d="M1661.691,449.1185 L1667.08,447.3587" stroke="#F49F4A" stroke-width="0.96" fill="none" />
  <path d="M1669.775,446.4788 L1675.164,444.719" stroke="#F49F4A" stroke-width="0.96" fill="none" />
  <path d="M1677.859,443.8391 L1683.248,442.0792" stroke="#F49F4A" stroke-width="0.96" fill="none" />
  <path d="M1685.943,441.1993 L1691.332,439.4395" stroke="#F49F4A" stroke-width="0.96" fill="none" />
  <path d="M1694.027,438.5596 L1699.416,436.7997" stroke="#F49F4A" stroke-width="0.96" fill="none" />
  <path d="M1702.11,435.9198 L1707.5,434.16" stroke="#F49F4A" stroke-width="0.96" fill="none" />
  <path d="M1710.194,433.2801 L1715.583,431.5203" stroke="#F49F4A" stroke-width="0.96" fill="none" />
  <path d="M1718.278,430.6404 L1723.667,428.8805" stroke="#F49F4A" stroke-width="0.96" fill="none" />
  <path d="M1726.362,428.0006 L1731.751,426.2408" stroke="#F49F4A" stroke-width="0.96" fill="none" />
  <path d="M1734.446,425.3609 L1739.835,423.6011" stroke="#F49F4A" stroke-width="0.96" fill="none" />
  <path d="M1742.53,422.7212 L1747.919,420.9613" stroke="#F49F4A" stroke-width="0.96" fill="none" />
  <path d="M1750.614,420.0814 L1756.003,418.3216" stroke="#F49F4A" stroke-width="0.96" fill="none" />
  <path d="M1758.697,417.4417 L1764.087,415.6819" stroke="#F49F4A" stroke-width="0.96" fill="none" />
  <path d="M1766.781,414.8019 L1772.171,413.0421" stroke="#F49F4A" stroke-width="0.96" fill="none" />
  <path d="M1774.865,412.1622 L1780.254,410.4024" stroke="#F49F4A" stroke-width="0.96" fill="none" />
  <path d="M1782.949,409.5225 L1788.338,407.7626" stroke="#F49F4A" stroke-width="0.96" fill="none" />
  <path d="M1791.033,406.8827 L1796.422,405.1229" stroke="#F49F4A" stroke-width="0.96" fill="none" />
  <path d="M1799.117,404.243 L1804.506,402.4832" stroke="#F49F4A" stroke-width="0.96" fill="none" />
  <path d="M1807.201,401.6032 L1813.451,399.5623" stroke="#F49F4A" stroke-width="0.96" fill="none" />
  <path d="M1484.686,608.9202 L1482.318,606.6235" stroke="#F49F4A" stroke-width="0.96" fill="none" />
  <path d="M1480.284,604.6497 L1476.214,600.7021" stroke="#F49F4A" stroke-width="0.96" fill="none" />
  <path d="M1474.18,598.7283 L1470.111,594.7806" stroke="#F49F4A" stroke-width="0.96" fill="none" />
  <path d="M1468.076,592.8069 L1464.007,588.8593" stroke="#F49F4A" stroke-width="0.96" fill="none" />
  <path d="M1461.973,586.8854 L1457.904,582.9379" stroke="#F49F4A" stroke-width="0.96" fill="none" />
  <path d="M1455.869,580.9641 L1451.8,577.0164" stroke="#F49F4A" stroke-width="0.96" fill="none" />
  <path d="M1449.766,575.0427 L1445.697,571.095" stroke="#F49F4A" stroke-width="0.96" fill="none" />
  <path d="M1443.662,569.1212 L1439.593,565.1736" stroke="#F49F4A" stroke-width="0.96" fill="none" />
  <path d="M1437.558,563.1998 L1433.489,559.2523" stroke="#F49F4A" stroke-width="0.96" fill="none" />
  <path d="M1431.455,557.2784 L1427.386,553.3308" stroke="#F49F4A" stroke-width="0.96" fill="none" />
  <path d="M1425.351,551.357 L1421.282,547.4094" stroke="#F49F4A" stroke-width="0.96" fill="none" />
  <path d="M1419.248,545.4356 L1415.178,541.488" stroke="#F49F4A" stroke-width="0.96" fill="none" />
  <path d="M1413.144,539.5142 L1409.075,535.5666" stroke="#F49F4A" stroke-width="0.96" fill="none" />
  <path d="M1407.04,533.5928 L1402.971,529.6452" stroke="#F49F4A" stroke-width="0.96" fill="none" />
  <path d="M1400.937,527.6714 L1396.868,523.7238" stroke="#F49F4A" stroke-width="0.96" fill="none" />
  <path d="M1394.833,521.75 L1390.764,517.8024" stroke="#F49F4A" stroke-width="0.96" fill="none" />
  <path d="M1388.73,515.8286 L1384.661,511.881" stroke="#F49F4A" stroke-width="0.96" fill="none" />
  <path d="M1382.626,509.9072 L1378.557,505.9596" stroke="#F49F4A" stroke-width="0.96" fill="none" />
  <path d="M1376.522,503.9858 L1372.453,500.0382" stroke="#F49F4A" stroke-width="0.96" fill="none" />
  <path d="M1370.419,498.0644 L1366.35,494.1168" stroke="#F49F4A" stroke-width="0.96" fill="none" />
  <path d="M1364.315,492.143 L1360.246,488.1954" stroke="#F49F4A" stroke-width="0.96" fill="none" />
  <path d="M1358.212,486.2216 L1354.143,482.274" stroke="#F49F4A" stroke-width="0.96" fill="none" />
  <path d="M1352.108,480.3002 L1348.039,476.3526" stroke="#F49F4A" stroke-width="0.96" fill="none" />
  <path d="M1346.004,474.3788 L1341.935,470.4312" stroke="#F49F4A" stroke-width="0.96" fill="none" />
  <path d="M1339.901,468.4574 L1335.832,464.5098" stroke="#F49F4A" stroke-width="0.96" fill="none" />
  <path d="M1333.797,462.5359 L1329.728,458.5883" stroke="#F49F4A" stroke-width="0.96" fill="none" />
  <path d="M1327.694,456.6145 L1323.625,452.6669" stroke="#F49F4A" stroke-width="0.96" fill="none" />
  <path d="M1321.59,450.6931 L1317.521,446.7455" stroke="#F49F4A" stroke-width="0.96" fill="none" />
  <path d="M1315.486,444.7717 L1311.417,440.8241" stroke="#F49F4A" stroke-width="0.96" fill="none" />
  <path d="M1309.383,438.8503 L1305.314,434.9027" stroke="#F49F4A" stroke-width="0.96" fill="none" />
  <path d="M1303.279,432.9289 L1299.21,428.9813" stroke="#F49F4A" stroke-width="0.96" fill="none" />
  <path d="M1297.176,427.0075 L1293.107,423.0599" stroke="#F49F4A" stroke-width="0.96" fill="none" />
  <path d="M1291.072,421.0861 L1288.705,418.7894" stroke="#F49F4A" stroke-width="0.96" fill="none" />
  <path d="M1781.017,344.4769 L1776.449,340.4685" stroke="#F49F4A" stroke-width="0.96" fill="none" />
  <path d="M1774.319,338.5988 L1770.057,334.8593" stroke="#F49F4A" stroke-width="0.96" fill="none" />
  <path d="M1767.927,332.9896 L1763.666,329.2502" stroke="#F49F4A" stroke-width="0.96" fill="none" />
  <path d="M1761.535,327.3805 L1757.274,323.6411" stroke="#F49F4A" stroke-width="0.96" fill="none" />
  <path d="M1755.143,321.7713 L1750.882,318.0319" stroke="#F49F4A" stroke-width="0.96" fill="none" />
  <path d="M1748.752,316.1622 L1744.49,312.4228" stroke="#F49F4A" stroke-width="0.96" fill="none" />
  <path d="M1742.36,310.5531 L1738.099,306.8136" stroke="#F49F4A" stroke-width="0.96" fill="none" />
  <path d="M1735.968,304.9439 L1731.707,301.2045" stroke="#F49F4A" stroke-width="0.96" fill="none" />
  <path d="M1729.576,299.3348 L1725.315,295.5954" stroke="#F49F4A" stroke-width="0.96" fill="none" />
  <path d="M1723.185,293.7256 L1718.923,289.9862" stroke="#F49F4A" stroke-width="0.96" fill="none" />
  <path d="M1716.793,288.1165 L1712.532,284.3771" stroke="#F49F4A" stroke-width="0.96" fill="none" />
  <path d="M1710.401,282.5074 L1705.833,278.4989" stroke="#F49F4A" stroke-width="0.96" fill="none" />
  <path d="M1494.127,336.9658 L1496.554,339.391" stroke="#F49F4A" stroke-width="0.96" fill="none" />
  <path d="M1498.559,341.3947 L1502.569,345.402" stroke="#F49F4A" stroke-width="0.96" fill="none" />
  <path d="M1504.574,347.4056 L1508.584,351.413" stroke="#F49F4A" stroke-width="0.96" fill="none" />
  <path d="M1510.589,353.4166 L1514.6,357.424" stroke="#F49F4A" stroke-width="0.96" fill="none" />
  <path d="M1516.605,359.4276 L1520.615,363.435" stroke="#F49F4A" stroke-width="0.96" fill="none" />
  <path d="M1522.62,365.4386 L1526.63,369.446" stroke="#F49F4A" stroke-width="0.96" fill="none" />
  <path d="M1528.636,371.4496 L1532.646,375.457" stroke="#F49F4A" stroke-width="0.96" fill="none" />
  <path d="M1534.651,377.4606 L1538.661,381.468" stroke="#F49F4A" stroke-width="0.96" fill="none" />
  <path d="M1540.666,383.4716 L1544.677,387.4789" stroke="#F49F4A" stroke-width="0.96" fill="none" />
  <path d="M1546.682,389.4826 L1550.692,393.49" stroke="#F49F4A" stroke-width="0.96" fill="none" />
  <path d="M1552.697,395.4936 L1556.707,399.5009" stroke="#F49F4A" stroke-width="0.96" fill="none" />
  <path d="M1558.713,401.5046 L1562.723,405.5119" stroke="#F49F4A" stroke-width="0.96" fill="none" />
  <path d="M1564.728,407.5156 L1568.738,411.5229" stroke="#F49F4A" stroke-width="0.96" fill="none" />
  <path d="M1570.743,413.5266 L1574.754,417.5339" stroke="#F49F4A" stroke-width="0.96" fill="none" />
  <path d="M1576.759,419.5376 L1580.769,423.5449" stroke="#F49F4A" stroke-width="0.96" fill="none" />
  <path d="M1582.774,425.5486 L1586.784,429.5559" stroke="#F49F4A" stroke-width="0.96" fill="none" />
  <path d="M1588.789,431.5596 L1592.8,435.5669" stroke="#F49F4A" stroke-width="0.96" fill="none" />
  <path d="M1594.805,437.5706 L1598.815,441.5779" stroke="#F49F4A" stroke-width="0.96" fill="none" />
  <path d="M1600.82,443.5816 L1604.83,447.5889" stroke="#F49F4A" stroke-width="0.96" fill="none" />
  <path d="M1606.836,449.5926 L1610.846,453.5999" stroke="#F49F4A" stroke-width="0.96" fill="none" />
  <path d="M1612.851,455.6036 L1616.861,459.6109" stroke="#F49F4A" stroke-width="0.96" fill="none" />
  <path d="M1618.866,461.6146 L1622.877,465.6219" stroke="#F49F4A" stroke-width="0.96" fill="none" />
  <path d="M1624.882,467.6255 L1628.892,471.6329" stroke="#F49F4A" stroke-width="0.96" fill="none" />
  <path d="M1630.897,473.6366 L1634.907,477.6439" stroke="#F49F4A" stroke-width="0.96" fill="none" />
  <path d="M1636.913,479.6476 L1640.923,483.6549" stroke="#F49F4A" stroke-width="0.96" fill="none" />
  <path d="M1642.928,485.6585 L1646.938,489.6659" stroke="#F49F4A" stroke-width="0.96" fill="none" />
  <path d="M1648.943,491.6696 L1652.954,495.6769" stroke="#F49F4A" stroke-width="0.96" fill="none" />
  <path d="M1654.959,497.6805 L1658.969,501.6879" stroke="#F49F4A" stroke-width="0.96" fill="none" />
  <path d="M1660.974,503.6915 L1664.984,507.6989" stroke="#F49F4A" stroke-width="0.96" fill="none" />
  <path d="M1666.99,509.7025 L1671,513.7098" stroke="#F49F4A" stroke-width="0.96" fill="none" />
  <path d="M1673.005,515.7136 L1677.015,519.7209" stroke="#F49F4A" stroke-width="0.96" fill="none" />
  <path d="M1679.02,521.7245 L1683.031,525.7319" stroke="#F49F4A" stroke-width="0.96" fill="none" />
  <path d="M1685.036,527.7355 L1687.463,530.1607" stroke="#F49F4A" stroke-width="0.96" fill="none" />
  <path d="M1802.138,465.7894 L1796.816,467.5203" stroke="#F49F4A" stroke-width="0.96" fill="none" />
  <path d="M1794.12,468.3971 L1788.729,470.1507" stroke="#F49F4A" stroke-width="0.96" fill="none" />
  <path d="M1786.033,471.0274 L1780.642,472.781" stroke="#F49F4A" stroke-width="0.96" fill="none" />
  <path d="M1777.947,473.6577 L1772.555,475.4113" stroke="#F49F4A" stroke-width="0.96" fill="none" />
  <path d="M1769.86,476.2881 L1764.468,478.0416" stroke="#F49F4A" stroke-width="0.96" fill="none" />
  <path d="M1761.773,478.9184 L1756.381,480.672" stroke="#F49F4A" stroke-width="0.96" fill="none" />
  <path d="M1753.686,481.5487 L1748.295,483.3023" stroke="#F49F4A" stroke-width="0.96" fill="none" />
  <path d="M1745.599,484.1791 L1740.208,485.9326" stroke="#F49F4A" stroke-width="0.96" fill="none" />
  <path d="M1737.512,486.8094 L1732.121,488.563" stroke="#F49F4A" stroke-width="0.96" fill="none" />
  <path d="M1729.425,489.4397 L1724.034,491.1933" stroke="#F49F4A" stroke-width="0.96" fill="none" />
  <path d="M1721.338,492.0701 L1715.947,493.8236" stroke="#F49F4A" stroke-width="0.96" fill="none" />
  <path d="M1713.251,494.7004 L1707.86,496.4539" stroke="#F49F4A" stroke-width="0.96" fill="none" />
  <path d="M1705.164,497.3307 L1699.773,499.0843" stroke="#F49F4A" stroke-width="0.96" fill="none" />
  <path d="M1697.077,499.961 L1691.686,501.7146" stroke="#F49F4A" stroke-width="0.96" fill="none" />
  <path d="M1688.99,502.5914 L1683.599,504.3449" stroke="#F49F4A" stroke-width="0.96" fill="none" />
  <path d="M1680.903,505.2217 L1675.512,506.9753" stroke="#F49F4A" stroke-width="0.96" fill="none" />
  <path d="M1672.817,507.852 L1667.495,509.583" stroke="#F49F4A" stroke-width="0.96" fill="none" />
  <path d="M1816.711,340.6342 L1814.747,346.9325" stroke="#F49F4A" stroke-width="0.96" fill="none" />
  <path d="M1813.903,349.6385 L1812.215,355.0507" stroke="#F49F4A" stroke-width="0.96" fill="none" />
  <path d="M1811.371,357.7568 L1809.683,363.1689" stroke="#F49F4A" stroke-width="0.96" fill="none" />
  <path d="M1808.839,365.875 L1807.151,371.2871" stroke="#F49F4A" stroke-width="0.96" fill="none" />
  <path d="M1806.307,373.9932 L1804.619,379.4054" stroke="#F49F4A" stroke-width="0.96" fill="none" />
  <path d="M1803.775,382.1115 L1802.087,387.5236" stroke="#F49F4A" stroke-width="0.96" fill="none" />
  <path d="M1801.243,390.2297 L1799.555,395.6418" stroke="#F49F4A" stroke-width="0.96" fill="none" />
  <path d="M1798.71,398.3479 L1797.022,403.7601" stroke="#F49F4A" stroke-width="0.96" fill="none" />
  <path d="M1796.178,406.4661 L1794.49,411.8783" stroke="#F49F4A" stroke-width="0.96" fill="none" />
  <path d="M1793.646,414.5844 L1791.958,419.9965" stroke="#F49F4A" stroke-width="0.96" fill="none" />
  <path d="M1791.114,422.7026 L1789.426,428.1147" stroke="#F49F4A" stroke-width="0.96" fill="none" />
  <path d="M1788.582,430.8208 L1786.894,436.233" stroke="#F49F4A" stroke-width="0.96" fill="none" />
  <path d="M1786.05,438.9391 L1784.362,444.3512" stroke="#F49F4A" stroke-width="0.96" fill="none" />
  <path d="M1783.518,447.0573 L1781.83,452.4694" stroke="#F49F4A" stroke-width="0.96" fill="none" />
  <path d="M1780.986,455.1755 L1779.298,460.5876" stroke="#F49F4A" stroke-width="0.96" fill="none" />
  <path d="M1778.454,463.2937 L1776.766,468.7059" stroke="#F49F4A" stroke-width="0.96" fill="none" />
  <path d="M1775.922,471.412 L1774.234,476.8241" stroke="#F49F4A" stroke-width="0.96" fill="none" />
  <path d="M1773.39,479.5302 L1771.702,484.9423" stroke="#F49F4A" stroke-width="0.96" fill="none" />
  <path d="M1770.858,487.6484 L1769.17,493.0605" stroke="#F49F4A" stroke-width="0.96" fill="none" />
  <path d="M1768.326,495.7666 L1766.361,502.0649" stroke="#F49F4A" stroke-width="0.96" fill="none" />
  <path d="M137.873,842.2866 L144.561,842.2866" stroke="#F49F4A" stroke-width="0.96" fill="none" />
  <path d="M147.3956,842.2866 L153.0649,842.2866" stroke="#F49F4A" stroke-width="0.96" fill="none" />
  <path d="M155.8996,842.2866 L161.5688,842.2866" stroke="#F49F4A" stroke-width="0.96" fill="none" />
  <path d="M164.4035,842.2866 L170.0728,842.2866" stroke="#F49F4A" stroke-width="0.96" fill="none" />
  <path d="M172.9074,842.2866 L178.5767,842.2866" stroke="#F49F4A" stroke-width="0.96" fill="none" />
  <path d="M181.4114,842.2866 L187.0807,842.2866" stroke="#F49F4A" stroke-width="0.96" fill="none" />
  <path d="M189.9153,842.2866 L195.5846,842.2866" stroke="#F49F4A" stroke-width="0.96" fill="none" />
  <path d="M198.4192,842.2866 L204.0885,842.2866" stroke="#F49F4A" stroke-width="0.96" fill="none" />
  <path d="M206.9232,842.2866 L212.5925,842.2866" stroke="#F49F4A" stroke-width="0.96" fill="none" />
  <path d="M215.4271,842.2866 L221.0964,842.2866" stroke="#F49F4A" stroke-width="0.96" fill="none" />
  <path d="M223.931,842.2866 L229.6003,842.2866" stroke="#F49F4A" stroke-width="0.96" fill="none" />
  <path d="M232.435,842.2866 L239.123,842.2866" stroke="#F49F4A" stroke-width="0.96" fill="none" />
  <path d="M1359.428,487.4211 L1355.537,488.7581" stroke="#F49F4A" stroke-width="0.96" fill="none" />
  <path d="M1352.856,489.6794 L1347.495,491.5218" stroke="#F49F4A" stroke-width="0.96" fill="none" />
  <path d="M1344.814,492.443 L1339.452,494.2855" stroke="#F49F4A" stroke-width="0.96" fill="none" />
  <path d="M1336.771,495.2067 L1331.41,497.0491" stroke="#F49F4A" stroke-width="0.96" fill="none" />
  <path d="M1328.729,497.9703 L1323.368,499.8128" stroke="#F49F4A" stroke-width="0.96" fill="none" />
  <path d="M1320.687,500.734 L1315.325,502.5764" stroke="#F49F4A" stroke-width="0.96" fill="none" />
  <path d="M1312.644,503.4977 L1307.283,505.3401" stroke="#F49F4A" stroke-width="0.96" fill="none" />
  <path d="M1304.602,506.2613 L1299.24,508.1037" stroke="#F49F4A" stroke-width="0.96" fill="none" />
  <path d="M1296.56,509.025 L1291.198,510.8674" stroke="#F49F4A" stroke-width="0.96" fill="none" />
  <path d="M1288.517,511.7886 L1283.156,513.631" stroke="#F49F4A" stroke-width="0.96" fill="none" />
  <path d="M1280.475,514.5522 L1275.114,516.3947" stroke="#F49F4A" stroke-width="0.96" fill="none" />
  <path d="M1272.433,517.3159 L1267.071,519.1584" stroke="#F49F4A" stroke-width="0.96" fill="none" />
  <path d="M1264.39,520.0796 L1259.029,521.922" stroke="#F49F4A" stroke-width="0.96" fill="none" />
  <path d="M1256.348,522.8433 L1250.987,524.6857" stroke="#F49F4A" stroke-width="0.96" fill="none" />
  <path d="M1248.306,525.6069 L1242.944,527.4493" stroke="#F49F4A" stroke-width="0.96" fill="none" />
  <path d="M1240.263,528.3705 L1234.902,530.213" stroke="#F49F4A" stroke-width="0.96" fill="none" />
  <path d="M1232.221,531.1342 L1226.859,532.9766" stroke="#F49F4A" stroke-width="0.96" fill="none" />
  <path d="M1224.179,533.8978 L1218.817,535.7403" stroke="#F49F4A" stroke-width="0.96" fill="none" />
  <path d="M1216.136,536.6615 L1210.775,538.504" stroke="#F49F4A" stroke-width="0.96" fill="none" />
  <path d="M1208.094,539.4252 L1202.733,541.2676" stroke="#F49F4A" stroke-width="0.96" fill="none" />
  <path d="M1200.052,542.1888 L1194.69,544.0313" stroke="#F49F4A" stroke-width="0.96" fill="none" />
  <path d="M1192.009,544.9525 L1186.648,546.7949" stroke="#F49F4A" stroke-width="0.96" fill="none" />
  <path d="M1183.967,547.7161 L1178.605,549.5586" stroke="#F49F4A" stroke-width="0.96" fill="none" />
  <path d="M1175.925,550.4798 L1170.563,552.3222" stroke="#F49F4A" stroke-width="0.96" fill="none" />
  <path d="M1167.882,553.2434 L1162.521,555.0859" stroke="#F49F4A" stroke-width="0.96" fill="none" />
  <path d="M1159.84,556.0071 L1155.949,557.3442" stroke="#F49F4A" stroke-width="0.96" fill="none" />
  <path d="M1794.304,340.928 L1789.312,342.577" stroke="#F49F4A" stroke-width="0.96" fill="none" />
  <path d="M1786.62,343.4662 L1781.237,345.2444" stroke="#F49F4A" stroke-width="0.96" fill="none" />
  <path d="M1778.546,346.1335 L1773.163,347.9118" stroke="#F49F4A" stroke-width="0.96" fill="none" />
  <path d="M1770.471,348.8009 L1765.088,350.5791" stroke="#F49F4A" stroke-width="0.96" fill="none" />
  <path d="M1762.396,351.4683 L1757.013,353.2465" stroke="#F49F4A" stroke-width="0.96" fill="none" />
  <path d="M1754.321,354.1356 L1748.938,355.9139" stroke="#F49F4A" stroke-width="0.96" fill="none" />
  <path d="M1746.247,356.803 L1740.863,358.5812" stroke="#F49F4A" stroke-width="0.96" fill="none" />
  <path d="M1738.172,359.4704 L1732.789,361.2486" stroke="#F49F4A" stroke-width="0.96" fill="none" />
  <path d="M1730.097,362.1377 L1724.714,363.916" stroke="#F49F4A" stroke-width="0.96" fill="none" />
  <path d="M1722.022,364.8051 L1716.639,366.5833" stroke="#F49F4A" stroke-width="0.96" fill="none" />
  <path d="M1713.948,367.4724 L1708.564,369.2507" stroke="#F49F4A" stroke-width="0.96" fill="none" />
  <path d="M1705.873,370.1398 L1700.49,371.9181" stroke="#F49F4A" stroke-width="0.96" fill="none" />
  <path d="M1697.798,372.8072 L1692.415,374.5854" stroke="#F49F4A" stroke-width="0.96" fill="none" />
  <path d="M1689.723,375.4745 L1684.34,377.2528" stroke="#F49F4A" stroke-width="0.96" fill="none" />
  <path d="M1681.648,378.1419 L1676.265,379.9202" stroke="#F49F4A" stroke-width="0.96" fill="none" />
  <path d="M1673.574,380.8093 L1668.19,382.5875" stroke="#F49F4A" stroke-width="0.96" fill="none" />
  <path d="M1665.499,383.4767 L1660.116,385.2549" stroke="#F49F4A" stroke-width="0.96" fill="none" />
  <path d="M1657.424,386.144 L1652.041,387.9223" stroke="#F49F4A" stroke-width="0.96" fill="none" />
  <path d="M1649.349,388.8114 L1643.966,390.5896" stroke="#F49F4A" stroke-width="0.96" fill="none" />
  <path d="M1641.274,391.4788 L1635.891,393.257" stroke="#F49F4A" stroke-width="0.96" fill="none" />
  <path d="M1633.2,394.1461 L1627.817,395.9244" stroke="#F49F4A" stroke-width="0.96" fill="none" />
  <path d="M1625.125,396.8135 L1619.742,398.5917" stroke="#F49F4A" stroke-width="0.96" fill="none" />
  <path d="M1617.05,399.4809 L1611.667,401.2591" stroke="#F49F4A" stroke-width="0.96" fill="none" />
  <path d="M1608.975,402.1482 L1603.592,403.9265" stroke="#F49F4A" stroke-width="0.96" fill="none" />
  <path d="M1600.901,404.8156 L1595.517,406.5938" stroke="#F49F4A" stroke-width="0.96" fill="none" />
  <path d="M1592.826,407.4829 L1587.443,409.2612" stroke="#F49F4A" stroke-width="0.96" fill="none" />
  <path d="M1584.751,410.1503 L1579.368,411.9286" stroke="#F49F4A" stroke-width="0.96" fill="none" />
  <path d="M1576.676,412.8177 L1571.684,414.4667" stroke="#F49F4A" stroke-width="0.96" fill="none" />
  <path d="M1522.933,365.7513 L1526.188,364.673" stroke="#F49F4A" stroke-width="0.96" fill="none" />
  <path d="M1528.878,363.7816 L1534.26,361.9986" stroke="#F49F4A" stroke-width="0.96" fill="none" />
  <path d="M1536.951,361.1071 L1542.333,359.3242" stroke="#F49F4A" stroke-width="0.96" fill="none" />
  <path d="M1545.023,358.4328 L1550.405,356.6498" stroke="#F49F4A" stroke-width="0.96" fill="none" />
  <path d="M1553.096,355.7584 L1558.477,353.9754" stroke="#F49F4A" stroke-width="0.96" fill="none" />
  <path d="M1561.168,353.084 L1566.55,351.301" stroke="#F49F4A" stroke-width="0.96" fill="none" />
  <path d="M1569.241,350.4096 L1574.622,348.6266" stroke="#F49F4A" stroke-width="0.96" fill="none" />
  <path d="M1577.313,347.7352 L1582.695,345.9522" stroke="#F49F4A" stroke-width="0.96" fill="none" />
  <path d="M1585.386,345.0608 L1590.767,343.2778" stroke="#F49F4A" stroke-width="0.96" fill="none" />
  <path d="M1593.458,342.3864 L1598.84,340.6034" stroke="#F49F4A" stroke-width="0.96" fill="none" />
  <path d="M1601.531,339.712 L1606.912,337.929" stroke="#F49F4A" stroke-width="0.96" fill="none" />
  <path d="M1609.603,337.0376 L1614.985,335.2546" stroke="#F49F4A" stroke-width="0.96" fill="none" />
  <path d="M1617.675,334.3632 L1623.057,332.5802" stroke="#F49F4A" stroke-width="0.96" fill="none" />
  <path d="M1625.748,331.6888 L1631.13,329.9059" stroke="#F49F4A" stroke-width="0.96" fill="none" />
  <path d="M1633.82,329.0144 L1639.202,327.2314" stroke="#F49F4A" stroke-width="0.96" fill="none" />
  <path d="M1641.893,326.34 L1647.274,324.557" stroke="#F49F4A" stroke-width="0.96" fill="none" />
  <path d="M1649.965,323.6656 L1655.347,321.8827" stroke="#F49F4A" stroke-width="0.96" fill="none" />
  <path d="M1658.038,320.9912 L1663.419,319.2083" stroke="#F49F4A" stroke-width="0.96" fill="none" />
  <path d="M1666.11,318.3168 L1671.492,316.5338" stroke="#F49F4A" stroke-width="0.96" fill="none" />
  <path d="M1674.183,315.6424 L1679.564,313.8595" stroke="#F49F4A" stroke-width="0.96" fill="none" />
  <path d="M1682.255,312.968 L1687.637,311.1851" stroke="#F49F4A" stroke-width="0.96" fill="none" />
  <path d="M1690.328,310.2936 L1695.709,308.5107" stroke="#F49F4A" stroke-width="0.96" fill="none" />
  <path d="M1698.4,307.6192 L1703.782,305.8363" stroke="#F49F4A" stroke-width="0.96" fill="none" />
  <path d="M1706.472,304.9448 L1711.854,303.1619" stroke="#F49F4A" stroke-width="0.96" fill="none" />
  <path d="M1714.545,302.2704 L1719.927,300.4875" stroke="#F49F4A" stroke-width="0.96" fill="none" />
  <path d="M1722.617,299.596 L1727.999,297.8131" stroke="#F49F4A" stroke-width="0.96" fill="none" />
  <path d="M1730.69,296.9216 L1736.071,295.1387" stroke="#F49F4A" stroke-width="0.96" fill="none" />
  <path d="M1738.762,294.2472 L1742.017,293.169" stroke="#F49F4A" stroke-width="0.96" fill="none" />
  <path d="M1450.589,373.1353 C1452.741,372.9172 1455.18,375.3565 1454.962,377.5084 C1455.18,379.6602 1452.741,382.0995 1450.589,381.8814 C1448.437,382.0995 1445.998,379.6602 1446.216,377.5084 C1445.998,375.3565 1448.437,372.9172 1450.589,373.1353 z" stroke="Black" stroke-width="0" fill="#F49F4A" fill-opacity="1" />
  <path d="M1427.04,380.3813 C1429.191,380.1632 1431.631,382.6025 1431.413,384.7544 C1431.631,386.9062 1429.191,389.3456 1427.04,389.1274 C1424.888,389.3456 1422.448,386.9062 1422.667,384.7544 C1422.448,382.6025 1424.888,380.1632 1427.04,380.3813 z" stroke="Black" stroke-width="0" fill="#F49F4A" fill-opacity="1" />
  <path d="M1462.116,563.5024 C1464.268,563.2842 1466.707,565.7236 1466.489,567.8754 C1466.707,570.0273 1464.268,572.4666 1462.116,572.2485 C1459.964,572.4666 1457.525,570.0273 1457.743,567.8754 C1457.525,565.7236 1459.964,563.2842 1462.116,563.5024 z" stroke="Black" stroke-width="0" fill="#F49F4A" fill-opacity="1" />
  <path d="M1755.883,336.0579 C1758.035,335.8397 1760.475,338.2791 1760.256,340.4309 C1760.475,342.5827 1758.035,345.0221 1755.883,344.8039 C1753.732,345.0221 1751.292,342.5827 1751.51,340.4309 C1751.292,338.2791 1753.732,335.8397 1755.883,336.0579 z" stroke="Black" stroke-width="0" fill="#F49F4A" fill-opacity="1" />
  <path d="M1518.017,342.1199 C1520.169,341.9018 1522.609,344.3412 1522.391,346.493 C1522.609,348.6448 1520.169,351.0842 1518.017,350.866 C1515.866,351.0842 1513.426,348.6448 1513.644,346.493 C1513.426,344.3412 1515.866,341.9018 1518.017,342.1199 z" stroke="Black" stroke-width="0" fill="#F49F4A" fill-opacity="1" />
  <path d="M1551.521,471.3047 C1553.673,471.0865 1556.113,473.5259 1555.895,475.6777 C1556.113,477.8295 1553.673,480.2689 1551.521,480.0508 C1549.37,480.2689 1546.93,477.8295 1547.148,475.6777 C1546.93,473.5259 1549.37,471.0865 1551.521,471.3047 z" stroke="Black" stroke-width="0" fill="#F49F4A" fill-opacity="1" />
  <path d="M1153.238,474.4374 C1155.389,474.2193 1157.829,476.6587 1157.611,478.8105 C1157.829,480.9623 1155.389,483.4017 1153.238,483.1835 C1151.086,483.4017 1148.646,480.9623 1148.865,478.8105 C1148.646,476.6587 1151.086,474.2193 1153.238,474.4374 z" stroke="Black" stroke-width="0" fill="#F49F4A" fill-opacity="1" />
  <path d="M1798.666,376.0336 C1800.818,375.8154 1803.257,378.2548 1803.039,380.4066 C1803.257,382.5584 1800.818,384.9978 1798.666,384.7797 C1796.514,384.9978 1794.075,382.5584 1794.293,380.4066 C1794.075,378.2548 1796.514,375.8154 1798.666,376.0336 z" stroke="Black" stroke-width="0" fill="#F49F4A" fill-opacity="1" />
  <path d="M1586.106,329.061 C1588.258,328.8429 1590.698,331.2823 1590.479,333.4341 C1590.698,335.5859 1588.258,338.0253 1586.106,337.8071 C1583.955,338.0253 1581.515,335.5859 1581.733,333.4341 C1581.515,331.2823 1583.955,328.8429 1586.106,329.061 z" stroke="Black" stroke-width="0" fill="#F49F4A" fill-opacity="1" />
  <path d="M1629.889,379.4801 C1632.041,379.2619 1634.48,381.7013 1634.262,383.8531 C1634.48,386.0049 1632.041,388.4443 1629.889,388.2262 C1627.737,388.4443 1625.298,386.0049 1625.516,383.8531 C1625.298,381.7013 1627.737,379.2619 1629.889,379.4801 z" stroke="Black" stroke-width="0" fill="#F49F4A" fill-opacity="1" />
  <path d="M1328.272,482.7704 C1330.424,482.5522 1332.863,484.9915 1332.645,487.1434 C1332.863,489.2952 1330.424,491.7346 1328.272,491.5164 C1326.12,491.7346 1323.681,489.2952 1323.899,487.1434 C1323.681,484.9915 1326.12,482.5522 1328.272,482.7704 z" stroke="Black" stroke-width="0" fill="#F49F4A" fill-opacity="1" />
  <path d="M1714.993,478.0837 C1717.145,477.8655 1719.585,480.3049 1719.366,482.4567 C1719.585,484.6086 1717.145,487.0479 1714.993,486.8297 C1712.842,487.0479 1710.402,484.6086 1710.62,482.4567 C1710.402,480.3049 1712.842,477.8655 1714.993,478.0837 z" stroke="Black" stroke-width="0" fill="#F49F4A" fill-opacity="1" />
  <path d="M1215.512,691.378 C1217.664,691.1598 1220.103,693.5992 1219.885,695.751 C1220.103,697.9028 1217.664,700.3422 1215.512,700.124 C1213.36,700.3422 1210.921,697.9028 1211.139,695.751 C1210.921,693.5992 1213.36,691.1598 1215.512,691.378 z" stroke="Black" stroke-width="0" fill="#F49F4A" fill-opacity="1" />
  <path d="M1657.475,476.3229 C1659.626,476.1047 1662.066,478.5441 1661.848,480.6959 C1662.066,482.8477 1659.626,485.2871 1657.475,485.069 C1655.323,485.2871 1652.883,482.8477 1653.102,480.6959 C1652.883,478.5441 1655.323,476.1047 1657.475,476.3229 z" stroke="Black" stroke-width="0" fill="#F49F4A" fill-opacity="1" />
  <path d="M1502.426,421.3973 C1504.578,421.1792 1507.017,423.6185 1506.799,425.7704 C1507.017,427.9222 1504.578,430.3615 1502.426,430.1434 C1500.274,430.3615 1497.835,427.9222 1498.053,425.7704 C1497.835,423.6185 1500.274,421.1792 1502.426,421.3973 z" stroke="Black" stroke-width="0" fill="#F49F4A" fill-opacity="1" />
  <path d="M1351.738,411.994 C1353.89,411.7759 1356.329,414.2152 1356.111,416.3671 C1356.329,418.5189 1353.89,420.9583 1351.738,420.7401 C1349.586,420.9583 1347.147,418.5189 1347.365,416.3671 C1347.147,414.2152 1349.586,411.7759 1351.738,411.994 z" stroke="Black" stroke-width="0" fill="#F49F4A" fill-opacity="1" />
  <path d="M1607.858,515.2801 C1610.009,515.062 1612.449,517.5013 1612.231,519.6531 C1612.449,521.805 1610.009,524.2443 1607.858,524.0262 C1605.706,524.2443 1603.266,521.805 1603.484,519.6531 C1603.266,517.5013 1605.706,515.062 1607.858,515.2801 z" stroke="Black" stroke-width="0" fill="#F49F4A" fill-opacity="1" />
  <path d="M1168.791,524.9131 C1170.943,524.6949 1173.382,527.1343 1173.164,529.2861 C1173.382,531.438 1170.943,533.8773 1168.791,533.6592 C1166.639,533.8773 1164.2,531.438 1164.418,529.2861 C1164.2,527.1343 1166.639,524.6949 1168.791,524.9131 z" stroke="Black" stroke-width="0" fill="#F49F4A" fill-opacity="1" />
  <path d="M1543.795,408.1165 C1545.947,407.8983 1548.386,410.3376 1548.168,412.4895 C1548.386,414.6413 1545.947,417.0807 1543.795,416.8625 C1541.643,417.0807 1539.204,414.6413 1539.422,412.4895 C1539.204,410.3376 1541.643,407.8983 1543.795,408.1165 z" stroke="Black" stroke-width="0" fill="#F49F4A" fill-opacity="1" />
  <path d="M1691.105,550.7701 C1693.257,550.5519 1695.696,552.9913 1695.478,555.1431 C1695.696,557.2949 1693.257,559.7343 1691.105,559.5161 C1688.953,559.7343 1686.514,557.2949 1686.732,555.1431 C1686.514,552.9913 1688.953,550.5519 1691.105,550.7701 z" stroke="Black" stroke-width="0" fill="#F49F4A" fill-opacity="1" />
  <path d="M188.7751,747.5485 C192.3176,747.4543 196.5795,749.0621 199.5142,751.9968 C202.449,754.9316 204.0567,759.1934 203.9626,762.736 C204.0567,766.2786 202.449,770.5404 199.5142,773.4752 C196.5795,776.41 192.3176,778.0177 188.7751,777.9235 C185.2325,778.0177 180.9706,776.41 178.0359,773.4752 C175.1011,770.5404 173.4934,766.2786 173.5876,762.736 C173.4934,759.1934 175.1011,754.9316 178.0359,751.9968 C180.9706,749.0621 185.2325,747.4543 188.7751,747.5485 z" stroke="Black" stroke-width="0" fill="#F49F4A" fill-opacity="1" />
  <path d="M1776.914,439.64 C1779.066,439.4219 1781.505,441.8612 1781.287,444.0131 C1781.505,446.1649 1779.066,448.6042 1776.914,448.3861 C1774.762,448.6042 1772.323,446.1649 1772.541,444.0131 C1772.323,441.8612 1774.762,439.4219 1776.914,439.64 z" stroke="Black" stroke-width="0" fill="#F49F4A" fill-opacity="1" />
  <path d="M1650.123,308.9461 C1652.275,308.728 1654.714,311.1673 1654.496,313.3192 C1654.714,315.471 1652.275,317.9103 1650.123,317.6922 C1647.971,317.9103 1645.531,315.471 1645.75,313.3192 C1645.531,311.1673 1647.971,308.728 1650.123,308.9461 z" stroke="Black" stroke-width="0" fill="#F49F4A" fill-opacity="1" />
  <path d="M1801.824,367.9487 C1803.976,367.7306 1806.415,370.1699 1806.197,372.3217 C1806.415,374.4736 1803.976,376.9129 1801.824,376.6948 C1799.672,376.9129 1797.233,374.4736 1797.451,372.3217 C1797.233,370.1699 1799.672,367.7306 1801.824,367.9487 z" stroke="Black" stroke-width="0" fill="#F49F4A" fill-opacity="1" />
  <path d="M1500.496,325.5614 C1502.648,325.3433 1505.087,327.7826 1504.869,329.9344 C1505.087,332.0863 1502.648,334.5256 1500.496,334.3075 C1498.344,334.5256 1495.905,332.0863 1496.123,329.9344 C1495.905,327.7826 1498.344,325.3433 1500.496,325.5614 z" stroke="Black" stroke-width="0" fill="#F49F4A" fill-opacity="1" />
  <path d="M1494.127,336.9659 L1494.564,343.5988" stroke="#F49F4A" stroke-width="0.96" fill="none" />
  <path d="M1816.711,340.6342 L1820.178,346.3059" stroke="#F49F4A" stroke-width="0.96" fill="none" />
  <path d="M1816.711,340.6342 L1811.045,344.1098" stroke="#F49F4A" stroke-width="0.96" fill="none" />
  <path d="M1794.304,340.928 L1791.256,346.8356" stroke="#F49F4A" stroke-width="0.96" fill="none" />
  <path d="M1813.451,399.5623 L1810.403,405.4698" stroke="#F49F4A" stroke-width="0.96" fill="none" />
  <path d="M1794.304,340.928 L1788.392,337.8894" stroke="#F49F4A" stroke-width="0.96" fill="none" />
  <path d="M239.123,842.2866 L230.3029,851.0931" stroke="#F49F4A" stroke-width="0.96" fill="none" />
  <path d="M1742.017,293.169 L1736.104,290.1304" stroke="#F49F4A" stroke-width="0.96" fill="none" />
  <path d="M1794.304,340.928 L1791.256,346.8356" stroke="#F49F4A" stroke-width="0.96" fill="none" />
  <path d="M1742.017,293.169 L1738.969,299.0766" stroke="#F49F4A" stroke-width="0.96" fill="none" />
  <path d="M1163.847,456.7994 L1160.434,462.5042" stroke="#F49F4A" stroke-width="0.96" fill="none" />
  <path d="M1163.847,456.7994 L1169.546,460.2204" stroke="#F49F4A" stroke-width="0.96" fill="none" />
  <path d="M1288.705,418.7894 L1289.142,425.4224" stroke="#F49F4A" stroke-width="0.96" fill="none" />
  <path d="M1816.711,340.6342 L1820.178,346.3059" stroke="#F49F4A" stroke-width="0.96" fill="none" />
  <path d="M1288.705,418.7894 L1295.338,418.3619" stroke="#F49F4A" stroke-width="0.96" fill="none" />
  <path d="M1705.833,278.499 L1706.271,285.132" stroke="#F49F4A" stroke-width="0.96" fill="none" />
  <path d="M1766.361,502.065 L1772.438,499.3698" stroke="#F49F4A" stroke-width="0.96" fill="none" />
  <path d="M1813.451,399.5623 L1810.403,405.4698" stroke="#F49F4A" stroke-width="0.96" fill="none" />
  <path d="M137.873,842.2866 L146.6931,851.0931" stroke="#F49F4A" stroke-width="0.96" fill="none" />
  <path d="M1705.833,278.499 L1712.467,278.0715" stroke="#F49F4A" stroke-width="0.96" fill="none" />
  <path d="M137.873,842.2866 L146.6931,833.4801" stroke="#F49F4A" stroke-width="0.96" fill="none" />
  <path d="M1160.273,620.1793 L1163.321,614.2718" stroke="#F49F4A" stroke-width="0.96" fill="none" />
  <path d="M1155.703,685.5723 L1158.751,679.6647" stroke="#F49F4A" stroke-width="0.96" fill="none" />
  <path d="M1160.273,620.1793 L1166.185,623.218" stroke="#F49F4A" stroke-width="0.96" fill="none" />
  <path d="M1155.49,557.1082 L1161.402,560.1468" stroke="#F49F4A" stroke-width="0.96" fill="none" />
  <path d="M1155.49,557.1082 L1158.538,551.2006" stroke="#F49F4A" stroke-width="0.96" fill="none" />
  <path d="M1137.255,493.7172 L1140.302,487.8097" stroke="#F49F4A" stroke-width="0.96" fill="none" />
  <path d="M1766.361,502.065 L1772.438,499.3698" stroke="#F49F4A" stroke-width="0.96" fill="none" />
  <path d="M1137.255,493.7172 L1143.167,496.7559" stroke="#F49F4A" stroke-width="0.96" fill="none" />
  <path d="M1137.255,493.7172 L1140.302,487.8097" stroke="#F49F4A" stroke-width="0.96" fill="none" />
  <path d="M1484.686,608.9202 L1484.754,602.2732" stroke="#F49F4A" stroke-width="0.96" fill="none" />
  <path d="M1484.686,608.9202 L1478.039,608.842" stroke="#F49F4A" stroke-width="0.96" fill="none" />
  <path d="M1813.451,399.5623 L1807.539,396.5237" stroke="#F49F4A" stroke-width="0.96" fill="none" />
  <path d="M1155.49,557.1082 L1158.538,551.2006" stroke="#F49F4A" stroke-width="0.96" fill="none" />
  <path d="M1207.021,715.0916 L1200.483,713.894" stroke="#F49F4A" stroke-width="0.96" fill="none" />
  <path d="M1687.463,530.1607 L1687.531,523.5136" stroke="#F49F4A" stroke-width="0.96" fill="none" />
  <path d="M1766.361,502.065 L1763.676,495.9843" stroke="#F49F4A" stroke-width="0.96" fill="none" />
  <path d="M1827.544,385.2654 L1820.898,385.1541" stroke="#F49F4A" stroke-width="0.96" fill="none" />
  <path d="M1687.463,530.1607 L1680.816,530.0825" stroke="#F49F4A" stroke-width="0.96" fill="none" />
  <path d="M1802.138,465.7894 L1796.44,462.3652" stroke="#F49F4A" stroke-width="0.96" fill="none" />
  <path d="M1160.273,620.1793 L1163.321,614.2718" stroke="#F49F4A" stroke-width="0.96" fill="none" />
  <path d="M239.123,842.2866 L230.3029,833.4801" stroke="#F49F4A" stroke-width="0.96" fill="none" />
  <path d="M1802.138,465.7894 L1798.705,471.4818" stroke="#F49F4A" stroke-width="0.96" fill="none" />
  <path d="M1827.544,385.2654 L1827.645,378.6187" stroke="#F49F4A" stroke-width="0.96" fill="none" />
  <path d="M1155.703,685.5723 L1161.616,688.6109" stroke="#F49F4A" stroke-width="0.96" fill="none" />
  <path d="M1155.703,685.5723 L1158.751,679.6647" stroke="#F49F4A" stroke-width="0.96" fill="none" />
  <path d="M1207.021,715.0916 L1208.209,708.5511" stroke="#F49F4A" stroke-width="0.96" fill="none" />
  <polygon fill="#FFFFFF" fill-opacity="1" points="251.4154,779.1528 479.503,779.1528 479.503,744.7607 251.4154,744.7607" xmlns="" />
  <path d="M1494.127,336.9659 L1500.76,336.5384" stroke="#F49F4A" stroke-width="0.96" fill="none" />
  <text x="259.852868397739" y="770.348397202572" font-family="Arial Narrow" fill="#000000" font-size="23.4782638549805">Retail / Coffee / Services</text>
  <polygon fill="#FFFFFF" fill-opacity="1" points="251.4154,859.9009 455.7496,859.9009 455.7496,825.7841 251.4154,825.7841" xmlns="" />
  <text x="259.852868397739" y="851.09653183556" font-family="Arial Narrow" fill="#000000" font-size="23.4782638549805">Pedestrian Movement</text>
  <polygon fill="#FFFFFF" fill-opacity="1" points="120.8532,694.7566 464.3145,694.7566 464.3145,520.779 120.8532,520.779" xmlns="" />
  <text x="129.29073015572" y="546.366654120742" font-family="Arial Narrow" font-weight="bold" fill="#000000" font-size="23.4782638549805">2. SCATTERED CONSUMPTION</text>
  <text x="129.29073015572" y="573.366656820742" font-family="Arial Narrow" fill="#000000" font-size="23.4782638549805">c. 2000s-PRESENT</text>
  <text x="129.29073015572" y="627.366662220743" font-family="Arial Narrow" fill="#000000" font-size="23.4782638549805">Rail removed, industry fragmented.</text>
  <text x="129.29073015572" y="654.366664920743" font-family="Arial Narrow" fill="#000000" font-size="23.4782638549805">Consumption becomes dispersed and</text>
  <text x="129.29073015572" y="681.366667620743" font-family="Arial Narrow" fill="#000000" font-size="23.4782638549805">people move across the neighborhood</text>
</svg>