<?xml version="1.0" encoding="utf-8" standalone="no"?>
<!DOCTYPE svg PUBLIC "-//W3C//DTD SVG 1.1//EN" "http://www.w3.org/Graphics/SVG/1.1/DTD/svg11.dtd">
<svg version="1.1" width="2592pt" height="1512pt" viewBox="0 0 2592 1512" overflow="visible" xmlns="http://www.w3.org/2000/svg">
  <path d="M1818.443,854.9803 C1817.831,859.5684 1811.544,863.4381 1807.172,861.9175 C1802.583,861.3052 1798.714,855.0176 1800.234,850.6456 C1800.847,846.0575 1807.134,842.1877 1811.506,843.7084 C1816.094,844.3207 1819.964,850.6083 1818.443,854.9803 z" stroke="Black" stroke-width="0" fill="#8F64A5" fill-opacity="0.588235294117647" />
  <path d="M1677.3,903.2618 C1676.687,907.85 1670.4,911.7197 1666.028,910.199 C1661.439,909.5868 1657.57,903.2991 1659.09,898.9272 C1659.703,894.3391 1665.99,890.4694 1670.362,891.99 C1674.95,892.6023 1678.82,898.8899 1677.3,903.2618 z" stroke="Black" stroke-width="0" fill="#8F64A5" fill-opacity="0.588235294117647" />
  <path d="M179.9841,1199.151 C183.5267,1199.057 187.7885,1200.664 190.7233,1203.599 C193.6581,1206.534 195.2658,1210.796 195.1716,1214.338 C195.2658,1217.881 193.6581,1222.143 190.7233,1225.078 C187.7885,1228.012 183.5267,1229.62 179.9841,1229.526 C176.4415,1229.62 172.1797,1228.012 169.2449,1225.078 C166.3102,1222.143 164.7024,1217.881 164.7966,1214.338 C164.7024,1210.796 166.3102,1206.534 169.2449,1203.599 C172.1797,1200.664 176.4415,1199.057 179.9841,1199.151 z" stroke="Black" stroke-width="0" fill="#8F64A5" fill-opacity="0.588235294117647" />
  <path d="M1911.055,818.0186 L1898.544,812.5472" stroke="#8F64A5" stroke-width="2.88" fill="none" />
  <path d="M909.1223,1160.602 L914.1346,1147.901" stroke="#8F64A5" stroke-width="2.88" fill="none" />
  <path d="M909.1223,1160.602 L921.6331,1166.073" stroke="#8F64A5" stroke-width="2.88" fill="none" />
  <path d="M1911.055,818.0186 L1906.043,830.7202" stroke="#8F64A5" stroke-width="2.88" fill="none" />
  <path d="M1074.549,1104.165 L1069.637,1105.84" stroke="#8F64A5" stroke-width="2.88" fill="none" />
  <path d="M1064.272,1107.671 L1058.906,1109.502" stroke="#8F64A5" stroke-width="2.88" fill="none" />
  <path d="M1053.541,1111.332 L1048.175,1113.163" stroke="#8F64A5" stroke-width="2.88" fill="none" />
  <path d="M1042.809,1114.993 L1037.444,1116.824" stroke="#8F64A5" stroke-width="2.88" fill="none" />
  <path d="M1032.078,1118.654 L1026.712,1120.485" stroke="#8F64A5" stroke-width="2.88" fill="none" />
  <path d="M1021.347,1122.315 L1015.981,1124.146" stroke="#8F64A5" stroke-width="2.88" fill="none" />
  <path d="M1010.615,1125.977 L1005.25,1127.807" stroke="#8F64A5" stroke-width="2.88" fill="none" />
  <path d="M999.8842,1129.638 L994.5186,1131.468" stroke="#8F64A5" stroke-width="2.88" fill="none" />
  <path d="M989.153,1133.299 L983.7874,1135.129" stroke="#8F64A5" stroke-width="2.88" fill="none" />
  <path d="M978.4218,1136.96 L973.0561,1138.79" stroke="#8F64A5" stroke-width="2.88" fill="none" />
  <path d="M967.6905,1140.621 L962.3248,1142.451" stroke="#8F64A5" stroke-width="2.88" fill="none" />
  <path d="M956.9592,1144.282 L951.5936,1146.113" stroke="#8F64A5" stroke-width="2.88" fill="none" />
  <path d="M946.228,1147.943 L940.8624,1149.774" stroke="#8F64A5" stroke-width="2.88" fill="none" />
  <path d="M935.4967,1151.604 L930.1311,1153.435" stroke="#8F64A5" stroke-width="2.88" fill="none" />
  <path d="M924.7654,1155.265 L919.3998,1157.096" stroke="#8F64A5" stroke-width="2.88" fill="none" />
  <path d="M914.0342,1158.926 L909.1223,1160.602" stroke="#8F64A5" stroke-width="2.88" fill="none" />
  <path d="M1911.055,818.0186 L1905.927,819.7726" stroke="#8F64A5" stroke-width="2.88" fill="none" />
  <path d="M1900.563,821.6075 L1895.199,823.4425" stroke="#8F64A5" stroke-width="2.88" fill="none" />
  <path d="M1889.835,825.2774 L1884.471,827.1124" stroke="#8F64A5" stroke-width="2.88" fill="none" />
  <path d="M1879.107,828.9473 L1873.743,830.7822" stroke="#8F64A5" stroke-width="2.88" fill="none" />
  <path d="M1868.379,832.6171 L1863.014,834.452" stroke="#8F64A5" stroke-width="2.88" fill="none" />
  <path d="M1857.65,836.287 L1852.286,838.1219" stroke="#8F64A5" stroke-width="2.88" fill="none" />
  <path d="M1846.922,839.9568 L1841.558,841.7917" stroke="#8F64A5" stroke-width="2.88" fill="none" />
  <path d="M1836.194,843.6266 L1830.83,845.4616" stroke="#8F64A5" stroke-width="2.88" fill="none" />
  <path d="M1825.465,847.2965 L1820.101,849.1315" stroke="#8F64A5" stroke-width="2.88" fill="none" />
  <path d="M1814.737,850.9664 L1809.373,852.8013" stroke="#8F64A5" stroke-width="2.88" fill="none" />
  <path d="M1804.009,854.6362 L1798.645,856.4711" stroke="#8F64A5" stroke-width="2.88" fill="none" />
  <path d="M1793.281,858.3061 L1787.917,860.141" stroke="#8F64A5" stroke-width="2.88" fill="none" />
  <path d="M1782.552,861.9759 L1777.188,863.8109" stroke="#8F64A5" stroke-width="2.88" fill="none" />
  <path d="M1771.824,865.6458 L1766.46,867.4807" stroke="#8F64A5" stroke-width="2.88" fill="none" />
  <path d="M1761.096,869.3156 L1755.732,871.1506" stroke="#8F64A5" stroke-width="2.88" fill="none" />
  <path d="M1750.368,872.9855 L1745.004,874.8204" stroke="#8F64A5" stroke-width="2.88" fill="none" />
  <path d="M1739.639,876.6553 L1734.275,878.4902" stroke="#8F64A5" stroke-width="2.88" fill="none" />
  <path d="M1728.911,880.3252 L1723.547,882.1601" stroke="#8F64A5" stroke-width="2.88" fill="none" />
  <path d="M1718.183,883.995 L1712.819,885.83" stroke="#8F64A5" stroke-width="2.88" fill="none" />
  <path d="M1707.455,887.6649 L1702.09,889.4998" stroke="#8F64A5" stroke-width="2.88" fill="none" />
  <path d="M1696.726,891.3347 L1691.362,893.1697" stroke="#8F64A5" stroke-width="2.88" fill="none" />
  <path d="M1685.998,895.0046 L1680.634,896.8395" stroke="#8F64A5" stroke-width="2.88" fill="none" />
  <path d="M1675.27,898.6744 L1669.906,900.5093" stroke="#8F64A5" stroke-width="2.88" fill="none" />
  <path d="M1664.542,902.3443 L1659.177,904.1792" stroke="#8F64A5" stroke-width="2.88" fill="none" />
  <path d="M1653.813,906.0141 L1648.449,907.8491" stroke="#8F64A5" stroke-width="2.88" fill="none" />
  <path d="M1643.085,909.684 L1637.721,911.5189" stroke="#8F64A5" stroke-width="2.88" fill="none" />
  <path d="M1632.357,913.3538 L1626.993,915.1887" stroke="#8F64A5" stroke-width="2.88" fill="none" />
  <path d="M1621.628,917.0237 L1616.264,918.8586" stroke="#8F64A5" stroke-width="2.88" fill="none" />
  <path d="M1610.9,920.6935 L1605.536,922.5284" stroke="#8F64A5" stroke-width="2.88" fill="none" />
  <path d="M1600.172,924.3634 L1594.808,926.1983" stroke="#8F64A5" stroke-width="2.88" fill="none" />
  <path d="M1589.444,928.0332 L1584.079,929.8682" stroke="#8F64A5" stroke-width="2.88" fill="none" />
  <path d="M1578.715,931.7031 L1573.351,933.538" stroke="#8F64A5" stroke-width="2.88" fill="none" />
  <path d="M1567.987,935.3729 L1562.623,937.2078" stroke="#8F64A5" stroke-width="2.88" fill="none" />
  <path d="M1557.259,939.0428 L1551.895,940.8777" stroke="#8F64A5" stroke-width="2.88" fill="none" />
  <path d="M1546.531,942.7126 L1541.167,944.5475" stroke="#8F64A5" stroke-width="2.88" fill="none" />
  <path d="M1535.802,946.3825 L1530.438,948.2174" stroke="#8F64A5" stroke-width="2.88" fill="none" />
  <path d="M1525.074,950.0523 L1519.71,951.8873" stroke="#8F64A5" stroke-width="2.88" fill="none" />
  <path d="M1514.346,953.7222 L1508.982,955.5571" stroke="#8F64A5" stroke-width="2.88" fill="none" />
  <path d="M1503.618,957.392 L1498.253,959.2269" stroke="#8F64A5" stroke-width="2.88" fill="none" />
  <path d="M1492.889,961.0619 L1487.525,962.8968" stroke="#8F64A5" stroke-width="2.88" fill="none" />
  <path d="M1482.161,964.7318 L1476.797,966.5667" stroke="#8F64A5" stroke-width="2.88" fill="none" />
  <path d="M1471.433,968.4016 L1466.069,970.2365" stroke="#8F64A5" stroke-width="2.88" fill="none" />
  <path d="M1460.704,972.0714 L1455.34,973.9064" stroke="#8F64A5" stroke-width="2.88" fill="none" />
  <path d="M1449.976,975.7413 L1444.612,977.5762" stroke="#8F64A5" stroke-width="2.88" fill="none" />
  <path d="M1439.248,979.4111 L1433.884,981.246" stroke="#8F64A5" stroke-width="2.88" fill="none" />
  <path d="M1428.52,983.081 L1423.156,984.9159" stroke="#8F64A5" stroke-width="2.88" fill="none" />
  <path d="M1417.791,986.7509 L1412.427,988.5858" stroke="#8F64A5" stroke-width="2.88" fill="none" />
  <path d="M1407.063,990.4207 L1401.699,992.2556" stroke="#8F64A5" stroke-width="2.88" fill="none" />
  <path d="M1396.335,994.0905 L1390.971,995.9255" stroke="#8F64A5" stroke-width="2.88" fill="none" />
  <path d="M1385.607,997.7604 L1380.243,999.5953" stroke="#8F64A5" stroke-width="2.88" fill="none" />
  <path d="M1374.878,1001.43 L1369.514,1003.265" stroke="#8F64A5" stroke-width="2.88" fill="none" />
  <path d="M1364.15,1005.1 L1358.786,1006.935" stroke="#8F64A5" stroke-width="2.88" fill="none" />
  <path d="M1353.422,1008.77 L1348.058,1010.605" stroke="#8F64A5" stroke-width="2.88" fill="none" />
  <path d="M1342.694,1012.44 L1337.329,1014.275" stroke="#8F64A5" stroke-width="2.88" fill="none" />
  <path d="M1331.965,1016.11 L1326.601,1017.945" stroke="#8F64A5" stroke-width="2.88" fill="none" />
  <path d="M1321.237,1019.779 L1315.873,1021.614" stroke="#8F64A5" stroke-width="2.88" fill="none" />
  <path d="M1310.509,1023.449 L1305.145,1025.284" stroke="#8F64A5" stroke-width="2.88" fill="none" />
  <path d="M1299.781,1027.119 L1294.416,1028.954" stroke="#8F64A5" stroke-width="2.88" fill="none" />
  <path d="M1289.052,1030.789 L1283.924,1032.543" stroke="#8F64A5" stroke-width="2.88" fill="none" />
  <path d="M1712.632,859.7034 L1711.552,863.3513" stroke="#8F64A5" stroke-width="1.92" fill="none" />
  <path d="M1712.632,859.7034 L1716.412,859.4929" stroke="#8F64A5" stroke-width="1.92" fill="none" />
  <path d="M1778.146,923.5441 L1774.366,923.7546" stroke="#8F64A5" stroke-width="1.92" fill="none" />
  <path d="M1789.155,833.145 L1788.076,836.7929" stroke="#8F64A5" stroke-width="1.92" fill="none" />
  <path d="M1648.588,881.9884 L1647.509,885.6364" stroke="#8F64A5" stroke-width="1.92" fill="none" />
  <path d="M1648.588,881.9884 L1681.871,914.4209" stroke="#8F64A5" stroke-width="1.92" fill="none" />
  <path d="M230.3321,1293.889 L221.512,1302.696" stroke="#8F64A5" stroke-width="1.92" fill="none" />
  <path d="M129.0821,1293.889 L230.3321,1293.889" stroke="#8F64A5" stroke-width="1.92" fill="none" />
  <path d="M129.0821,1293.889 L137.9022,1302.696" stroke="#8F64A5" stroke-width="1.92" fill="none" />
  <path d="M1822.525,869.5566 L1826.305,869.3461 L1827.385,865.6981" stroke="#8F64A5" stroke-width="1.92" fill="none" />
  <path d="M1789.155,833.145 L1826.305,869.3461" stroke="#8F64A5" stroke-width="1.92" fill="none" />
  <path d="M1648.588,881.9884 L1652.368,881.7779" stroke="#8F64A5" stroke-width="1.92" fill="none" />
  <path d="M230.3321,1293.889 L221.512,1285.083" stroke="#8F64A5" stroke-width="1.92" fill="none" />
  <path d="M1789.155,833.145 L1792.936,832.9344" stroke="#8F64A5" stroke-width="1.92" fill="none" />
  <path d="M1778.146,923.5441 L1779.225,919.8962" stroke="#8F64A5" stroke-width="1.92" fill="none" />
  <path d="M129.0821,1293.889 L137.9022,1285.083" stroke="#8F64A5" stroke-width="1.92" fill="none" />
  <path d="M1712.632,859.7034 L1778.146,923.5441" stroke="#8F64A5" stroke-width="1.92" fill="none" />
  <path d="M1841.006,821.2859 L1847.76,827.8083 L1856.831,836.5671 L1856.831,847.0751 L1856.689,847.4546 L1850.588,846.6923 L1849.272,850.2032 L1847.67,854.5699 L1842.941,856.1873 L1840.332,853.6677 L1837.957,853.261 L1833.802,854.6955 L1833.802,859.3137 L1673.919,914.0054 L1670.651,910.8513 L1651.03,917.6287 L1651.03,921.8352 L1645.385,923.7662 L1639.09,917.6921 L1614.786,926.0871 L1614.786,934.2332 L1604.941,937.6009 L1589.115,922.3197 L1589.115,916.7614 L1589.115,907.4509 z" stroke="Black" stroke-width="0" fill="#C187DF" fill-opacity="0.294117647058824" />
  <path d="M1604.941,922.732 L1856.831,836.5671" stroke="#C187DF" stroke-width="0.96" fill="none" />
  <path d="M1833.802,859.3137 L1673.919,914.0054" stroke="#C187DF" stroke-width="0.96" fill="none" />
  <path d="M1856.831,847.0752 L1856.831,836.5671 L1841.006,821.2859 L1589.115,907.4509 L1589.115,922.3198 L1604.941,937.6009 L1614.786,934.2332 L1614.786,926.0871 L1639.09,917.6921 L1645.385,923.7662 L1651.03,921.8352 L1651.03,917.6287 L1670.651,910.8513 L1673.919,914.0054" stroke="#C187DF" stroke-width="0.96" fill="none" />
  <text x="120.499800127956" y="997.969058011474" font-family="Arial Narrow" font-weight="bold" fill="#000000" font-size="23.4782638549805">3. INTERWOVEN PRODUCTION + LIVING</text>
  <text x="120.499800127956" y="1024.96906071147" font-family="Arial Narrow" fill="#000000" font-size="23.4782638549805">FUTURE</text>
  <text x="120.499800127956" y="1078.96906611147" font-family="Arial Narrow" fill="#000000" font-size="23.4782638549805">Production, consumption, and residence </text>
  <text x="120.499800127956" y="1105.96906881147" font-family="Arial Narrow" fill="#000000" font-size="23.4782638549805">co-located within a continuous spatial framework. </text>
  <text x="120.499800127956" y="1132.96907151148" font-family="Arial Narrow" fill="#000000" font-size="23.4782638549805">Movement no longer disperses activity, but thickens it.</text>
  <polygon fill="#FFFFFF" fill-opacity="1" points="242.6244,1235.066 408.6231,1235.066 408.6231,1196.363 242.6244,1196.363" xmlns="" />
  <text x="251.061938369975" y="1221.9508010933" font-family="Arial Narrow" fill="#000000" font-size="23.4782638549805">Nodes of Overlap</text>
  <polygon fill="#FFFFFF" fill-opacity="1" points="242.6244,1316.089 473.6469,1316.089 473.6469,1277.111 242.6244,1277.111" xmlns="" />
  <text x="251.061938369975" y="1302.69893572629" font-family="Arial Narrow" fill="#000000" font-size="23.4782638549805">Continuity + Connections</text>
  <path d="M796.0681,1166.944 L799.0291,1166.163" stroke="#000000" stroke-width="0.24" fill="none" />
  <path d="M801.7699,1165.44 L804.5107,1164.717" stroke="#000000" stroke-width="0.24" fill="none" />
  <path d="M807.2516,1163.993 L809.9924,1163.27" stroke="#000000" stroke-width="0.24" fill="none" />
  <path d="M812.7333,1162.547 L815.4741,1161.824" stroke="#000000" stroke-width="0.24" fill="none" />
  <path d="M818.215,1161.101 L820.9558,1160.378" stroke="#000000" stroke-width="0.24" fill="none" />
  <path d="M823.6967,1159.654 L826.4376,1158.931" stroke="#000000" stroke-width="0.24" fill="none" />
  <path d="M829.1784,1158.208 L831.9193,1157.485" stroke="#000000" stroke-width="0.24" fill="none" />
  <path d="M834.6601,1156.762 L837.4009,1156.039" stroke="#000000" stroke-width="0.24" fill="none" />
  <path d="M840.1418,1155.316 L842.8826,1154.592" stroke="#000000" stroke-width="0.24" fill="none" />
  <path d="M845.6235,1153.869 L848.3643,1153.146" stroke="#000000" stroke-width="0.24" fill="none" />
  <path d="M851.1052,1152.423 L853.8461,1151.7" stroke="#000000" stroke-width="0.24" fill="none" />
  <path d="M856.5869,1150.977 L859.3278,1150.253" stroke="#000000" stroke-width="0.24" fill="none" />
  <path d="M862.0686,1149.53 L864.8094,1148.807" stroke="#000000" stroke-width="0.24" fill="none" />
  <path d="M867.5503,1148.084 L870.2911,1147.361" stroke="#000000" stroke-width="0.24" fill="none" />
  <path d="M873.032,1146.638 L875.7728,1145.914" stroke="#000000" stroke-width="0.24" fill="none" />
  <path d="M878.5137,1145.191 L881.2545,1144.468" stroke="#000000" stroke-width="0.24" fill="none" />
  <path d="M883.9954,1143.745 L886.7363,1143.022" stroke="#000000" stroke-width="0.24" fill="none" />
  <path d="M889.4771,1142.299 L892.218,1141.576" stroke="#000000" stroke-width="0.24" fill="none" />
  <path d="M894.9588,1140.852 L897.6996,1140.129" stroke="#000000" stroke-width="0.24" fill="none" />
  <path d="M900.4405,1139.406 L903.1813,1138.683" stroke="#000000" stroke-width="0.24" fill="none" />
  <path d="M905.9222,1137.96 L908.663,1137.237" stroke="#000000" stroke-width="0.24" fill="none" />
  <path d="M911.4039,1136.513 L914.1448,1135.79" stroke="#000000" stroke-width="0.24" fill="none" />
  <path d="M916.8856,1135.067 L919.6265,1134.344" stroke="#000000" stroke-width="0.24" fill="none" />
  <path d="M922.3673,1133.621 L925.1082,1132.898" stroke="#000000" stroke-width="0.24" fill="none" />
  <path d="M927.849,1132.174 L930.5898,1131.451" stroke="#000000" stroke-width="0.24" fill="none" />
  <path d="M933.3307,1130.728 L936.2916,1129.947" stroke="#000000" stroke-width="0.24" fill="none" />
  <path d="M832.1887,785.0245 L829.0137,784.3301" stroke="#000000" stroke-width="0.24" fill="none" />
  <path d="M826.2446,783.7245 L823.4753,783.119" stroke="#000000" stroke-width="0.24" fill="none" />
  <path d="M820.7062,782.5134 L817.937,781.9078" stroke="#000000" stroke-width="0.24" fill="none" />
  <path d="M815.1677,781.3022 L812.3986,780.6965" stroke="#000000" stroke-width="0.24" fill="none" />
  <path d="M809.6293,780.0909 L806.8602,779.4854" stroke="#000000" stroke-width="0.24" fill="none" />
  <path d="M804.0909,778.8798 L801.3218,778.2742" stroke="#000000" stroke-width="0.24" fill="none" />
  <path d="M798.5526,777.6686 L795.7833,777.063" stroke="#000000" stroke-width="0.24" fill="none" />
  <path d="M793.0142,776.4573 L790.2449,775.8517" stroke="#000000" stroke-width="0.24" fill="none" />
  <path d="M787.4758,775.2462 L784.7065,774.6406" stroke="#000000" stroke-width="0.24" fill="none" />
  <path d="M781.9374,774.035 L779.1682,773.4294" stroke="#000000" stroke-width="0.24" fill="none" />
  <path d="M776.399,772.8237 L773.6298,772.2181" stroke="#000000" stroke-width="0.24" fill="none" />
  <path d="M770.8605,771.6125 L768.0914,771.007" stroke="#000000" stroke-width="0.24" fill="none" />
  <path d="M765.3221,770.4014 L762.553,769.7958" stroke="#000000" stroke-width="0.24" fill="none" />
  <path d="M759.7838,769.1901 L757.0146,768.5845" stroke="#000000" stroke-width="0.24" fill="none" />
  <path d="M754.2454,767.9789 L751.4762,767.3734" stroke="#000000" stroke-width="0.24" fill="none" />
  <path d="M748.707,766.7678 L745.9377,766.1622" stroke="#000000" stroke-width="0.24" fill="none" />
  <path d="M743.1686,765.5565 L740.3994,764.9509" stroke="#000000" stroke-width="0.24" fill="none" />
  <path d="M737.6302,764.3453 L734.861,763.7397" stroke="#000000" stroke-width="0.24" fill="none" />
  <path d="M732.0918,763.1342 L729.3226,762.5286" stroke="#000000" stroke-width="0.24" fill="none" />
  <path d="M726.5534,761.923 L723.7842,761.3173" stroke="#000000" stroke-width="0.24" fill="none" />
  <path d="M721.015,760.7117 L718.2458,760.1061" stroke="#000000" stroke-width="0.24" fill="none" />
  <path d="M715.4766,759.5005 L712.7074,758.895" stroke="#000000" stroke-width="0.24" fill="none" />
  <path d="M709.9382,758.2894 L707.169,757.6837" stroke="#000000" stroke-width="0.24" fill="none" />
  <path d="M704.3998,757.0781 L701.2249,756.3838" stroke="#000000" stroke-width="0.24" fill="none" />
  <path d="M831.6957,711.7875 L832.8284,714.2414" stroke="#000000" stroke-width="0.24" fill="none" />
  <path d="M834.0164,716.8151 L835.2043,719.3887" stroke="#000000" stroke-width="0.24" fill="none" />
  <path d="M836.3923,721.9625 L837.5803,724.5361" stroke="#000000" stroke-width="0.24" fill="none" />
  <path d="M838.7684,727.1098 L839.9564,729.6835" stroke="#000000" stroke-width="0.24" fill="none" />
  <path d="M841.1443,732.2572 L842.3323,734.8309" stroke="#000000" stroke-width="0.24" fill="none" />
  <path d="M843.5203,737.4046 L844.7083,739.9783" stroke="#000000" stroke-width="0.24" fill="none" />
  <path d="M845.8963,742.5519 L847.0843,745.1257" stroke="#000000" stroke-width="0.24" fill="none" />
  <path d="M848.2723,747.6993 L849.4603,750.2731" stroke="#000000" stroke-width="0.24" fill="none" />
  <path d="M850.6483,752.8467 L851.8363,755.4204" stroke="#000000" stroke-width="0.24" fill="none" />
  <path d="M853.0243,757.9941 L854.2123,760.5678" stroke="#000000" stroke-width="0.24" fill="none" />
  <path d="M855.4003,763.1415 L856.5883,765.7152" stroke="#000000" stroke-width="0.24" fill="none" />
  <path d="M857.7762,768.2889 L858.9642,770.8625" stroke="#000000" stroke-width="0.24" fill="none" />
  <path d="M860.1522,773.4363 L861.3402,776.0099" stroke="#000000" stroke-width="0.24" fill="none" />
  <path d="M862.5282,778.5837 L863.7162,781.1573" stroke="#000000" stroke-width="0.24" fill="none" />
  <path d="M864.9042,783.731 L866.0922,786.3047" stroke="#000000" stroke-width="0.24" fill="none" />
  <path d="M867.2802,788.8784 L868.4129,791.3323" stroke="#000000" stroke-width="0.24" fill="none" />
  <path d="M1754.89,1141.939 L1754.395,1140.606" stroke="#000000" stroke-width="0.24" fill="none" />
  <path d="M1753.409,1137.948 L1752.422,1135.291" stroke="#000000" stroke-width="0.24" fill="none" />
  <path d="M1751.436,1132.633 L1750.45,1129.976" stroke="#000000" stroke-width="0.24" fill="none" />
  <path d="M1749.463,1127.318 L1748.477,1124.661" stroke="#000000" stroke-width="0.24" fill="none" />
  <path d="M1747.491,1122.003 L1746.504,1119.346" stroke="#000000" stroke-width="0.24" fill="none" />
  <path d="M1745.518,1116.688 L1745.023,1115.355" stroke="#000000" stroke-width="0.24" fill="none" />
  <path d="M1883.232,1098.066 L1879.434,1098.323" stroke="#000000" stroke-width="0.24" fill="none" />
  <path d="M1876.606,1098.514 L1873.778,1098.705" stroke="#000000" stroke-width="0.24" fill="none" />
  <path d="M1870.95,1098.896 L1868.121,1099.088" stroke="#000000" stroke-width="0.24" fill="none" />
  <path d="M1865.293,1099.279 L1862.465,1099.47" stroke="#000000" stroke-width="0.24" fill="none" />
  <path d="M1859.637,1099.662 L1856.809,1099.853" stroke="#000000" stroke-width="0.24" fill="none" />
  <path d="M1853.98,1100.045 L1851.152,1100.236" stroke="#000000" stroke-width="0.24" fill="none" />
  <path d="M1848.324,1100.427 L1845.496,1100.619" stroke="#000000" stroke-width="0.24" fill="none" />
  <path d="M1842.668,1100.81 L1839.84,1101.001" stroke="#000000" stroke-width="0.24" fill="none" />
  <path d="M1837.011,1101.193 L1834.183,1101.384" stroke="#000000" stroke-width="0.24" fill="none" />
  <path d="M1831.355,1101.575 L1828.527,1101.766" stroke="#000000" stroke-width="0.24" fill="none" />
  <path d="M1825.699,1101.958 L1822.87,1102.149" stroke="#000000" stroke-width="0.24" fill="none" />
  <path d="M1820.042,1102.34 L1817.214,1102.532" stroke="#000000" stroke-width="0.24" fill="none" />
  <path d="M1814.386,1102.723 L1811.558,1102.915" stroke="#000000" stroke-width="0.24" fill="none" />
  <path d="M1808.73,1103.106 L1805.901,1103.297" stroke="#000000" stroke-width="0.24" fill="none" />
  <path d="M1803.073,1103.489 L1799.275,1103.745" stroke="#000000" stroke-width="0.24" fill="none" />
  <path d="M859.7731,1319.69 L862.5612,1316.852" stroke="#000000" stroke-width="0.24" fill="none" />
  <path d="M864.5474,1314.829 L866.5338,1312.807" stroke="#000000" stroke-width="0.24" fill="none" />
  <path d="M868.5201,1310.785 L870.5063,1308.762" stroke="#000000" stroke-width="0.24" fill="none" />
  <path d="M872.4927,1306.74 L874.4789,1304.718" stroke="#000000" stroke-width="0.24" fill="none" />
  <path d="M876.4653,1302.695 L878.4516,1300.673" stroke="#000000" stroke-width="0.24" fill="none" />
  <path d="M880.4379,1298.651 L882.4242,1296.628" stroke="#000000" stroke-width="0.24" fill="none" />
  <path d="M884.4105,1294.606 L886.3968,1292.584" stroke="#000000" stroke-width="0.24" fill="none" />
  <path d="M888.3831,1290.561 L890.3694,1288.539" stroke="#000000" stroke-width="0.24" fill="none" />
  <path d="M892.3557,1286.517 L894.342,1284.495" stroke="#000000" stroke-width="0.24" fill="none" />
  <path d="M896.3283,1282.472 L898.3146,1280.45" stroke="#000000" stroke-width="0.24" fill="none" />
  <path d="M900.3009,1278.427 L902.2872,1276.405" stroke="#000000" stroke-width="0.24" fill="none" />
  <path d="M904.2736,1274.383 L906.2598,1272.36" stroke="#000000" stroke-width="0.24" fill="none" />
  <path d="M908.2462,1270.338 L910.2324,1268.316" stroke="#000000" stroke-width="0.24" fill="none" />
  <path d="M912.2188,1266.293 L914.2051,1264.271" stroke="#000000" stroke-width="0.24" fill="none" />
  <path d="M916.1913,1262.249 L918.1777,1260.227" stroke="#000000" stroke-width="0.24" fill="none" />
  <path d="M920.1639,1258.204 L922.1503,1256.182" stroke="#000000" stroke-width="0.24" fill="none" />
  <path d="M924.1366,1254.16 L926.1229,1252.137" stroke="#000000" stroke-width="0.24" fill="none" />
  <path d="M928.1092,1250.115 L930.0955,1248.093" stroke="#000000" stroke-width="0.24" fill="none" />
  <path d="M932.0818,1246.07 L934.0681,1244.048" stroke="#000000" stroke-width="0.24" fill="none" />
  <path d="M936.0544,1242.026 L938.0407,1240.003" stroke="#000000" stroke-width="0.24" fill="none" />
  <path d="M940.027,1237.981 L942.0133,1235.959" stroke="#000000" stroke-width="0.24" fill="none" />
  <path d="M943.9996,1233.936 L945.9859,1231.914" stroke="#000000" stroke-width="0.24" fill="none" />
  <path d="M947.9722,1229.892 L949.9586,1227.869" stroke="#000000" stroke-width="0.24" fill="none" />
  <path d="M951.9448,1225.847 L953.9312,1223.825" stroke="#000000" stroke-width="0.24" fill="none" />
  <path d="M955.9174,1221.802 L957.9037,1219.78" stroke="#000000" stroke-width="0.24" fill="none" />
  <path d="M959.8901,1217.758 L961.8763,1215.735" stroke="#000000" stroke-width="0.24" fill="none" />
  <path d="M963.8627,1213.713 L965.8489,1211.691" stroke="#000000" stroke-width="0.24" fill="none" />
  <path d="M967.8353,1209.668 L969.8216,1207.646" stroke="#000000" stroke-width="0.24" fill="none" />
  <path d="M971.8079,1205.624 L973.7942,1203.601" stroke="#000000" stroke-width="0.24" fill="none" />
  <path d="M975.7805,1201.579 L977.7668,1199.557" stroke="#000000" stroke-width="0.24" fill="none" />
  <path d="M979.7531,1197.534 L982.5412,1194.696" stroke="#000000" stroke-width="0.24" fill="none" />
</svg>