<svg xmlns="http://www.w3.org/2000/svg" viewBox="87.86 103.84 2848.99 502.5" role="img" aria-label="Hunter&#39;s Point Cooperative Housing plan" color="#f2f2ee">
<title>Hunter&#39;s Point Cooperative Housing plan</title>
<g><path d="M2285.5 386.19L2450.25 386.19L2450.25 468.86" fill="none" stroke="currentColor" stroke-width="5.76" stroke-linecap="square" stroke-linejoin="miter" opacity="0.92"/>
<path d="M983.5 386.19L1148.25 386.19L1148.25 468.86" fill="none" stroke="currentColor" stroke-width="5.76" stroke-linecap="square" stroke-linejoin="miter" opacity="0.92"/>
<path d="M2203.12 425.21L2227.68 425.21L2227.68 404.68L2283.5 386.19" fill="none" stroke="currentColor" stroke-width="5.76" stroke-linecap="square" stroke-linejoin="miter" opacity="0.92"/>
<path d="M1066.89 390.07L1144.27 390.07L1144.27 466.87" fill="none" stroke="currentColor" stroke-width="5.76" stroke-linecap="square" stroke-linejoin="miter" opacity="0.92"/>
<path d="M2206.12 428.96L2231.43 428.96L2231.43 407.38L2284.67 389.75" fill="none" stroke="currentColor" stroke-width="5.76" stroke-linecap="square" stroke-linejoin="miter" opacity="0.92"/>
<path d="M2285.5 389.94L2446.5 389.94L2446.5 466.87" fill="none" stroke="currentColor" stroke-width="5.76" stroke-linecap="square" stroke-linejoin="miter" opacity="0.92"/>
<path d="M1623.52 466.84L1632.02 466.84L1632.02 395.62" fill="none" stroke="currentColor" stroke-width="5.76" stroke-linecap="square" stroke-linejoin="miter" opacity="0.92"/>
<path d="M1480.52 466.84L1472.27 466.84L1472.27 395.62" fill="none" stroke="currentColor" stroke-width="5.76" stroke-linecap="square" stroke-linejoin="miter" opacity="0.92"/>
<path d="M1525.01 403.82L1527.58 404.68L1527.58 422.96" fill="none" stroke="currentColor" stroke-width="5.76" stroke-linecap="square" stroke-linejoin="miter" opacity="0.92"/>
<path d="M1579.28 403.82L1576.7 404.68L1576.7 422.96" fill="none" stroke="currentColor" stroke-width="5.76" stroke-linecap="square" stroke-linejoin="miter" opacity="0.92"/>
<path d="M1576.7 422.96L1576.7 425.21L1552.14 425.21" fill="none" stroke="currentColor" stroke-width="5.76" stroke-linecap="square" stroke-linejoin="miter" opacity="0.92"/>
<path d="M1527.58 422.96L1527.58 425.21L1552.14 425.21" fill="none" stroke="currentColor" stroke-width="5.76" stroke-linecap="square" stroke-linejoin="miter" opacity="0.92"/>
<path d="M1742.02 403.83L1739.45 404.68L1739.45 425.21" fill="none" stroke="currentColor" stroke-width="5.76" stroke-linecap="square" stroke-linejoin="miter" opacity="0.92"/>
<path d="M1687.77 403.83L1690.33 404.68L1690.33 425.1" fill="none" stroke="currentColor" stroke-width="5.76" stroke-linecap="square" stroke-linejoin="miter" opacity="0.92"/>
<path d="M2200.14 468.87L2200.14 522.59L2173.52 522.59L2173.52 527.7L2203.14 527.7" fill="none" stroke="currentColor" stroke-width="5.76" stroke-linecap="square" stroke-linejoin="miter" opacity="0.92"/>
<path d="M2088.02 527.7L2097.67 527.7L2097.67 476.39" fill="none" stroke="currentColor" stroke-width="5.76" stroke-linecap="square" stroke-linejoin="miter" opacity="0.92"/>
<path d="M2133.46 389.73L2153.75 396.46L2152.56 400.04L2133.77 393.79" fill="none" stroke="currentColor" stroke-width="5.76" stroke-linecap="square" stroke-linejoin="miter" opacity="0.92"/>
<path d="M2110.07 389.73L2089.78 396.46L2090.97 400.04L2109.77 393.79" fill="none" stroke="currentColor" stroke-width="5.76" stroke-linecap="square" stroke-linejoin="miter" opacity="0.92"/>
<path d="M2176.52 428.96L2200.14 428.96L2200.14 466.87" fill="none" stroke="currentColor" stroke-width="5.76" stroke-linecap="square" stroke-linejoin="miter" opacity="0.92"/>
<path d="M2067.52 403.83L2064.95 404.68L2064.95 424.46" fill="none" stroke="currentColor" stroke-width="5.76" stroke-linecap="square" stroke-linejoin="miter" opacity="0.92"/>
<path d="M2178.58 404.68L2178.58 422.96L2178.58 425.21L2203.14 425.21" fill="none" stroke="currentColor" stroke-width="5.76" stroke-linecap="square" stroke-linejoin="miter" opacity="0.92"/>
<path d="M2067.02 428.96L2067.02 454.64L2068.7 454.64" fill="none" stroke="currentColor" stroke-width="5.76" stroke-linecap="square" stroke-linejoin="miter" opacity="0.92"/>
<path d="M2176.52 428.96L2176.52 454.64L2174.83 454.64" fill="none" stroke="currentColor" stroke-width="5.76" stroke-linecap="square" stroke-linejoin="miter" opacity="0.92"/>
<path d="M2064.95 424.46L2064.95 425.21L2040.39 425.21" fill="none" stroke="currentColor" stroke-width="5.76" stroke-linecap="square" stroke-linejoin="miter" opacity="0.92"/>
<path d="M2174.83 465.89L2176.52 465.89L2176.52 466.87L2201.27 466.87" fill="none" stroke="currentColor" stroke-width="5.76" stroke-linecap="square" stroke-linejoin="miter" opacity="0.92"/>
<path d="M2068.7 465.89L2067.02 465.89L2067.02 466.87L2042.27 466.87" fill="none" stroke="currentColor" stroke-width="5.76" stroke-linecap="square" stroke-linejoin="miter" opacity="0.92"/>
<path d="M898.12 468.87L898.12 522.59L871.5 522.59L871.5 527.7L901.12 527.7" fill="none" stroke="currentColor" stroke-width="5.76" stroke-linecap="square" stroke-linejoin="miter" opacity="0.92"/>
<path d="M786 527.7L795.65 527.7L795.65 476.39" fill="none" stroke="currentColor" stroke-width="5.76" stroke-linecap="square" stroke-linejoin="miter" opacity="0.92"/>
<path d="M831.44 389.73L851.73 396.46L850.54 400.04L831.75 393.79" fill="none" stroke="currentColor" stroke-width="5.76" stroke-linecap="square" stroke-linejoin="miter" opacity="0.92"/>
<path d="M808.05 389.73L787.76 396.46L788.95 400.04L807.75 393.79" fill="none" stroke="currentColor" stroke-width="5.76" stroke-linecap="square" stroke-linejoin="miter" opacity="0.92"/>
<path d="M874.5 428.96L898.12 428.96L898.12 466.87" fill="none" stroke="currentColor" stroke-width="5.76" stroke-linecap="square" stroke-linejoin="miter" opacity="0.92"/>
<path d="M765.5 403.83L762.93 404.68L762.93 424.46" fill="none" stroke="currentColor" stroke-width="5.76" stroke-linecap="square" stroke-linejoin="miter" opacity="0.92"/>
<path d="M876.56 404.68L876.56 422.96L876.56 425.21L901.12 425.21" fill="none" stroke="currentColor" stroke-width="5.76" stroke-linecap="square" stroke-linejoin="miter" opacity="0.92"/>
<path d="M765 428.96L765 454.64L766.68 454.64" fill="none" stroke="currentColor" stroke-width="5.76" stroke-linecap="square" stroke-linejoin="miter" opacity="0.92"/>
<path d="M874.5 428.96L874.5 454.64L872.81 454.64" fill="none" stroke="currentColor" stroke-width="5.76" stroke-linecap="square" stroke-linejoin="miter" opacity="0.92"/>
<path d="M762.93 424.46L762.93 425.21L738.37 425.21" fill="none" stroke="currentColor" stroke-width="5.76" stroke-linecap="square" stroke-linejoin="miter" opacity="0.92"/>
<path d="M872.81 465.89L874.5 465.89L874.5 466.87L899.25 466.87" fill="none" stroke="currentColor" stroke-width="5.76" stroke-linecap="square" stroke-linejoin="miter" opacity="0.92"/>
<path d="M766.68 465.89L765 465.89L765 466.87L740.25 466.87" fill="none" stroke="currentColor" stroke-width="5.76" stroke-linecap="square" stroke-linejoin="miter" opacity="0.92"/>
<path d="M1931.91 306.34L1934.47 305.49L1934.47 284.96" fill="none" stroke="currentColor" stroke-width="5.76" stroke-linecap="square" stroke-linejoin="miter" opacity="0.92"/>
<path d="M1986.16 306.34L1983.6 305.49L1983.6 285.06" fill="none" stroke="currentColor" stroke-width="5.76" stroke-linecap="square" stroke-linejoin="miter" opacity="0.92"/>
<path d="M1724.91 243.32L1716.41 243.32L1716.41 314.54" fill="none" stroke="currentColor" stroke-width="5.76" stroke-linecap="square" stroke-linejoin="miter" opacity="0.92"/>
<path d="M1867.91 243.32L1876.16 243.32L1876.16 314.54" fill="none" stroke="currentColor" stroke-width="5.76" stroke-linecap="square" stroke-linejoin="miter" opacity="0.92"/>
<path d="M1823.42 306.34L1820.85 305.49L1820.85 287.21" fill="none" stroke="currentColor" stroke-width="5.76" stroke-linecap="square" stroke-linejoin="miter" opacity="0.92"/>
<path d="M1769.15 306.34L1771.72 305.49L1771.72 287.21" fill="none" stroke="currentColor" stroke-width="5.76" stroke-linecap="square" stroke-linejoin="miter" opacity="0.92"/>
<path d="M1771.72 287.21L1771.72 284.96L1796.29 284.96" fill="none" stroke="currentColor" stroke-width="5.76" stroke-linecap="square" stroke-linejoin="miter" opacity="0.92"/>
<path d="M1820.85 287.21L1820.85 284.96L1796.29 284.96" fill="none" stroke="currentColor" stroke-width="5.76" stroke-linecap="square" stroke-linejoin="miter" opacity="0.92"/>
<path d="M1142.27 241.3L1142.27 187.57L1115.64 187.57L1115.64 182.46L1145.27 182.46" fill="none" stroke="currentColor" stroke-width="5.76" stroke-linecap="square" stroke-linejoin="miter" opacity="0.92"/>
<path d="M1030.14 182.46L1039.8 182.46L1039.8 233.77" fill="none" stroke="currentColor" stroke-width="5.76" stroke-linecap="square" stroke-linejoin="miter" opacity="0.92"/>
<path d="M1075.58 320.43L1095.88 313.7L1094.69 310.12L1075.89 316.37" fill="none" stroke="currentColor" stroke-width="5.76" stroke-linecap="square" stroke-linejoin="miter" opacity="0.92"/>
<path d="M1052.2 320.43L1031.91 313.7L1033.09 310.12L1051.89 316.37" fill="none" stroke="currentColor" stroke-width="5.76" stroke-linecap="square" stroke-linejoin="miter" opacity="0.92"/>
<path d="M1118.64 281.21L1142.27 281.21L1142.27 243.3" fill="none" stroke="currentColor" stroke-width="5.76" stroke-linecap="square" stroke-linejoin="miter" opacity="0.92"/>
<path d="M1009.64 306.34L1007.08 305.49L1007.08 285.71" fill="none" stroke="currentColor" stroke-width="5.76" stroke-linecap="square" stroke-linejoin="miter" opacity="0.92"/>
<path d="M1120.7 305.49L1120.7 287.21L1120.7 284.96L1145.27 284.96" fill="none" stroke="currentColor" stroke-width="5.76" stroke-linecap="square" stroke-linejoin="miter" opacity="0.92"/>
<path d="M1009.14 281.21L1009.14 255.52L1010.83 255.52" fill="none" stroke="currentColor" stroke-width="5.76" stroke-linecap="square" stroke-linejoin="miter" opacity="0.92"/>
<path d="M1118.64 281.21L1118.64 255.52L1116.95 255.52" fill="none" stroke="currentColor" stroke-width="5.76" stroke-linecap="square" stroke-linejoin="miter" opacity="0.92"/>
<path d="M1007.08 285.71L1007.08 284.96L982.52 284.96" fill="none" stroke="currentColor" stroke-width="5.76" stroke-linecap="square" stroke-linejoin="miter" opacity="0.92"/>
<path d="M1116.95 244.27L1118.64 244.27L1118.64 243.3L1143.39 243.3" fill="none" stroke="currentColor" stroke-width="5.76" stroke-linecap="square" stroke-linejoin="miter" opacity="0.92"/>
<path d="M1010.83 244.27L1009.14 244.27L1009.14 243.3L984.39 243.3" fill="none" stroke="currentColor" stroke-width="5.76" stroke-linecap="square" stroke-linejoin="miter" opacity="0.92"/>
<path d="M1305.02 241.3L1305.02 187.57L1278.39 187.57L1278.39 182.46L1308.02 182.46" fill="none" stroke="currentColor" stroke-width="5.76" stroke-linecap="square" stroke-linejoin="miter" opacity="0.92"/>
<path d="M1192.89 182.46L1202.55 182.46L1202.55 233.77" fill="none" stroke="currentColor" stroke-width="5.76" stroke-linecap="square" stroke-linejoin="miter" opacity="0.92"/>
<path d="M1238.33 320.43L1258.63 313.7L1257.44 310.12L1238.64 316.37" fill="none" stroke="currentColor" stroke-width="5.76" stroke-linecap="square" stroke-linejoin="miter" opacity="0.92"/>
<path d="M1214.95 320.43L1194.66 313.7L1195.84 310.12L1214.64 316.37" fill="none" stroke="currentColor" stroke-width="5.76" stroke-linecap="square" stroke-linejoin="miter" opacity="0.92"/>
<path d="M1281.39 281.21L1305.02 281.21L1305.02 243.3" fill="none" stroke="currentColor" stroke-width="5.76" stroke-linecap="square" stroke-linejoin="miter" opacity="0.92"/>
<path d="M1172.39 306.34L1169.83 305.49L1169.83 285.71" fill="none" stroke="currentColor" stroke-width="5.76" stroke-linecap="square" stroke-linejoin="miter" opacity="0.92"/>
<path d="M1283.45 305.49L1283.45 287.21L1283.45 284.96L1308.02 284.96" fill="none" stroke="currentColor" stroke-width="5.76" stroke-linecap="square" stroke-linejoin="miter" opacity="0.92"/>
<path d="M1171.89 281.21L1171.89 255.52L1173.58 255.52" fill="none" stroke="currentColor" stroke-width="5.76" stroke-linecap="square" stroke-linejoin="miter" opacity="0.92"/>
<path d="M1281.39 281.21L1281.39 255.52L1279.7 255.52" fill="none" stroke="currentColor" stroke-width="5.76" stroke-linecap="square" stroke-linejoin="miter" opacity="0.92"/>
<path d="M1169.83 285.71L1169.83 284.96L1145.27 284.96" fill="none" stroke="currentColor" stroke-width="5.76" stroke-linecap="square" stroke-linejoin="miter" opacity="0.92"/>
<path d="M1279.7 244.27L1281.39 244.27L1281.39 243.3L1306.14 243.3" fill="none" stroke="currentColor" stroke-width="5.76" stroke-linecap="square" stroke-linejoin="miter" opacity="0.92"/>
<path d="M1173.58 244.27L1171.89 244.27L1171.89 243.3L1147.14 243.3" fill="none" stroke="currentColor" stroke-width="5.76" stroke-linecap="square" stroke-linejoin="miter" opacity="0.92"/>
<path d="M2444.27 241.3L2444.27 187.57L2417.64 187.57L2417.64 182.46L2447.27 182.46" fill="none" stroke="currentColor" stroke-width="5.76" stroke-linecap="square" stroke-linejoin="miter" opacity="0.92"/>
<path d="M2332.14 182.46L2341.8 182.46L2341.8 233.77" fill="none" stroke="currentColor" stroke-width="5.76" stroke-linecap="square" stroke-linejoin="miter" opacity="0.92"/>
<path d="M2377.58 320.43L2397.88 313.7L2396.69 310.12L2377.89 316.37" fill="none" stroke="currentColor" stroke-width="5.76" stroke-linecap="square" stroke-linejoin="miter" opacity="0.92"/>
<path d="M2354.2 320.43L2333.91 313.7L2335.09 310.12L2353.89 316.37" fill="none" stroke="currentColor" stroke-width="5.76" stroke-linecap="square" stroke-linejoin="miter" opacity="0.92"/>
<path d="M2420.64 281.21L2444.27 281.21L2444.27 243.3" fill="none" stroke="currentColor" stroke-width="5.76" stroke-linecap="square" stroke-linejoin="miter" opacity="0.92"/>
<path d="M2311.64 306.34L2309.08 305.49L2309.08 285.71" fill="none" stroke="currentColor" stroke-width="5.76" stroke-linecap="square" stroke-linejoin="miter" opacity="0.92"/>
<path d="M2422.7 305.49L2422.7 287.21L2422.7 284.96L2447.27 284.96" fill="none" stroke="currentColor" stroke-width="5.76" stroke-linecap="square" stroke-linejoin="miter" opacity="0.92"/>
<path d="M2311.14 281.21L2311.14 255.52L2312.83 255.52" fill="none" stroke="currentColor" stroke-width="5.76" stroke-linecap="square" stroke-linejoin="miter" opacity="0.92"/>
<path d="M2420.64 281.21L2420.64 255.52L2418.95 255.52" fill="none" stroke="currentColor" stroke-width="5.76" stroke-linecap="square" stroke-linejoin="miter" opacity="0.92"/>
<path d="M2309.08 285.71L2309.08 284.96L2284.52 284.96" fill="none" stroke="currentColor" stroke-width="5.76" stroke-linecap="square" stroke-linejoin="miter" opacity="0.92"/>
<path d="M2418.95 244.27L2420.64 244.27L2420.64 243.3L2445.39 243.3" fill="none" stroke="currentColor" stroke-width="5.76" stroke-linecap="square" stroke-linejoin="miter" opacity="0.92"/>
<path d="M2312.83 244.27L2311.14 244.27L2311.14 243.3L2286.39 243.3" fill="none" stroke="currentColor" stroke-width="5.76" stroke-linecap="square" stroke-linejoin="miter" opacity="0.92"/>
<path d="M422.91 243.32L414.41 243.32L414.41 314.54" fill="none" stroke="currentColor" stroke-width="5.76" stroke-linecap="square" stroke-linejoin="miter" opacity="0.92"/>
<path d="M565.91 243.32L574.16 243.32L574.16 314.54" fill="none" stroke="currentColor" stroke-width="5.76" stroke-linecap="square" stroke-linejoin="miter" opacity="0.92"/>
<path d="M521.42 306.34L518.85 305.49L518.85 287.21" fill="none" stroke="currentColor" stroke-width="5.76" stroke-linecap="square" stroke-linejoin="miter" opacity="0.92"/>
<path d="M467.15 306.34L469.72 305.49L469.72 287.21" fill="none" stroke="currentColor" stroke-width="5.76" stroke-linecap="square" stroke-linejoin="miter" opacity="0.92"/>
<path d="M469.72 287.21L469.72 284.96L494.29 284.96" fill="none" stroke="currentColor" stroke-width="5.76" stroke-linecap="square" stroke-linejoin="miter" opacity="0.92"/>
<path d="M518.85 287.21L518.85 284.96L494.29 284.96" fill="none" stroke="currentColor" stroke-width="5.76" stroke-linecap="square" stroke-linejoin="miter" opacity="0.92"/>
<path d="M660.02 241.3L660.02 187.57L686.64 187.57L686.64 182.46L657.02 182.46" fill="none" stroke="currentColor" stroke-width="5.76" stroke-linecap="square" stroke-linejoin="miter" opacity="0.92"/>
<path d="M772.14 182.46L762.48 182.46L762.48 233.77" fill="none" stroke="currentColor" stroke-width="5.76" stroke-linecap="square" stroke-linejoin="miter" opacity="0.92"/>
<path d="M726.7 320.43L706.41 313.7L707.59 310.12L726.39 316.37" fill="none" stroke="currentColor" stroke-width="5.76" stroke-linecap="square" stroke-linejoin="miter" opacity="0.92"/>
<path d="M750.08 320.43L770.38 313.7L769.19 310.12L750.39 316.37" fill="none" stroke="currentColor" stroke-width="5.76" stroke-linecap="square" stroke-linejoin="miter" opacity="0.92"/>
<path d="M683.64 281.21L660.02 281.21L660.02 243.3" fill="none" stroke="currentColor" stroke-width="5.76" stroke-linecap="square" stroke-linejoin="miter" opacity="0.92"/>
<path d="M792.64 306.34L795.2 305.49L795.2 285.71" fill="none" stroke="currentColor" stroke-width="5.76" stroke-linecap="square" stroke-linejoin="miter" opacity="0.92"/>
<path d="M681.58 305.49L681.58 287.21L681.58 284.96L657.02 284.96" fill="none" stroke="currentColor" stroke-width="5.76" stroke-linecap="square" stroke-linejoin="miter" opacity="0.92"/>
<path d="M793.14 281.21L793.14 255.52L791.45 255.52" fill="none" stroke="currentColor" stroke-width="5.76" stroke-linecap="square" stroke-linejoin="miter" opacity="0.92"/>
<path d="M683.64 281.21L683.64 255.52L685.33 255.52" fill="none" stroke="currentColor" stroke-width="5.76" stroke-linecap="square" stroke-linejoin="miter" opacity="0.92"/>
<path d="M795.2 285.71L795.2 284.96L819.77 284.96" fill="none" stroke="currentColor" stroke-width="5.76" stroke-linecap="square" stroke-linejoin="miter" opacity="0.92"/>
<path d="M685.33 244.27L683.64 244.27L683.64 243.3L658.89 243.3" fill="none" stroke="currentColor" stroke-width="5.76" stroke-linecap="square" stroke-linejoin="miter" opacity="0.92"/>
<path d="M791.45 244.27L793.14 244.27L793.14 243.3L817.89 243.3" fill="none" stroke="currentColor" stroke-width="5.76" stroke-linecap="square" stroke-linejoin="miter" opacity="0.92"/>
<path d="M2851.11 468.87L2851.11 522.61L2824.52 522.59L2824.52 527.7L2854.09 527.7" fill="none" stroke="currentColor" stroke-width="5.76" stroke-linecap="square" stroke-linejoin="miter" opacity="0.92"/>
<path d="M2774.27 395.61L2774.27 466.87L2776.52 466.87L2782.61 466.87L2782.61 468.86L2770.49 468.86" fill="none" stroke="currentColor" stroke-width="5.76" stroke-linecap="square" stroke-linejoin="miter" opacity="0.92"/>
<path d="M2773.83 386.21L2804.86 396.49" fill="none" stroke="currentColor" stroke-width="5.76" stroke-linecap="square" stroke-linejoin="miter" opacity="0.92"/>
<path d="M2825.83 465.89L2827.52 465.89L2827.5 466.87L2851.16 466.87" fill="none" stroke="currentColor" stroke-width="5.76" stroke-linecap="square" stroke-linejoin="miter" opacity="0.92"/>
<path d="M2827.52 428.96L2827.52 454.64L2825.83 454.64" fill="none" stroke="currentColor" stroke-width="5.76" stroke-linecap="square" stroke-linejoin="miter" opacity="0.92"/>
<path d="M2851.11 468.87L2817.15 468.87L2817.15 467.02L2825.83 467.02" fill="none" stroke="currentColor" stroke-width="5.76" stroke-linecap="square" stroke-linejoin="miter" opacity="0.92"/>
<path d="M2784.89 393.79L2803.68 400.04" fill="none" stroke="currentColor" stroke-width="5.76" stroke-linecap="square" stroke-linejoin="miter" opacity="0.92"/>
<path d="M1386.36 468.87L1386.36 522.61L1359.77 522.59L1359.77 527.7L1389.34 527.7" fill="none" stroke="currentColor" stroke-width="5.76" stroke-linecap="square" stroke-linejoin="miter" opacity="0.92"/>
<path d="M1309.52 395.61L1309.52 466.87L1311.77 466.87L1317.86 466.87L1317.86 468.86L1305.74 468.86" fill="none" stroke="currentColor" stroke-width="5.76" stroke-linecap="square" stroke-linejoin="miter" opacity="0.92"/>
<path d="M1309.08 386.21L1340.11 396.49" fill="none" stroke="currentColor" stroke-width="5.76" stroke-linecap="square" stroke-linejoin="miter" opacity="0.92"/>
<path d="M1361.08 465.89L1362.77 465.89L1362.75 466.87L1386.41 466.87" fill="none" stroke="currentColor" stroke-width="5.76" stroke-linecap="square" stroke-linejoin="miter" opacity="0.92"/>
<path d="M1362.77 428.96L1362.77 454.64L1361.08 454.64" fill="none" stroke="currentColor" stroke-width="5.76" stroke-linecap="square" stroke-linejoin="miter" opacity="0.92"/>
<path d="M1386.36 468.87L1352.4 468.87L1352.4 467.02L1361.08 467.02" fill="none" stroke="currentColor" stroke-width="5.76" stroke-linecap="square" stroke-linejoin="miter" opacity="0.92"/>
<path d="M1320.14 393.79L1338.93 400.04" fill="none" stroke="currentColor" stroke-width="5.76" stroke-linecap="square" stroke-linejoin="miter" opacity="0.92"/>
<path d="M1392.42 468.87L1392.42 522.61L1419.02 522.59L1419.02 527.7L1389.44 527.7" fill="none" stroke="currentColor" stroke-width="5.76" stroke-linecap="square" stroke-linejoin="miter" opacity="0.92"/>
<path d="M1469.27 395.61L1469.27 466.87L1467.02 466.87L1460.92 466.87L1460.92 468.86L1473.04 468.86" fill="none" stroke="currentColor" stroke-width="5.76" stroke-linecap="square" stroke-linejoin="miter" opacity="0.92"/>
<path d="M1469.71 386.21L1438.67 396.49" fill="none" stroke="currentColor" stroke-width="5.76" stroke-linecap="square" stroke-linejoin="miter" opacity="0.92"/>
<path d="M1417.7 465.89L1416.02 465.89L1416.03 466.87L1392.37 466.87" fill="none" stroke="currentColor" stroke-width="5.76" stroke-linecap="square" stroke-linejoin="miter" opacity="0.92"/>
<path d="M1416.02 428.96L1416.02 454.64L1417.7 454.64" fill="none" stroke="currentColor" stroke-width="5.76" stroke-linecap="square" stroke-linejoin="miter" opacity="0.92"/>
<path d="M1392.42 468.87L1426.39 468.87L1426.38 467.02L1417.7 467.02" fill="none" stroke="currentColor" stroke-width="5.76" stroke-linecap="square" stroke-linejoin="miter" opacity="0.92"/>
<path d="M1458.65 393.79L1439.85 400.04" fill="none" stroke="currentColor" stroke-width="5.76" stroke-linecap="square" stroke-linejoin="miter" opacity="0.92"/>
<path d="M2688.36 468.87L2688.36 522.61L2661.77 522.59L2661.77 527.7L2691.34 527.7" fill="none" stroke="currentColor" stroke-width="5.76" stroke-linecap="square" stroke-linejoin="miter" opacity="0.92"/>
<path d="M2611.52 395.61L2611.52 466.87L2613.77 466.87L2619.86 466.87L2619.86 468.86L2607.74 468.86" fill="none" stroke="currentColor" stroke-width="5.76" stroke-linecap="square" stroke-linejoin="miter" opacity="0.92"/>
<path d="M2611.08 386.21L2642.11 396.49" fill="none" stroke="currentColor" stroke-width="5.76" stroke-linecap="square" stroke-linejoin="miter" opacity="0.92"/>
<path d="M2663.08 465.89L2664.77 465.89L2664.75 466.87L2688.41 466.87" fill="none" stroke="currentColor" stroke-width="5.76" stroke-linecap="square" stroke-linejoin="miter" opacity="0.92"/>
<path d="M2664.77 428.96L2664.77 454.64L2663.08 454.64" fill="none" stroke="currentColor" stroke-width="5.76" stroke-linecap="square" stroke-linejoin="miter" opacity="0.92"/>
<path d="M2688.36 468.87L2654.4 468.87L2654.4 467.02L2663.08 467.02" fill="none" stroke="currentColor" stroke-width="5.76" stroke-linecap="square" stroke-linejoin="miter" opacity="0.92"/>
<path d="M2622.14 393.79L2640.93 400.04" fill="none" stroke="currentColor" stroke-width="5.76" stroke-linecap="square" stroke-linejoin="miter" opacity="0.92"/>
<path d="M2694.42 468.87L2694.42 522.61L2721.02 522.59L2721.02 527.7L2691.44 527.7" fill="none" stroke="currentColor" stroke-width="5.76" stroke-linecap="square" stroke-linejoin="miter" opacity="0.92"/>
<path d="M2771.27 395.61L2771.27 466.87L2769.02 466.87L2762.92 466.87L2762.92 468.86L2775.04 468.86" fill="none" stroke="currentColor" stroke-width="5.76" stroke-linecap="square" stroke-linejoin="miter" opacity="0.92"/>
<path d="M2771.71 386.21L2740.67 396.49" fill="none" stroke="currentColor" stroke-width="5.76" stroke-linecap="square" stroke-linejoin="miter" opacity="0.92"/>
<path d="M2719.7 465.89L2718.02 465.89L2718.03 466.87L2694.37 466.87" fill="none" stroke="currentColor" stroke-width="5.76" stroke-linecap="square" stroke-linejoin="miter" opacity="0.92"/>
<path d="M2718.02 428.96L2718.02 454.64L2719.7 454.64" fill="none" stroke="currentColor" stroke-width="5.76" stroke-linecap="square" stroke-linejoin="miter" opacity="0.92"/>
<path d="M2694.42 468.87L2728.39 468.87L2728.38 467.02L2719.7 467.02" fill="none" stroke="currentColor" stroke-width="5.76" stroke-linecap="square" stroke-linejoin="miter" opacity="0.92"/>
<path d="M2760.65 393.79L2741.85 400.04" fill="none" stroke="currentColor" stroke-width="5.76" stroke-linecap="square" stroke-linejoin="miter" opacity="0.92"/>
<path d="M253.17 468.87L253.17 522.61L279.77 522.59L279.77 527.7L250.19 527.7" fill="none" stroke="currentColor" stroke-width="5.76" stroke-linecap="square" stroke-linejoin="miter" opacity="0.92"/>
<path d="M330.02 395.61L330.02 466.87L327.77 466.87L321.67 466.87L321.67 468.86L333.79 468.86" fill="none" stroke="currentColor" stroke-width="5.76" stroke-linecap="square" stroke-linejoin="miter" opacity="0.92"/>
<path d="M330.46 386.21L299.42 396.49" fill="none" stroke="currentColor" stroke-width="5.76" stroke-linecap="square" stroke-linejoin="miter" opacity="0.92"/>
<path d="M278.45 465.89L276.77 465.89L276.78 466.87L253.12 466.87" fill="none" stroke="currentColor" stroke-width="5.76" stroke-linecap="square" stroke-linejoin="miter" opacity="0.92"/>
<path d="M276.77 428.96L276.77 454.64L278.45 454.64" fill="none" stroke="currentColor" stroke-width="5.76" stroke-linecap="square" stroke-linejoin="miter" opacity="0.92"/>
<path d="M253.17 468.87L287.14 468.87L287.13 467.02L278.45 467.02" fill="none" stroke="currentColor" stroke-width="5.76" stroke-linecap="square" stroke-linejoin="miter" opacity="0.92"/>
<path d="M319.4 393.79L300.6 400.04" fill="none" stroke="currentColor" stroke-width="5.76" stroke-linecap="square" stroke-linejoin="miter" opacity="0.92"/>
<path d="M247.11 468.87L247.11 522.61L220.52 522.59L220.52 527.7L250.09 527.7" fill="none" stroke="currentColor" stroke-width="5.76" stroke-linecap="square" stroke-linejoin="miter" opacity="0.92"/>
<path d="M170.27 395.61L170.27 466.87L172.52 466.87L178.61 466.87L178.61 468.86L166.49 468.86" fill="none" stroke="currentColor" stroke-width="5.76" stroke-linecap="square" stroke-linejoin="miter" opacity="0.92"/>
<path d="M169.83 386.21L200.86 396.49" fill="none" stroke="currentColor" stroke-width="5.76" stroke-linecap="square" stroke-linejoin="miter" opacity="0.92"/>
<path d="M221.83 465.89L223.52 465.89L223.5 466.87L247.16 466.87" fill="none" stroke="currentColor" stroke-width="5.76" stroke-linecap="square" stroke-linejoin="miter" opacity="0.92"/>
<path d="M223.52 428.96L223.52 454.64L221.83 454.64" fill="none" stroke="currentColor" stroke-width="5.76" stroke-linecap="square" stroke-linejoin="miter" opacity="0.92"/>
<path d="M247.11 468.87L213.15 468.87L213.15 467.02L221.83 467.02" fill="none" stroke="currentColor" stroke-width="5.76" stroke-linecap="square" stroke-linejoin="miter" opacity="0.92"/>
<path d="M180.89 393.79L199.68 400.04" fill="none" stroke="currentColor" stroke-width="5.76" stroke-linecap="square" stroke-linejoin="miter" opacity="0.92"/>
<path d="M2037.36 468.87L2037.36 522.61L2010.77 522.59L2010.77 527.7L2040.34 527.7" fill="none" stroke="currentColor" stroke-width="5.76" stroke-linecap="square" stroke-linejoin="miter" opacity="0.92"/>
<path d="M1960.52 395.61L1960.52 466.87L1962.77 466.87L1968.86 466.87L1968.86 468.86L1956.74 468.86" fill="none" stroke="currentColor" stroke-width="5.76" stroke-linecap="square" stroke-linejoin="miter" opacity="0.92"/>
<path d="M1960.08 386.21L1991.11 396.49" fill="none" stroke="currentColor" stroke-width="5.76" stroke-linecap="square" stroke-linejoin="miter" opacity="0.92"/>
<path d="M2012.08 465.89L2013.77 465.89L2013.75 466.87L2037.41 466.87" fill="none" stroke="currentColor" stroke-width="5.76" stroke-linecap="square" stroke-linejoin="miter" opacity="0.92"/>
<path d="M2013.77 428.96L2013.77 454.64L2012.08 454.64" fill="none" stroke="currentColor" stroke-width="5.76" stroke-linecap="square" stroke-linejoin="miter" opacity="0.92"/>
<path d="M2037.36 468.87L2003.4 468.87L2003.4 467.02L2012.08 467.02" fill="none" stroke="currentColor" stroke-width="5.76" stroke-linecap="square" stroke-linejoin="miter" opacity="0.92"/>
<path d="M1971.14 393.79L1989.93 400.04" fill="none" stroke="currentColor" stroke-width="5.76" stroke-linecap="square" stroke-linejoin="miter" opacity="0.92"/>
<path d="M1636.57 241.3L1636.57 187.56L1663.16 187.57L1663.16 182.47L1633.58 182.47" fill="none" stroke="currentColor" stroke-width="5.76" stroke-linecap="square" stroke-linejoin="miter" opacity="0.92"/>
<path d="M1713.41 314.55L1713.41 243.3L1711.16 243.3L1705.07 243.3L1705.07 241.3L1717.19 241.3" fill="none" stroke="currentColor" stroke-width="5.76" stroke-linecap="square" stroke-linejoin="miter" opacity="0.92"/>
<path d="M1713.85 323.95L1682.82 313.67" fill="none" stroke="currentColor" stroke-width="5.76" stroke-linecap="square" stroke-linejoin="miter" opacity="0.92"/>
<path d="M1661.85 244.27L1660.16 244.27L1660.18 243.3L1636.52 243.3" fill="none" stroke="currentColor" stroke-width="5.76" stroke-linecap="square" stroke-linejoin="miter" opacity="0.92"/>
<path d="M1660.16 281.21L1660.16 255.52L1661.85 255.52" fill="none" stroke="currentColor" stroke-width="5.76" stroke-linecap="square" stroke-linejoin="miter" opacity="0.92"/>
<path d="M1636.57 241.3L1670.53 241.3L1670.53 243.14L1661.85 243.14" fill="none" stroke="currentColor" stroke-width="5.76" stroke-linecap="square" stroke-linejoin="miter" opacity="0.92"/>
<path d="M1702.79 316.37L1683.99 310.12" fill="none" stroke="currentColor" stroke-width="5.76" stroke-linecap="square" stroke-linejoin="miter" opacity="0.92"/>
<path d="M2118.71 241.3L2118.71 187.56L2092.12 187.57L2092.12 182.47L2121.7 182.47" fill="none" stroke="currentColor" stroke-width="5.76" stroke-linecap="square" stroke-linejoin="miter" opacity="0.92"/>
<path d="M2041.87 314.55L2041.87 243.3L2044.12 243.3L2050.21 243.3L2050.21 241.3L2038.09 241.3" fill="none" stroke="currentColor" stroke-width="5.76" stroke-linecap="square" stroke-linejoin="miter" opacity="0.92"/>
<path d="M2041.43 323.95L2072.46 313.67" fill="none" stroke="currentColor" stroke-width="5.76" stroke-linecap="square" stroke-linejoin="miter" opacity="0.92"/>
<path d="M2093.43 244.27L2095.12 244.27L2095.1 243.3L2118.76 243.3" fill="none" stroke="currentColor" stroke-width="5.76" stroke-linecap="square" stroke-linejoin="miter" opacity="0.92"/>
<path d="M2095.12 281.21L2095.12 255.52L2093.43 255.52" fill="none" stroke="currentColor" stroke-width="5.76" stroke-linecap="square" stroke-linejoin="miter" opacity="0.92"/>
<path d="M2118.71 241.3L2084.75 241.3L2084.76 243.14L2093.43 243.14" fill="none" stroke="currentColor" stroke-width="5.76" stroke-linecap="square" stroke-linejoin="miter" opacity="0.92"/>
<path d="M2052.49 316.37L2071.29 310.12" fill="none" stroke="currentColor" stroke-width="5.76" stroke-linecap="square" stroke-linejoin="miter" opacity="0.92"/>
<path d="M1311.11 241.3L1311.11 187.56L1337.7 187.57L1337.7 182.47L1308.12 182.47" fill="none" stroke="currentColor" stroke-width="5.76" stroke-linecap="square" stroke-linejoin="miter" opacity="0.92"/>
<path d="M1387.95 314.55L1387.95 243.3L1385.7 243.3L1379.61 243.3L1379.61 241.3L1391.73 241.3" fill="none" stroke="currentColor" stroke-width="5.76" stroke-linecap="square" stroke-linejoin="miter" opacity="0.92"/>
<path d="M1388.39 323.95L1357.36 313.67" fill="none" stroke="currentColor" stroke-width="5.76" stroke-linecap="square" stroke-linejoin="miter" opacity="0.92"/>
<path d="M1336.39 244.27L1334.7 244.27L1334.72 243.3L1311.06 243.3" fill="none" stroke="currentColor" stroke-width="5.76" stroke-linecap="square" stroke-linejoin="miter" opacity="0.92"/>
<path d="M1334.7 281.21L1334.7 255.52L1336.39 255.52" fill="none" stroke="currentColor" stroke-width="5.76" stroke-linecap="square" stroke-linejoin="miter" opacity="0.92"/>
<path d="M1311.11 241.3L1345.07 241.3L1345.07 243.14L1336.39 243.14" fill="none" stroke="currentColor" stroke-width="5.76" stroke-linecap="square" stroke-linejoin="miter" opacity="0.92"/>
<path d="M1377.33 316.37L1358.53 310.12" fill="none" stroke="currentColor" stroke-width="5.76" stroke-linecap="square" stroke-linejoin="miter" opacity="0.92"/>
<path d="M1467.67 241.3L1467.67 187.56L1441.08 187.57L1441.08 182.47L1470.66 182.47" fill="none" stroke="currentColor" stroke-width="5.76" stroke-linecap="square" stroke-linejoin="miter" opacity="0.92"/>
<path d="M1390.83 314.55L1390.83 243.3L1393.08 243.3L1399.17 243.3L1399.17 241.3L1387.05 241.3" fill="none" stroke="currentColor" stroke-width="5.76" stroke-linecap="square" stroke-linejoin="miter" opacity="0.92"/>
<path d="M1390.39 323.95L1421.42 313.67" fill="none" stroke="currentColor" stroke-width="5.76" stroke-linecap="square" stroke-linejoin="miter" opacity="0.92"/>
<path d="M1442.39 244.27L1444.08 244.27L1444.06 243.3L1467.72 243.3" fill="none" stroke="currentColor" stroke-width="5.76" stroke-linecap="square" stroke-linejoin="miter" opacity="0.92"/>
<path d="M1444.08 281.21L1444.08 255.52L1442.39 255.52" fill="none" stroke="currentColor" stroke-width="5.76" stroke-linecap="square" stroke-linejoin="miter" opacity="0.92"/>
<path d="M1467.67 241.3L1433.71 241.3L1433.72 243.14L1442.39 243.14" fill="none" stroke="currentColor" stroke-width="5.76" stroke-linecap="square" stroke-linejoin="miter" opacity="0.92"/>
<path d="M1401.45 316.37L1420.25 310.12" fill="none" stroke="currentColor" stroke-width="5.76" stroke-linecap="square" stroke-linejoin="miter" opacity="0.92"/>
<path d="M2450.3 241.3L2450.3 187.56L2476.89 187.57L2476.89 182.47L2447.31 182.47" fill="none" stroke="currentColor" stroke-width="5.76" stroke-linecap="square" stroke-linejoin="miter" opacity="0.92"/>
<path d="M2527.14 314.55L2527.14 243.3L2524.89 243.3L2518.8 243.3L2518.8 241.3L2530.92 241.3" fill="none" stroke="currentColor" stroke-width="5.76" stroke-linecap="square" stroke-linejoin="miter" opacity="0.92"/>
<path d="M2527.58 323.95L2496.55 313.67" fill="none" stroke="currentColor" stroke-width="5.76" stroke-linecap="square" stroke-linejoin="miter" opacity="0.92"/>
<path d="M2475.58 244.27L2473.89 244.27L2473.91 243.3L2450.25 243.3" fill="none" stroke="currentColor" stroke-width="5.76" stroke-linecap="square" stroke-linejoin="miter" opacity="0.92"/>
<path d="M2473.89 281.21L2473.89 255.52L2475.58 255.52" fill="none" stroke="currentColor" stroke-width="5.76" stroke-linecap="square" stroke-linejoin="miter" opacity="0.92"/>
<path d="M2450.3 241.3L2484.26 241.3L2484.26 243.14L2475.58 243.14" fill="none" stroke="currentColor" stroke-width="5.76" stroke-linecap="square" stroke-linejoin="miter" opacity="0.92"/>
<path d="M2516.52 316.37L2497.72 310.12" fill="none" stroke="currentColor" stroke-width="5.76" stroke-linecap="square" stroke-linejoin="miter" opacity="0.92"/>
<path d="M2606.98 241.3L2606.98 187.56L2580.39 187.57L2580.39 182.47L2609.97 182.47" fill="none" stroke="currentColor" stroke-width="5.76" stroke-linecap="square" stroke-linejoin="miter" opacity="0.92"/>
<path d="M2530.14 314.55L2530.14 243.3L2532.39 243.3L2538.48 243.3L2538.48 241.3L2526.36 241.3" fill="none" stroke="currentColor" stroke-width="5.76" stroke-linecap="square" stroke-linejoin="miter" opacity="0.92"/>
<path d="M2529.7 323.95L2560.73 313.67" fill="none" stroke="currentColor" stroke-width="5.76" stroke-linecap="square" stroke-linejoin="miter" opacity="0.92"/>
<path d="M2581.7 244.27L2583.39 244.27L2583.37 243.3L2607.03 243.3" fill="none" stroke="currentColor" stroke-width="5.76" stroke-linecap="square" stroke-linejoin="miter" opacity="0.92"/>
<path d="M2583.39 281.21L2583.39 255.52L2581.7 255.52" fill="none" stroke="currentColor" stroke-width="5.76" stroke-linecap="square" stroke-linejoin="miter" opacity="0.92"/>
<path d="M2606.98 241.3L2573.02 241.3L2573.03 243.14L2581.7 243.14" fill="none" stroke="currentColor" stroke-width="5.76" stroke-linecap="square" stroke-linejoin="miter" opacity="0.92"/>
<path d="M2540.76 316.37L2559.56 310.12" fill="none" stroke="currentColor" stroke-width="5.76" stroke-linecap="square" stroke-linejoin="miter" opacity="0.92"/>
<path d="M653.92 241.3L653.92 187.56L627.33 187.57L627.33 182.47L656.91 182.47" fill="none" stroke="currentColor" stroke-width="5.76" stroke-linecap="square" stroke-linejoin="miter" opacity="0.92"/>
<path d="M577.08 314.55L577.08 243.3L579.33 243.3L585.42 243.3L585.42 241.3L573.3 241.3" fill="none" stroke="currentColor" stroke-width="5.76" stroke-linecap="square" stroke-linejoin="miter" opacity="0.92"/>
<path d="M576.64 323.95L607.67 313.67" fill="none" stroke="currentColor" stroke-width="5.76" stroke-linecap="square" stroke-linejoin="miter" opacity="0.92"/>
<path d="M628.64 244.27L630.33 244.27L630.31 243.3L653.97 243.3" fill="none" stroke="currentColor" stroke-width="5.76" stroke-linecap="square" stroke-linejoin="miter" opacity="0.92"/>
<path d="M630.33 281.21L630.33 255.52L628.64 255.52" fill="none" stroke="currentColor" stroke-width="5.76" stroke-linecap="square" stroke-linejoin="miter" opacity="0.92"/>
<path d="M653.92 241.3L619.96 241.3L619.97 243.14L628.64 243.14" fill="none" stroke="currentColor" stroke-width="5.76" stroke-linecap="square" stroke-linejoin="miter" opacity="0.92"/>
<path d="M587.7 316.37L606.5 310.12" fill="none" stroke="currentColor" stroke-width="5.76" stroke-linecap="square" stroke-linejoin="miter" opacity="0.92"/>
<path d="M334.65 241.3L334.65 187.56L361.24 187.57L361.24 182.47L331.66 182.47" fill="none" stroke="currentColor" stroke-width="5.76" stroke-linecap="square" stroke-linejoin="miter" opacity="0.92"/>
<path d="M411.49 314.55L411.49 243.3L409.24 243.3L403.15 243.3L403.15 241.3L415.27 241.3" fill="none" stroke="currentColor" stroke-width="5.76" stroke-linecap="square" stroke-linejoin="miter" opacity="0.92"/>
<path d="M411.93 323.95L380.9 313.67" fill="none" stroke="currentColor" stroke-width="5.76" stroke-linecap="square" stroke-linejoin="miter" opacity="0.92"/>
<path d="M359.93 244.27L358.24 244.27L358.26 243.3L334.6 243.3" fill="none" stroke="currentColor" stroke-width="5.76" stroke-linecap="square" stroke-linejoin="miter" opacity="0.92"/>
<path d="M358.24 281.21L358.24 255.52L359.93 255.52" fill="none" stroke="currentColor" stroke-width="5.76" stroke-linecap="square" stroke-linejoin="miter" opacity="0.92"/>
<path d="M334.65 241.3L368.61 241.3L368.6 243.14L359.93 243.14" fill="none" stroke="currentColor" stroke-width="5.76" stroke-linecap="square" stroke-linejoin="miter" opacity="0.92"/>
<path d="M400.87 316.37L382.07 310.12" fill="none" stroke="currentColor" stroke-width="5.76" stroke-linecap="square" stroke-linejoin="miter" opacity="0.92"/>
<path d="M2769.73 241.3L2769.73 187.56L2743.14 187.57L2743.14 182.47L2772.72 182.47" fill="none" stroke="currentColor" stroke-width="5.76" stroke-linecap="square" stroke-linejoin="miter" opacity="0.92"/>
<path d="M2692.89 314.56L2692.89 243.3L2695.14 243.3L2701.23 243.3L2701.23 241.3L2689.11 241.3" fill="none" stroke="currentColor" stroke-width="5.76" stroke-linecap="square" stroke-linejoin="miter" opacity="0.92"/>
<path d="M2692.45 323.95L2723.48 313.67" fill="none" stroke="currentColor" stroke-width="5.76" stroke-linecap="square" stroke-linejoin="miter" opacity="0.92"/>
<path d="M2744.45 244.27L2746.14 244.27L2746.12 243.3L2769.78 243.3" fill="none" stroke="currentColor" stroke-width="5.76" stroke-linecap="square" stroke-linejoin="miter" opacity="0.92"/>
<path d="M2746.14 281.21L2746.14 255.52L2744.45 255.52" fill="none" stroke="currentColor" stroke-width="5.76" stroke-linecap="square" stroke-linejoin="miter" opacity="0.92"/>
<path d="M2769.73 241.3L2735.77 241.3L2735.78 243.14L2744.45 243.14" fill="none" stroke="currentColor" stroke-width="5.76" stroke-linecap="square" stroke-linejoin="miter" opacity="0.92"/>
<path d="M2703.51 316.38L2722.31 310.12" fill="none" stroke="currentColor" stroke-width="5.76" stroke-linecap="square" stroke-linejoin="miter" opacity="0.92"/>
<path d="M2613.05 241.3L2613.05 187.56L2639.64 187.57L2639.64 182.47L2610.06 182.47" fill="none" stroke="currentColor" stroke-width="5.76" stroke-linecap="square" stroke-linejoin="miter" opacity="0.92"/>
<path d="M2689.89 314.55L2689.89 243.3L2687.64 243.3L2681.55 243.3L2681.55 241.3L2693.67 241.3" fill="none" stroke="currentColor" stroke-width="5.76" stroke-linecap="square" stroke-linejoin="miter" opacity="0.92"/>
<path d="M2690.33 323.95L2659.3 313.67" fill="none" stroke="currentColor" stroke-width="5.76" stroke-linecap="square" stroke-linejoin="miter" opacity="0.92"/>
<path d="M2638.33 244.27L2636.64 244.27L2636.66 243.3L2613 243.3" fill="none" stroke="currentColor" stroke-width="5.76" stroke-linecap="square" stroke-linejoin="miter" opacity="0.92"/>
<path d="M2636.64 281.21L2636.64 255.52L2638.33 255.52" fill="none" stroke="currentColor" stroke-width="5.76" stroke-linecap="square" stroke-linejoin="miter" opacity="0.92"/>
<path d="M2613.05 241.3L2647.01 241.3L2647.01 243.14L2638.33 243.14" fill="none" stroke="currentColor" stroke-width="5.76" stroke-linecap="square" stroke-linejoin="miter" opacity="0.92"/>
<path d="M2679.27 316.37L2660.47 310.12" fill="none" stroke="currentColor" stroke-width="5.76" stroke-linecap="square" stroke-linejoin="miter" opacity="0.92"/>
<path d="M409.86 468.87L409.86 522.61L383.27 522.59L383.27 527.7L412.84 527.7" fill="none" stroke="currentColor" stroke-width="5.76" stroke-linecap="square" stroke-linejoin="miter" opacity="0.92"/>
<path d="M333.02 395.61L333.02 466.87L335.27 466.87L341.36 466.87L341.36 468.86L329.24 468.86" fill="none" stroke="currentColor" stroke-width="5.76" stroke-linecap="square" stroke-linejoin="miter" opacity="0.92"/>
<path d="M332.58 386.21L363.61 396.49" fill="none" stroke="currentColor" stroke-width="5.76" stroke-linecap="square" stroke-linejoin="miter" opacity="0.92"/>
<path d="M384.58 465.89L386.27 465.89L386.25 466.87L409.91 466.87" fill="none" stroke="currentColor" stroke-width="5.76" stroke-linecap="square" stroke-linejoin="miter" opacity="0.92"/>
<path d="M386.27 428.96L386.27 454.64L384.58 454.64" fill="none" stroke="currentColor" stroke-width="5.76" stroke-linecap="square" stroke-linejoin="miter" opacity="0.92"/>
<path d="M409.86 468.87L375.9 468.87L375.9 467.02L384.58 467.02" fill="none" stroke="currentColor" stroke-width="5.76" stroke-linecap="square" stroke-linejoin="miter" opacity="0.92"/>
<path d="M343.64 393.79L362.43 400.04" fill="none" stroke="currentColor" stroke-width="5.76" stroke-linecap="square" stroke-linejoin="miter" opacity="0.92"/>
<path d="M415.92 468.87L415.92 522.61L442.52 522.59L442.52 527.7L412.94 527.7" fill="none" stroke="currentColor" stroke-width="5.76" stroke-linecap="square" stroke-linejoin="miter" opacity="0.92"/>
<path d="M492.77 395.61L492.77 466.87L490.52 466.87L484.42 466.87L484.42 468.86L496.54 468.86" fill="none" stroke="currentColor" stroke-width="5.76" stroke-linecap="square" stroke-linejoin="miter" opacity="0.92"/>
<path d="M493.21 386.21L462.17 396.49" fill="none" stroke="currentColor" stroke-width="5.76" stroke-linecap="square" stroke-linejoin="miter" opacity="0.92"/>
<path d="M441.2 465.89L439.52 465.89L439.53 466.87L415.87 466.87" fill="none" stroke="currentColor" stroke-width="5.76" stroke-linecap="square" stroke-linejoin="miter" opacity="0.92"/>
<path d="M439.52 428.96L439.52 454.64L441.2 454.64" fill="none" stroke="currentColor" stroke-width="5.76" stroke-linecap="square" stroke-linejoin="miter" opacity="0.92"/>
<path d="M415.92 468.87L449.89 468.87L449.88 467.02L441.2 467.02" fill="none" stroke="currentColor" stroke-width="5.76" stroke-linecap="square" stroke-linejoin="miter" opacity="0.92"/>
<path d="M482.15 393.79L463.35 400.04" fill="none" stroke="currentColor" stroke-width="5.76" stroke-linecap="square" stroke-linejoin="miter" opacity="0.92"/>
<path d="M735.39 468.87L735.39 522.61L708.79 522.6L708.79 527.7L738.37 527.7" fill="none" stroke="currentColor" stroke-width="5.76" stroke-linecap="square" stroke-linejoin="miter" opacity="0.92"/>
<path d="M658.54 395.61L658.54 466.87L660.79 466.87L666.89 466.87L666.89 468.86L654.77 468.86" fill="none" stroke="currentColor" stroke-width="5.76" stroke-linecap="square" stroke-linejoin="miter" opacity="0.92"/>
<path d="M658.1 386.21L689.14 396.49" fill="none" stroke="currentColor" stroke-width="5.76" stroke-linecap="square" stroke-linejoin="miter" opacity="0.92"/>
<path d="M710.11 465.9L711.79 465.9L711.77 466.87L735.43 466.87" fill="none" stroke="currentColor" stroke-width="5.76" stroke-linecap="square" stroke-linejoin="miter" opacity="0.92"/>
<path d="M711.79 428.96L711.79 454.65L710.11 454.65" fill="none" stroke="currentColor" stroke-width="5.76" stroke-linecap="square" stroke-linejoin="miter" opacity="0.92"/>
<path d="M735.39 468.87L701.42 468.87L701.43 467.02L710.11 467.02" fill="none" stroke="currentColor" stroke-width="5.76" stroke-linecap="square" stroke-linejoin="miter" opacity="0.92"/>
<path d="M669.16 393.79L687.96 400.04" fill="none" stroke="currentColor" stroke-width="5.76" stroke-linecap="square" stroke-linejoin="miter" opacity="0.92"/>
<path d="M2854.2 425.21L2858.23 425.21L2858.23 527.7L2854.14 527.72" fill="none" stroke="currentColor" stroke-width="5.76" stroke-linecap="square" stroke-linejoin="miter" opacity="0.92"/>
<path d="M594.13 391.08L601.29 391.08L601.29 392.58L595.23 392.58L595.23 421.08L628.74 421.08L628.74 392.58L622.68 392.58L622.68 391.08L629.83 391.08" fill="none" stroke="currentColor" stroke-width="5.76" stroke-linecap="square" stroke-linejoin="miter" opacity="0.92"/>
<path d="M595.23 422.58L593.83 422.58L593.83 391.08L595.23 391.08" fill="none" stroke="currentColor" stroke-width="5.76" stroke-linecap="square" stroke-linejoin="miter" opacity="0.92"/>
<path d="M628.74 391.08L630.13 391.08L630.13 422.58L628.74 422.58L594.13 422.58" fill="none" stroke="currentColor" stroke-width="5.76" stroke-linecap="square" stroke-linejoin="miter" opacity="0.92"/>
<path d="M1882.89 438.33L1880.64 438.33L1880.64 391.08L1882.89 391.08" fill="none" stroke="currentColor" stroke-width="5.76" stroke-linecap="square" stroke-linejoin="miter" opacity="0.92"/>
<path d="M1881.13 391.08L1892.65 391.08L1892.65 393.33L1882.89 393.33L1882.89 436.08L1936.89 436.08L1936.89 393.33L1927.13 393.33L1927.13 391.08L1938.66 391.08" fill="none" stroke="currentColor" stroke-width="5.76" stroke-linecap="square" stroke-linejoin="miter" opacity="0.92"/>
<path d="M1936.89 391.08L1939.14 391.08L1939.14 438.33L1936.89 438.33L1881.13 438.33" fill="none" stroke="currentColor" stroke-width="5.76" stroke-linecap="square" stroke-linejoin="miter" opacity="0.92"/>
<path d="M2144.64 271.83L2142.39 271.83L2142.39 319.08L2144.64 319.08" fill="none" stroke="currentColor" stroke-width="5.76" stroke-linecap="square" stroke-linejoin="miter" opacity="0.92"/>
<path d="M2144.64 316.83L2144.64 274.08L2198.64 274.08L2198.64 316.83" fill="none" stroke="currentColor" stroke-width="5.76" stroke-linecap="square" stroke-linejoin="miter" opacity="0.92"/>
<path d="M2198.64 319.08L2200.89 319.08L2200.89 271.83L2198.64 271.83L2142.88 271.83" fill="none" stroke="currentColor" stroke-width="5.76" stroke-linecap="square" stroke-linejoin="miter" opacity="0.92"/>
<path d="M982.17 182.46L978.22 182.46L978.22 284.96" fill="none" stroke="currentColor" stroke-width="5.76" stroke-linecap="square" stroke-linejoin="miter" opacity="0.92"/>
<path d="M819.77 182.46L823.72 182.46L823.72 284.96" fill="none" stroke="currentColor" stroke-width="5.76" stroke-linecap="square" stroke-linejoin="miter" opacity="0.92"/>
<path d="M1470.77 182.46L1474.72 182.46L1474.72 284.96" fill="none" stroke="currentColor" stroke-width="5.76" stroke-linecap="square" stroke-linejoin="miter" opacity="0.92"/>
<path d="M1633.17 182.46L1629.22 182.46L1629.22 284.96" fill="none" stroke="currentColor" stroke-width="5.76" stroke-linecap="square" stroke-linejoin="miter" opacity="0.92"/>
<path d="M2121.77 182.46L2125.72 182.46L2125.72 284.96" fill="none" stroke="currentColor" stroke-width="5.76" stroke-linecap="square" stroke-linejoin="miter" opacity="0.92"/>
<path d="M2284.17 182.46L2280.22 182.46L2280.22 284.96" fill="none" stroke="currentColor" stroke-width="5.76" stroke-linecap="square" stroke-linejoin="miter" opacity="0.92"/>
<path d="M2772.77 182.46L2776.72 182.46L2776.72 284.96" fill="none" stroke="currentColor" stroke-width="5.76" stroke-linecap="square" stroke-linejoin="miter" opacity="0.92"/>
<path d="M331.17 182.46L327.22 182.46L327.22 284.96" fill="none" stroke="currentColor" stroke-width="5.76" stroke-linecap="square" stroke-linejoin="miter" opacity="0.92"/></g>
</svg>
