<?xml version="1.0" encoding="utf-8" standalone="no"?>
<!DOCTYPE svg PUBLIC "-//W3C//DTD SVG 1.1//EN" "http://www.w3.org/Graphics/SVG/1.1/DTD/svg11.dtd">
<svg version="1.1" width="2592pt" height="1512pt" viewBox="0 0 2592 1512" overflow="visible" xmlns="http://www.w3.org/2000/svg">
  <path d="M1871.963,95.55311 L1873.865,91.14075 L1875.193,86.8326 L1870.833,85.96486 L1865.99,85.5519" stroke="#BF3F3F" stroke-width="1.44" fill="none" />
  <path d="M1687.341,154.7173 L1685.931,156.6629 L1684.813,158.6204 L1686.846,159.5191 L1689.165,160.2487" stroke="#BF3F3F" stroke-width="1.44" fill="none" />
  <path d="M1790.979,138.9182 L1792.998,137.6163 L1794.75,136.1976 L1793.182,134.6227 L1791.286,133.1018" stroke="#BF3F3F" stroke-width="1.44" fill="none" />
  <path d="M1912.229,115.1395 L1914.131,110.7272 L1915.459,106.419 L1911.099,105.5513 L1906.256,105.1383" stroke="#BF3F3F" stroke-width="1.44" fill="none" />
  <path d="M1001.287,333.993 L997.1424,336.4246 L993.5226,339.1118 L996.524,342.391 L1000.185,345.5898" stroke="#BF3F3F" stroke-width="1.44" fill="none" />
  <path d="M1077.123,349.4776 L1075.713,351.4232 L1074.596,353.3807 L1076.629,354.2794 L1078.947,355.009" stroke="#BF3F3F" stroke-width="1.44" fill="none" />
  <path d="M140.3882,314.7405 L241.6382,314.7405" stroke="#BF3F3F" stroke-width="1.44" fill="none" />
  <path d="M140.3882,407.9492 L140.3882,387.6992 L241.6382,387.6992 L241.6382,407.9492 z" stroke="Black" stroke-width="0" fill="#BF3F3F" fill-opacity="0.294117647058824" />
  <path d="M1516.962,189.0496 L1800.727,91.98119 L1818.556,109.1961 L1534.791,206.2645 z" stroke="Black" stroke-width="0" fill="#BF3F3F" fill-opacity="0.294117647058824" />
  <path d="M1839.511,102.5356 C1826.454,106.4329 1820.374,109.0004 1814.494,111.0555 C1808.614,113.1106 1802.934,114.6534 1797.274,115.7964 C1791.614,116.9393 1785.975,117.6825 1779.01,118.6134 C1773.636,119.3317 1767.474,120.1617 1726.319,132.9851" stroke="#BF3F3F" stroke-width="1.44" fill="none" />
  <path d="M140.3882,324.8655 L241.6382,324.8655" stroke="#BF3F3F" stroke-width="1.44" fill="none" />
  <path d="M1872.586,86.3137 C1860.561,91.22083 1850.457,94.5561 1841.6,97.29077 C1824.884,102.4524 1812.616,105.4743 1800.264,108.2416 C1787.911,111.0088 1775.474,113.5215 1758.783,117.6258 C1742.092,121.7301 1721.146,127.4261 1693.747,136.1339 C1666.347,144.8417 1632.494,156.5613 1586.221,172.7645 C1539.949,188.9676 1481.258,209.6544 1431.058,226.7769 C1380.857,243.8995 1339.147,257.4579 1296.479,271.202 C1253.811,284.9461 1210.185,298.876 1177.057,308.8805 C1143.929,318.885 1121.3,324.9641 1092.194,330.0262 C1061.255,335.407 1022.998,339.6389 995.4462,337.4197" stroke="#BF3F3F" stroke-width="1.44" fill="none" />
  <path d="M140.3882,304.6155 L241.6382,304.6155" stroke="#BF3F3F" stroke-width="1.44" fill="none" />
  <path d="M1841.463,129.7723 C1820.984,130.1994 1809.641,128.8645 1801.337,127.9501 C1793.032,127.0357 1787.765,126.5418 1782.333,126.2252 C1776.901,125.9085 1771.304,125.769 1766.428,125.9153 C1761.551,126.0617 1757.396,126.4939 1750.994,127.8748 C1744.106,129.3605 1734.616,131.9445 1672.633,154.4504" stroke="#BF3F3F" stroke-width="1.44" fill="none" />
  <path d="M1315.063,279.1253 C1483.141,220.5254 1552.16,195.9795 1601.43,178.773 C1650.701,161.5666 1680.223,151.6997 1700.019,145.8126 C1719.814,139.9255 1729.883,138.0181 1743.16,136.8514 C1756.438,135.6847 1772.925,135.2586 1795.169,136.2168" stroke="#BF3F3F" stroke-width="1.44" fill="none" />
  <path d="M1912.811,105.892 C1897.473,114.3929 1887.599,118.5678 1879.662,121.58 C1866.94,126.4084 1859.193,128.2496 1850.997,129.1478 C1842.8,130.0461 1834.153,130.0015 1825.392,129.1699 C1816.63,128.3383 1807.754,126.7196 1798.53,125.2689 C1789.307,123.8182 1779.737,122.5354 1769.109,123.2198 C1758.482,123.9042 1746.797,126.5558 1717.546,135.6897 C1688.295,144.8236 1641.479,160.4398 1584.147,180.0959 C1526.815,199.7519 1458.967,223.4478 1407.227,241.1525 C1355.488,258.8573 1319.855,270.5709 1291.56,279.5129 C1263.265,288.4549 1242.306,294.6253 1212.071,304.2016 C1181.835,313.7778 1142.322,326.7599 1074.198,353.5148" stroke="#BF3F3F" stroke-width="1.44" fill="none" />
  <path d="M1914.629,109.113 C1904.121,114.7699 1896.302,118.583 1890.112,121.4563 C1878.39,126.8982 1872.513,128.9691 1866.348,130.5204 C1860.183,132.0716 1853.728,133.103 1846.426,133.4935 C1839.125,133.8839 1830.976,133.6335 1823.474,133.2369 L1800.923,131.9428 C1792.728,131.5878 1783.192,131.4204 1773.083,132.5224 C1762.974,133.6244 1752.292,135.9958 1740.047,139.6385 C1727.802,143.2812 1713.994,148.1952 1684.416,158.7545" stroke="#BF3F3F" stroke-width="1.44" fill="none" />
  <polygon fill="#FFFFFF" fill-opacity="1" points="279.1667,414.2014 398.0254,414.2014 398.0254,379.8094 279.1667,379.8094" xmlns="" />
  <path d="M1874.073,90.46608 L1864.29,94.29273 L1851.363,98.82979 L1845.294,100.77 L1839.475,102.5378 L1834.138,104.0912 L1824.707,106.6532 L1816.296,108.678 L1808.133,110.393 L1800.062,111.9345 L1790.394,113.4929 L1778.956,115.2902 L1768.003,117.4837 C1760.952,119.017 1754.117,120.6467 1747.282,122.4593 C1738.719,124.7304 1730.155,127.2888 1721.409,129.9379 L1706.063,134.6431 L1689.011,140.0744 L1663.059,148.7339 L1640.81,156.3997 L1624.956,161.9386 L1595.218,172.4127 L1563.971,183.4392 C1541.345,191.4067 1517.911,199.5939 1495.052,207.3707 L1460.349,219.0981 L1425.389,230.9526 L1394.173,241.4638 L1365.288,251.0189 L1337.292,260.1269 L1311.21,268.5276 L1257.68,285.8031 L1231.221,294.3916 L1204.492,302.9456 L1183.956,309.4178 L1172.482,312.9892 L1163.493,315.7558 L1147.011,320.7885 L1130.7,325.5865 C1125.505,327.0094 1120.292,328.2871 1114.963,329.4892 L1097.817,333.1186 L1088.205,335.006 L1078.304,336.6385 L1057.813,339.537 L1047.376,340.7992 L1039.169,341.5531 L1028.875,342.217 L1019.238,342.5562 L1011.442,342.5871 L1007.292,342.4785 C1003.647,342.3369 999.6921,342.0646 995.5591,341.5479" stroke="#BF3F3F" stroke-width="1.44" fill="none" />
  <text x="287.604200636851" y="405.397084828028" font-family="Arial Narrow" fill="#000000" font-size="23.4782638549805">Current Site</text>
  <polygon fill="#FFFFFF" fill-opacity="1" points="279.1667,331.7377 448.1919,331.7377 448.1919,297.6209 279.1667,297.6209" xmlns="" />
  <text x="363.416809185764" y="322.933379600958" font-family="Arial Narrow" text-anchor="middle" fill="#000000" font-size="23.4782638549805">Historic Rail Lines</text>
  <polygon fill="#FFFFFF" fill-opacity="1" points="131.9506,246.502 420.1096,246.502 420.1096,72.52438 131.9506,72.52438" xmlns="" />
  <text x="140.388141089651" y="98.1120163626299" font-family="Arial Narrow" font-weight="bold" fill="#000000" font-size="23.4782638549805">1. INDUSTRIAL PRODUCTION</text>
  <text x="140.388141089651" y="125.11201906263" font-family="Arial Narrow" fill="#000000" font-size="23.4782638549805">c. 1900s-1970s</text>
  <text x="140.388141089651" y="179.112024462631" font-family="Arial Narrow" fill="#000000" font-size="23.4782638549805">Linear infrastructure</text>
  <text x="140.388141089651" y="206.112027162631" font-family="Arial Narrow" fill="#000000" font-size="23.4782638549805">and heavy industry</text>
  <text x="140.388141089651" y="233.112029862631" font-family="Arial Narrow" fill="#000000" font-size="23.4782638549805">organized by rail</text>
  <path d="M1516.962,189.0496 L1534.791,206.2645 L1818.556,109.1961 L1800.727,91.9812 z" stroke="#BF3F3F" stroke-width="0.24" stroke-opacity="0.294117647058824" fill="none" />
</svg>