<?xml version='1.0' encoding='utf-8'?>
<svg xmlns="http://www.w3.org/2000/svg" version="1.1" width="2592pt" height="1512pt" viewBox="0 0 2592 1512" overflow="visible"><path d="M1741.63,881.2561 C1741.018,885.8443 1734.73,889.714 1730.358,888.1934 C1725.77,887.5811 1721.9,881.2934 1723.421,876.9215 C1724.033,872.3333 1730.321,868.4636 1734.693,869.9843 C1739.281,870.5966 1743.151,876.8842 1741.63,881.2561 z" stroke="Black" stroke-width="0" fill="#8F64A5" fill-opacity="0.588235294117647" />
  <path d="M1677.3,903.2618 C1676.687,907.85 1670.4,911.7197 1666.028,910.199 C1661.439,909.5868 1657.57,903.2991 1659.09,898.9272 C1659.703,894.3391 1665.99,890.4694 1670.362,891.99 C1674.95,892.6023 1678.82,898.8899 1677.3,903.2618 z" stroke="Black" stroke-width="0" fill="#8F64A5" fill-opacity="0.588235294117647" />
  <path d="M1818.443,854.9803 C1817.831,859.5684 1811.544,863.4381 1807.172,861.9175 C1802.583,861.3052 1798.714,855.0176 1800.234,850.6456 C1800.847,846.0575 1807.134,842.1877 1811.506,843.7084 C1816.094,844.3207 1819.964,850.6083 1818.443,854.9803 z" stroke="Black" stroke-width="0" fill="#8F64A5" fill-opacity="0.588235294117647" />
  </svg>