<?xml version='1.0' encoding='utf-8'?>
<svg xmlns="http://www.w3.org/2000/svg" version="1.1" width="2592pt" height="1512pt" viewBox="0 0 2592 1512" overflow="visible"><path d="M1841.006,821.2859 L1847.76,827.8083 L1856.831,836.5671 L1856.831,847.0751 L1856.689,847.4546 L1850.588,846.6923 L1849.272,850.2032 L1847.67,854.5699 L1842.941,856.1873 L1840.332,853.6677 L1837.957,853.261 L1833.802,854.6955 L1833.802,859.3137 L1673.919,914.0054 L1670.651,910.8513 L1651.03,917.6287 L1651.03,921.8352 L1645.385,923.7662 L1639.09,917.6921 L1614.786,926.0871 L1614.786,934.2332 L1604.941,937.6009 L1589.115,922.3197 L1589.115,916.7614 L1589.115,907.4509 z" stroke="Black" stroke-width="0" fill="#C187DF" fill-opacity="0.294117647058824" />
  <path d="M1856.831,847.0752 L1856.831,836.5671 L1841.006,821.2859 L1589.115,907.4509 L1589.115,922.3198 L1604.941,937.6009 L1614.786,934.2332 L1614.786,926.0871 L1639.09,917.6921 L1645.385,923.7662 L1651.03,921.8352 L1651.03,917.6287 L1670.651,910.8513 L1673.919,914.0054" stroke="#C187DF" stroke-width="0.96" fill="none" />
  <path d="M1833.802,859.3137 L1673.919,914.0054" stroke="#C187DF" stroke-width="0.96" fill="none" />
  <path d="M1604.941,922.732 L1856.831,836.5671" stroke="#C187DF" stroke-width="0.96" fill="none" />
  </svg>