<?xml version='1.0' encoding='utf-8'?>
<svg xmlns="http://www.w3.org/2000/svg" version="1.1" width="2592pt" height="1512pt" viewBox="0 0 2592 1512" overflow="visible"><path d="M1911.055,818.0186 L1906.043,830.7202" stroke="#8F64A5" stroke-width="2.88" fill="none" />
  <path d="M909.1223,1160.602 L921.6331,1166.073" stroke="#8F64A5" stroke-width="2.88" fill="none" />
  <path d="M909.1223,1160.602 L914.1346,1147.901" stroke="#8F64A5" stroke-width="2.88" fill="none" />
  <path d="M1911.055,818.0186 L1898.544,812.5472" stroke="#8F64A5" stroke-width="2.88" fill="none" />
  <path d="M1911.055,818.0186 L1905.927,819.7726" stroke="#8F64A5" stroke-width="2.88" fill="none" />
  <path d="M1900.563,821.6075 L1895.199,823.4425" stroke="#8F64A5" stroke-width="2.88" fill="none" />
  <path d="M1889.835,825.2774 L1884.471,827.1124" stroke="#8F64A5" stroke-width="2.88" fill="none" />
  <path d="M1879.107,828.9473 L1873.743,830.7822" stroke="#8F64A5" stroke-width="2.88" fill="none" />
  <path d="M1868.379,832.6171 L1863.014,834.452" stroke="#8F64A5" stroke-width="2.88" fill="none" />
  <path d="M1857.65,836.287 L1852.286,838.1219" stroke="#8F64A5" stroke-width="2.88" fill="none" />
  <path d="M1846.922,839.9568 L1841.558,841.7917" stroke="#8F64A5" stroke-width="2.88" fill="none" />
  <path d="M1836.194,843.6266 L1830.83,845.4616" stroke="#8F64A5" stroke-width="2.88" fill="none" />
  <path d="M1825.465,847.2965 L1820.101,849.1315" stroke="#8F64A5" stroke-width="2.88" fill="none" />
  <path d="M1814.737,850.9664 L1809.373,852.8013" stroke="#8F64A5" stroke-width="2.88" fill="none" />
  <path d="M1804.009,854.6362 L1798.645,856.4711" stroke="#8F64A5" stroke-width="2.88" fill="none" />
  <path d="M1793.281,858.3061 L1787.917,860.141" stroke="#8F64A5" stroke-width="2.88" fill="none" />
  <path d="M1782.552,861.9759 L1777.188,863.8109" stroke="#8F64A5" stroke-width="2.88" fill="none" />
  <path d="M1771.824,865.6458 L1766.46,867.4807" stroke="#8F64A5" stroke-width="2.88" fill="none" />
  <path d="M1761.096,869.3156 L1755.732,871.1506" stroke="#8F64A5" stroke-width="2.88" fill="none" />
  <path d="M1750.368,872.9855 L1745.004,874.8204" stroke="#8F64A5" stroke-width="2.88" fill="none" />
  <path d="M1739.639,876.6553 L1734.275,878.4902" stroke="#8F64A5" stroke-width="2.88" fill="none" />
  <path d="M1728.911,880.3252 L1723.547,882.1601" stroke="#8F64A5" stroke-width="2.88" fill="none" />
  <path d="M1718.183,883.995 L1712.819,885.83" stroke="#8F64A5" stroke-width="2.88" fill="none" />
  <path d="M1707.455,887.6649 L1702.09,889.4998" stroke="#8F64A5" stroke-width="2.88" fill="none" />
  <path d="M1696.726,891.3347 L1691.362,893.1697" stroke="#8F64A5" stroke-width="2.88" fill="none" />
  <path d="M1685.998,895.0046 L1680.634,896.8395" stroke="#8F64A5" stroke-width="2.88" fill="none" />
  <path d="M1675.27,898.6744 L1669.906,900.5093" stroke="#8F64A5" stroke-width="2.88" fill="none" />
  <path d="M1664.542,902.3443 L1659.177,904.1792" stroke="#8F64A5" stroke-width="2.88" fill="none" />
  <path d="M1653.813,906.0141 L1648.449,907.8491" stroke="#8F64A5" stroke-width="2.88" fill="none" />
  <path d="M1643.085,909.684 L1637.721,911.5189" stroke="#8F64A5" stroke-width="2.88" fill="none" />
  <path d="M1632.357,913.3538 L1626.993,915.1887" stroke="#8F64A5" stroke-width="2.88" fill="none" />
  <path d="M1621.628,917.0237 L1616.264,918.8586" stroke="#8F64A5" stroke-width="2.88" fill="none" />
  <path d="M1610.9,920.6935 L1605.536,922.5284" stroke="#8F64A5" stroke-width="2.88" fill="none" />
  <path d="M1600.172,924.3634 L1594.808,926.1983" stroke="#8F64A5" stroke-width="2.88" fill="none" />
  <path d="M1589.444,928.0332 L1584.079,929.8682" stroke="#8F64A5" stroke-width="2.88" fill="none" />
  <path d="M1578.715,931.7031 L1573.351,933.538" stroke="#8F64A5" stroke-width="2.88" fill="none" />
  <path d="M1567.987,935.3729 L1562.623,937.2078" stroke="#8F64A5" stroke-width="2.88" fill="none" />
  <path d="M1557.259,939.0428 L1551.895,940.8777" stroke="#8F64A5" stroke-width="2.88" fill="none" />
  <path d="M1546.531,942.7126 L1541.167,944.5475" stroke="#8F64A5" stroke-width="2.88" fill="none" />
  <path d="M1535.802,946.3825 L1530.438,948.2174" stroke="#8F64A5" stroke-width="2.88" fill="none" />
  <path d="M1525.074,950.0523 L1519.71,951.8873" stroke="#8F64A5" stroke-width="2.88" fill="none" />
  <path d="M1514.346,953.7222 L1508.982,955.5571" stroke="#8F64A5" stroke-width="2.88" fill="none" />
  <path d="M1503.618,957.392 L1498.253,959.2269" stroke="#8F64A5" stroke-width="2.88" fill="none" />
  <path d="M1492.889,961.0619 L1487.525,962.8968" stroke="#8F64A5" stroke-width="2.88" fill="none" />
  <path d="M1482.161,964.7318 L1476.797,966.5667" stroke="#8F64A5" stroke-width="2.88" fill="none" />
  <path d="M1471.433,968.4016 L1466.069,970.2365" stroke="#8F64A5" stroke-width="2.88" fill="none" />
  <path d="M1460.704,972.0714 L1455.34,973.9064" stroke="#8F64A5" stroke-width="2.88" fill="none" />
  <path d="M1449.976,975.7413 L1444.612,977.5762" stroke="#8F64A5" stroke-width="2.88" fill="none" />
  <path d="M1439.248,979.4111 L1433.884,981.246" stroke="#8F64A5" stroke-width="2.88" fill="none" />
  <path d="M1428.52,983.081 L1423.156,984.9159" stroke="#8F64A5" stroke-width="2.88" fill="none" />
  <path d="M1417.791,986.7509 L1412.427,988.5858" stroke="#8F64A5" stroke-width="2.88" fill="none" />
  <path d="M1407.063,990.4207 L1401.699,992.2556" stroke="#8F64A5" stroke-width="2.88" fill="none" />
  <path d="M1396.335,994.0905 L1390.971,995.9255" stroke="#8F64A5" stroke-width="2.88" fill="none" />
  <path d="M1385.607,997.7604 L1380.243,999.5953" stroke="#8F64A5" stroke-width="2.88" fill="none" />
  <path d="M1374.878,1001.43 L1369.514,1003.265" stroke="#8F64A5" stroke-width="2.88" fill="none" />
  <path d="M1364.15,1005.1 L1358.786,1006.935" stroke="#8F64A5" stroke-width="2.88" fill="none" />
  <path d="M1353.422,1008.77 L1348.058,1010.605" stroke="#8F64A5" stroke-width="2.88" fill="none" />
  <path d="M1342.694,1012.44 L1337.329,1014.275" stroke="#8F64A5" stroke-width="2.88" fill="none" />
  <path d="M1331.965,1016.11 L1326.601,1017.945" stroke="#8F64A5" stroke-width="2.88" fill="none" />
  <path d="M1321.237,1019.779 L1315.873,1021.614" stroke="#8F64A5" stroke-width="2.88" fill="none" />
  <path d="M1310.509,1023.449 L1305.145,1025.284" stroke="#8F64A5" stroke-width="2.88" fill="none" />
  <path d="M1299.781,1027.119 L1294.416,1028.954" stroke="#8F64A5" stroke-width="2.88" fill="none" />
  <path d="M1289.052,1030.789 L1283.924,1032.543" stroke="#8F64A5" stroke-width="2.88" fill="none" />
  <path d="M1074.549,1104.165 L1069.637,1105.84" stroke="#8F64A5" stroke-width="2.88" fill="none" />
  <path d="M1064.272,1107.671 L1058.906,1109.502" stroke="#8F64A5" stroke-width="2.88" fill="none" />
  <path d="M1053.541,1111.332 L1048.175,1113.163" stroke="#8F64A5" stroke-width="2.88" fill="none" />
  <path d="M1042.809,1114.993 L1037.444,1116.824" stroke="#8F64A5" stroke-width="2.88" fill="none" />
  <path d="M1032.078,1118.654 L1026.712,1120.485" stroke="#8F64A5" stroke-width="2.88" fill="none" />
  <path d="M1021.347,1122.315 L1015.981,1124.146" stroke="#8F64A5" stroke-width="2.88" fill="none" />
  <path d="M1010.615,1125.977 L1005.25,1127.807" stroke="#8F64A5" stroke-width="2.88" fill="none" />
  <path d="M999.8842,1129.638 L994.5186,1131.468" stroke="#8F64A5" stroke-width="2.88" fill="none" />
  <path d="M989.153,1133.299 L983.7874,1135.129" stroke="#8F64A5" stroke-width="2.88" fill="none" />
  <path d="M978.4218,1136.96 L973.0561,1138.79" stroke="#8F64A5" stroke-width="2.88" fill="none" />
  <path d="M967.6905,1140.621 L962.3248,1142.451" stroke="#8F64A5" stroke-width="2.88" fill="none" />
  <path d="M956.9592,1144.282 L951.5936,1146.113" stroke="#8F64A5" stroke-width="2.88" fill="none" />
  <path d="M946.228,1147.943 L940.8624,1149.774" stroke="#8F64A5" stroke-width="2.88" fill="none" />
  <path d="M935.4967,1151.604 L930.1311,1153.435" stroke="#8F64A5" stroke-width="2.88" fill="none" />
  <path d="M924.7654,1155.265 L919.3998,1157.096" stroke="#8F64A5" stroke-width="2.88" fill="none" />
  <path d="M914.0342,1158.926 L909.1223,1160.602" stroke="#8F64A5" stroke-width="2.88" fill="none" />
  <path d="M1648.588,881.9884 L1652.368,881.7779" stroke="#8F64A5" stroke-width="1.92" fill="none" />
  <path d="M1648.588,881.9884 L1647.509,885.6364" stroke="#8F64A5" stroke-width="1.92" fill="none" />
  <path d="M1712.632,859.7034 L1716.412,859.4929" stroke="#8F64A5" stroke-width="1.92" fill="none" />
  <path d="M1789.155,833.145 L1788.076,836.7929" stroke="#8F64A5" stroke-width="1.92" fill="none" />
  <path d="M1789.155,833.145 L1792.936,832.9344" stroke="#8F64A5" stroke-width="1.92" fill="none" />
  <path d="M1789.155,833.145 L1826.305,869.3461" stroke="#8F64A5" stroke-width="1.92" fill="none" />
  <path d="M1648.588,881.9884 L1681.871,914.4209" stroke="#8F64A5" stroke-width="1.92" fill="none" />
  <path d="M1778.146,923.5441 L1779.225,919.8962" stroke="#8F64A5" stroke-width="1.92" fill="none" />
  <path d="M1712.632,859.7034 L1778.146,923.5441" stroke="#8F64A5" stroke-width="1.92" fill="none" />
  <path d="M1822.525,869.5566 L1826.305,869.3461 L1827.385,865.6981" stroke="#8F64A5" stroke-width="1.92" fill="none" />
  <path d="M1712.632,859.7034 L1711.552,863.3513" stroke="#8F64A5" stroke-width="1.92" fill="none" />
  <path d="M1778.146,923.5441 L1774.366,923.7546" stroke="#8F64A5" stroke-width="1.92" fill="none" />
  </svg>