<?xml version="1.0" encoding="utf-8" standalone="no"?>
<!DOCTYPE svg PUBLIC "-//W3C//DTD SVG 1.1//EN" "http://www.w3.org/Graphics/SVG/1.1/DTD/svg11.dtd">
<svg version="1.1" width="2592pt" height="1512pt" viewBox="0 0 2592 1512" overflow="visible" xmlns="http://www.w3.org/2000/svg">
  <path d="M1781.017,344.477 L1705.833,278.499" stroke="#F49F4A" stroke-width="0.96" fill="none" />
  <path d="M1620.411,462.5984 L1408.847,535.2015" stroke="#F49F4A" stroke-width="0.96" fill="none" />
  <path d="M1359.428,487.4211 L1155.949,557.3442" stroke="#F49F4A" stroke-width="0.96" fill="none" />
  <path d="M1571.684,414.4668 L1361.581,486.7083" stroke="#F49F4A" stroke-width="0.96" fill="none" />
  <path d="M1667.495,509.583 L1457.074,582.0872" stroke="#F49F4A" stroke-width="0.96" fill="none" />
  <path d="M1781.017,344.477 L1827.544,385.2654" stroke="#F49F4A" stroke-width="0.96" fill="none" />
  <path d="M137.873,842.2866 L239.123,842.2866" stroke="#F49F4A" stroke-width="0.96" fill="none" />
  <path d="M1522.933,365.7513 L1307.572,437.1004" stroke="#F49F4A" stroke-width="0.96" fill="none" />
  <path d="M1802.138,465.7894 L1667.495,509.583" stroke="#F49F4A" stroke-width="0.96" fill="none" />
  <path d="M1457.03,582.1329 L1156.137,685.7952" stroke="#F49F4A" stroke-width="0.96" fill="none" />
  <path d="M1522.933,365.7513 L1742.017,293.169" stroke="#F49F4A" stroke-width="0.96" fill="none" />
  <path d="M1484.686,608.9202 L1288.705,418.7894" stroke="#F49F4A" stroke-width="0.96" fill="none" />
  <path d="M1408.847,535.2015 L1160.653,620.3746" stroke="#F49F4A" stroke-width="0.96" fill="none" />
  <path d="M1816.711,340.6342 L1766.361,502.065" stroke="#F49F4A" stroke-width="0.96" fill="none" />
  <path d="M1620.411,462.5984 L1813.451,399.5623" stroke="#F49F4A" stroke-width="0.96" fill="none" />
  <path d="M1794.304,340.928 L1571.684,414.4668" stroke="#F49F4A" stroke-width="0.96" fill="none" />
  <path d="M1307.572,437.1004 L1137.255,493.7172" stroke="#F49F4A" stroke-width="0.96" fill="none" />
  <path d="M1494.127,336.9659 L1687.463,530.1607" stroke="#F49F4A" stroke-width="0.96" fill="none" />
  <path d="M1163.847,456.7994 C1177.746,497.4993 1188.071,528.6816 1192.863,560.2715 C1195.243,575.9559 1196.259,591.7409 1195.653,605.9628 C1195.276,614.8145 1194.271,623.0607 1192.853,631.664 C1189.272,653.3915 1183.061,677.3964 1206.679,715.0916" stroke="#F49F4A" stroke-width="0.96" fill="none" />
  <path d="M1462.116,563.5024 C1464.268,563.2842 1466.707,565.7236 1466.489,567.8754 C1466.707,570.0273 1464.268,572.4666 1462.116,572.2485 C1459.964,572.4666 1457.525,570.0273 1457.743,567.8754 C1457.525,565.7236 1459.964,563.2842 1462.116,563.5024 z" stroke="Black" stroke-width="0" fill="#F49F4A" fill-opacity="1" />
  <path d="M1450.589,373.1353 C1452.741,372.9172 1455.18,375.3565 1454.962,377.5084 C1455.18,379.6602 1452.741,382.0995 1450.589,381.8814 C1448.437,382.0995 1445.998,379.6602 1446.216,377.5084 C1445.998,375.3565 1448.437,372.9172 1450.589,373.1353 z" stroke="Black" stroke-width="0" fill="#F49F4A" fill-opacity="1" />
  <path d="M1607.858,515.2801 C1610.009,515.062 1612.449,517.5013 1612.231,519.6531 C1612.449,521.805 1610.009,524.2443 1607.858,524.0262 C1605.706,524.2443 1603.266,521.805 1603.484,519.6531 C1603.266,517.5013 1605.706,515.062 1607.858,515.2801 z" stroke="Black" stroke-width="0" fill="#F49F4A" fill-opacity="1" />
  <path d="M1551.521,471.3047 C1553.673,471.0865 1556.113,473.5259 1555.895,475.6777 C1556.113,477.8295 1553.673,480.2689 1551.521,480.0508 C1549.37,480.2689 1546.93,477.8295 1547.148,475.6777 C1546.93,473.5259 1549.37,471.0865 1551.521,471.3047 z" stroke="Black" stroke-width="0" fill="#F49F4A" fill-opacity="1" />
  <path d="M1153.238,474.4374 C1155.389,474.2193 1157.829,476.6587 1157.611,478.8105 C1157.829,480.9623 1155.389,483.4017 1153.238,483.1835 C1151.086,483.4017 1148.646,480.9623 1148.865,478.8105 C1148.646,476.6587 1151.086,474.2193 1153.238,474.4374 z" stroke="Black" stroke-width="0" fill="#F49F4A" fill-opacity="1" />
  <path d="M1518.017,342.1199 C1520.169,341.9018 1522.609,344.3412 1522.391,346.493 C1522.609,348.6448 1520.169,351.0842 1518.017,350.866 C1515.866,351.0842 1513.426,348.6448 1513.644,346.493 C1513.426,344.3412 1515.866,341.9018 1518.017,342.1199 z" stroke="Black" stroke-width="0" fill="#F49F4A" fill-opacity="1" />
  <path d="M1351.738,411.994 C1353.89,411.7759 1356.329,414.2152 1356.111,416.3671 C1356.329,418.5189 1353.89,420.9583 1351.738,420.7401 C1349.586,420.9583 1347.147,418.5189 1347.365,416.3671 C1347.147,414.2152 1349.586,411.7759 1351.738,411.994 z" stroke="Black" stroke-width="0" fill="#F49F4A" fill-opacity="1" />
  <path d="M1427.04,380.3813 C1429.191,380.1632 1431.631,382.6025 1431.413,384.7544 C1431.631,386.9062 1429.191,389.3456 1427.04,389.1274 C1424.888,389.3456 1422.448,386.9062 1422.667,384.7544 C1422.448,382.6025 1424.888,380.1632 1427.04,380.3813 z" stroke="Black" stroke-width="0" fill="#F49F4A" fill-opacity="1" />
  <path d="M1755.883,336.0579 C1758.035,335.8397 1760.475,338.2791 1760.256,340.4309 C1760.475,342.5827 1758.035,345.0221 1755.883,344.8039 C1753.732,345.0221 1751.292,342.5827 1751.51,340.4309 C1751.292,338.2791 1753.732,335.8397 1755.883,336.0579 z" stroke="Black" stroke-width="0" fill="#F49F4A" fill-opacity="1" />
  <path d="M1543.795,408.1165 C1545.947,407.8983 1548.386,410.3376 1548.168,412.4895 C1548.386,414.6413 1545.947,417.0807 1543.795,416.8625 C1541.643,417.0807 1539.204,414.6413 1539.422,412.4895 C1539.204,410.3376 1541.643,407.8983 1543.795,408.1165 z" stroke="Black" stroke-width="0" fill="#F49F4A" fill-opacity="1" />
  <path d="M1798.666,376.0336 C1800.818,375.8154 1803.257,378.2548 1803.039,380.4066 C1803.257,382.5584 1800.818,384.9978 1798.666,384.7797 C1796.514,384.9978 1794.075,382.5584 1794.293,380.4066 C1794.075,378.2548 1796.514,375.8154 1798.666,376.0336 z" stroke="Black" stroke-width="0" fill="#F49F4A" fill-opacity="1" />
  <path d="M1714.993,478.0837 C1717.145,477.8655 1719.585,480.3049 1719.366,482.4567 C1719.585,484.6086 1717.145,487.0479 1714.993,486.8297 C1712.842,487.0479 1710.402,484.6086 1710.62,482.4567 C1710.402,480.3049 1712.842,477.8655 1714.993,478.0837 z" stroke="Black" stroke-width="0" fill="#F49F4A" fill-opacity="1" />
  <path d="M1215.512,691.378 C1217.664,691.1598 1220.103,693.5992 1219.885,695.751 C1220.103,697.9028 1217.664,700.3422 1215.512,700.124 C1213.36,700.3422 1210.921,697.9028 1211.139,695.751 C1210.921,693.5992 1213.36,691.1598 1215.512,691.378 z" stroke="Black" stroke-width="0" fill="#F49F4A" fill-opacity="1" />
  <path d="M1657.475,476.3229 C1659.626,476.1047 1662.066,478.5441 1661.848,480.6959 C1662.066,482.8477 1659.626,485.2871 1657.475,485.069 C1655.323,485.2871 1652.883,482.8477 1653.102,480.6959 C1652.883,478.5441 1655.323,476.1047 1657.475,476.3229 z" stroke="Black" stroke-width="0" fill="#F49F4A" fill-opacity="1" />
  <path d="M1629.889,379.4801 C1632.041,379.2619 1634.48,381.7013 1634.262,383.8531 C1634.48,386.0049 1632.041,388.4443 1629.889,388.2262 C1627.737,388.4443 1625.298,386.0049 1625.516,383.8531 C1625.298,381.7013 1627.737,379.2619 1629.889,379.4801 z" stroke="Black" stroke-width="0" fill="#F49F4A" fill-opacity="1" />
  <path d="M1500.496,325.5614 C1502.648,325.3433 1505.087,327.7826 1504.869,329.9344 C1505.087,332.0863 1502.648,334.5256 1500.496,334.3075 C1498.344,334.5256 1495.905,332.0863 1496.123,329.9344 C1495.905,327.7826 1498.344,325.3433 1500.496,325.5614 z" stroke="Black" stroke-width="0" fill="#F49F4A" fill-opacity="1" />
  <path d="M1502.426,421.3973 C1504.578,421.1792 1507.017,423.6185 1506.799,425.7704 C1507.017,427.9222 1504.578,430.3615 1502.426,430.1434 C1500.274,430.3615 1497.835,427.9222 1498.053,425.7704 C1497.835,423.6185 1500.274,421.1792 1502.426,421.3973 z" stroke="Black" stroke-width="0" fill="#F49F4A" fill-opacity="1" />
  <path d="M1168.791,524.9131 C1170.943,524.6949 1173.382,527.1343 1173.164,529.2861 C1173.382,531.438 1170.943,533.8773 1168.791,533.6592 C1166.639,533.8773 1164.2,531.438 1164.418,529.2861 C1164.2,527.1343 1166.639,524.6949 1168.791,524.9131 z" stroke="Black" stroke-width="0" fill="#F49F4A" fill-opacity="1" />
  <path d="M1328.272,482.7704 C1330.424,482.5522 1332.863,484.9915 1332.645,487.1434 C1332.863,489.2952 1330.424,491.7346 1328.272,491.5164 C1326.12,491.7346 1323.681,489.2952 1323.899,487.1434 C1323.681,484.9915 1326.12,482.5522 1328.272,482.7704 z" stroke="Black" stroke-width="0" fill="#F49F4A" fill-opacity="1" />
  <path d="M1586.106,329.061 C1588.258,328.8429 1590.698,331.2823 1590.479,333.4341 C1590.698,335.5859 1588.258,338.0253 1586.106,337.8071 C1583.955,338.0253 1581.515,335.5859 1581.733,333.4341 C1581.515,331.2823 1583.955,328.8429 1586.106,329.061 z" stroke="Black" stroke-width="0" fill="#F49F4A" fill-opacity="1" />
  <path d="M188.7751,747.5485 C192.3176,747.4543 196.5795,749.0621 199.5142,751.9968 C202.449,754.9316 204.0567,759.1934 203.9626,762.736 C204.0567,766.2786 202.449,770.5404 199.5142,773.4752 C196.5795,776.41 192.3176,778.0177 188.7751,777.9235 C185.2325,778.0177 180.9706,776.41 178.0359,773.4752 C175.1011,770.5404 173.4934,766.2786 173.5876,762.736 C173.4934,759.1934 175.1011,754.9316 178.0359,751.9968 C180.9706,749.0621 185.2325,747.4543 188.7751,747.5485 z" stroke="Black" stroke-width="0" fill="#F49F4A" fill-opacity="1" />
  <path d="M1776.914,439.64 C1779.066,439.4219 1781.505,441.8612 1781.287,444.0131 C1781.505,446.1649 1779.066,448.6042 1776.914,448.3861 C1774.762,448.6042 1772.323,446.1649 1772.541,444.0131 C1772.323,441.8612 1774.762,439.4219 1776.914,439.64 z" stroke="Black" stroke-width="0" fill="#F49F4A" fill-opacity="1" />
  <path d="M1691.105,550.7701 C1693.257,550.5519 1695.696,552.9913 1695.478,555.1431 C1695.696,557.2949 1693.257,559.7343 1691.105,559.5161 C1688.953,559.7343 1686.514,557.2949 1686.732,555.1431 C1686.514,552.9913 1688.953,550.5519 1691.105,550.7701 z" stroke="Black" stroke-width="0" fill="#F49F4A" fill-opacity="1" />
  <path d="M1650.123,308.9461 C1652.275,308.728 1654.714,311.1673 1654.496,313.3192 C1654.714,315.471 1652.275,317.9103 1650.123,317.6922 C1647.971,317.9103 1645.531,315.471 1645.75,313.3192 C1645.531,311.1673 1647.971,308.728 1650.123,308.9461 z" stroke="Black" stroke-width="0" fill="#F49F4A" fill-opacity="1" />
  <path d="M1801.824,367.9487 C1803.976,367.7306 1806.415,370.1699 1806.197,372.3217 C1806.415,374.4736 1803.976,376.9129 1801.824,376.6948 C1799.672,376.9129 1797.233,374.4736 1797.451,372.3217 C1797.233,370.1699 1799.672,367.7306 1801.824,367.9487 z" stroke="Black" stroke-width="0" fill="#F49F4A" fill-opacity="1" />
  <path d="M1494.127,336.9659 L1494.564,343.5988" stroke="#F49F4A" stroke-width="0.96" fill="none" />
  <path d="M1816.711,340.6342 L1820.178,346.3059" stroke="#F49F4A" stroke-width="0.96" fill="none" />
  <path d="M1816.711,340.6342 L1811.045,344.1098" stroke="#F49F4A" stroke-width="0.96" fill="none" />
  <path d="M1794.304,340.928 L1791.256,346.8356" stroke="#F49F4A" stroke-width="0.96" fill="none" />
  <path d="M1813.451,399.5623 L1810.403,405.4698" stroke="#F49F4A" stroke-width="0.96" fill="none" />
  <path d="M1794.304,340.928 L1788.392,337.8894" stroke="#F49F4A" stroke-width="0.96" fill="none" />
  <path d="M1794.304,340.928 L1791.256,346.8356" stroke="#F49F4A" stroke-width="0.96" fill="none" />
  <path d="M1742.017,293.169 L1736.104,290.1304" stroke="#F49F4A" stroke-width="0.96" fill="none" />
  <path d="M1742.017,293.169 L1738.969,299.0766" stroke="#F49F4A" stroke-width="0.96" fill="none" />
  <path d="M1163.847,456.7994 L1160.434,462.5042" stroke="#F49F4A" stroke-width="0.96" fill="none" />
  <path d="M1163.847,456.7994 L1169.546,460.2204" stroke="#F49F4A" stroke-width="0.96" fill="none" />
  <path d="M1288.705,418.7894 L1289.142,425.4224" stroke="#F49F4A" stroke-width="0.96" fill="none" />
  <path d="M1288.705,418.7894 L1295.338,418.3619" stroke="#F49F4A" stroke-width="0.96" fill="none" />
  <path d="M1816.711,340.6342 L1820.178,346.3059" stroke="#F49F4A" stroke-width="0.96" fill="none" />
  <path d="M239.123,842.2866 L230.3029,851.0931" stroke="#F49F4A" stroke-width="0.96" fill="none" />
  <path d="M1705.833,278.499 L1706.271,285.132" stroke="#F49F4A" stroke-width="0.96" fill="none" />
  <path d="M1766.361,502.065 L1772.438,499.3698" stroke="#F49F4A" stroke-width="0.96" fill="none" />
  <path d="M1813.451,399.5623 L1810.403,405.4698" stroke="#F49F4A" stroke-width="0.96" fill="none" />
  <path d="M137.873,842.2866 L146.6931,851.0931" stroke="#F49F4A" stroke-width="0.96" fill="none" />
  <path d="M1705.833,278.499 L1712.467,278.0715" stroke="#F49F4A" stroke-width="0.96" fill="none" />
  <path d="M1160.273,620.1793 L1163.321,614.2718" stroke="#F49F4A" stroke-width="0.96" fill="none" />
  <path d="M1155.703,685.5723 L1158.751,679.6647" stroke="#F49F4A" stroke-width="0.96" fill="none" />
  <path d="M1494.127,336.9659 L1500.76,336.5384" stroke="#F49F4A" stroke-width="0.96" fill="none" />
  <path d="M1160.273,620.1793 L1166.185,623.218" stroke="#F49F4A" stroke-width="0.96" fill="none" />
  <path d="M1155.49,557.1082 L1161.402,560.1468" stroke="#F49F4A" stroke-width="0.96" fill="none" />
  <path d="M1155.49,557.1082 L1158.538,551.2006" stroke="#F49F4A" stroke-width="0.96" fill="none" />
  <path d="M1766.361,502.065 L1763.676,495.9843" stroke="#F49F4A" stroke-width="0.96" fill="none" />
  <path d="M1155.49,557.1082 L1158.538,551.2006" stroke="#F49F4A" stroke-width="0.96" fill="none" />
  <path d="M1766.361,502.065 L1772.438,499.3698" stroke="#F49F4A" stroke-width="0.96" fill="none" />
  <path d="M1137.255,493.7172 L1143.167,496.7559" stroke="#F49F4A" stroke-width="0.96" fill="none" />
  <path d="M1484.686,608.9202 L1484.754,602.2732" stroke="#F49F4A" stroke-width="0.96" fill="none" />
  <path d="M1137.255,493.7172 L1140.302,487.8097" stroke="#F49F4A" stroke-width="0.96" fill="none" />
  <path d="M1484.686,608.9202 L1478.039,608.842" stroke="#F49F4A" stroke-width="0.96" fill="none" />
  <path d="M1813.451,399.5623 L1807.539,396.5237" stroke="#F49F4A" stroke-width="0.96" fill="none" />
  <path d="M1137.255,493.7172 L1140.302,487.8097" stroke="#F49F4A" stroke-width="0.96" fill="none" />
  <path d="M1207.021,715.0916 L1200.483,713.894" stroke="#F49F4A" stroke-width="0.96" fill="none" />
  <path d="M1687.463,530.1607 L1687.531,523.5136" stroke="#F49F4A" stroke-width="0.96" fill="none" />
  <path d="M1827.544,385.2654 L1820.898,385.1541" stroke="#F49F4A" stroke-width="0.96" fill="none" />
  <path d="M1687.463,530.1607 L1680.816,530.0825" stroke="#F49F4A" stroke-width="0.96" fill="none" />
  <path d="M1802.138,465.7894 L1796.44,462.3652" stroke="#F49F4A" stroke-width="0.96" fill="none" />
  <path d="M1160.273,620.1793 L1163.321,614.2718" stroke="#F49F4A" stroke-width="0.96" fill="none" />
  <path d="M239.123,842.2866 L230.3029,833.4801" stroke="#F49F4A" stroke-width="0.96" fill="none" />
  <path d="M1802.138,465.7894 L1798.705,471.4818" stroke="#F49F4A" stroke-width="0.96" fill="none" />
  <path d="M137.873,842.2866 L146.6931,833.4801" stroke="#F49F4A" stroke-width="0.96" fill="none" />
  <path d="M1155.703,685.5723 L1161.616,688.6109" stroke="#F49F4A" stroke-width="0.96" fill="none" />
  <path d="M1155.703,685.5723 L1158.751,679.6647" stroke="#F49F4A" stroke-width="0.96" fill="none" />
  <path d="M1827.544,385.2654 L1827.645,378.6187" stroke="#F49F4A" stroke-width="0.96" fill="none" />
  <path d="M1207.021,715.0916 L1208.209,708.5511" stroke="#F49F4A" stroke-width="0.96" fill="none" />
  <polygon fill="#FFFFFF" fill-opacity="1" points="251.4154,779.1528 479.503,779.1528 479.503,744.7607 251.4154,744.7607" xmlns="" />
  <path d="M1317.987,275.0881 L1316.578,277.0338 L1315.46,278.9912 L1317.493,279.89 L1319.811,280.6195" stroke="#BF3F3F" stroke-width="1.44" fill="none" />
  <text x="259.852868397739" y="770.348397202572" font-family="Arial Narrow" fill="#000000" font-size="23.4782638549805">Retail / Coffee / Services</text>
  <polygon fill="#FFFFFF" fill-opacity="1" points="251.4154,859.9009 455.7496,859.9009 455.7496,825.7841 251.4154,825.7841" xmlns="" />
  <text x="259.852868397739" y="851.09653183556" font-family="Arial Narrow" fill="#000000" font-size="23.4782638549805">Pedestrian Movement</text>
  <polygon fill="#FFFFFF" fill-opacity="1" points="120.8532,694.7566 464.3145,694.7566 464.3145,520.779 120.8532,520.779" xmlns="" />
  <text x="129.29073015572" y="546.366654120742" font-family="Arial Narrow" font-weight="bold" fill="#000000" font-size="23.4782638549805">2. SCATTERED CONSUMPTION</text>
  <text x="129.29073015572" y="573.366656820742" font-family="Arial Narrow" fill="#000000" font-size="23.4782638549805">c. 2000s-PRESENT</text>
  <text x="129.29073015572" y="627.366662220743" font-family="Arial Narrow" fill="#000000" font-size="23.4782638549805">Rail removed, industry fragmented.</text>
  <text x="129.29073015572" y="654.366664920743" font-family="Arial Narrow" fill="#000000" font-size="23.4782638549805">Consumption becomes dispersed and</text>
  <text x="129.29073015572" y="681.366667620743" font-family="Arial Narrow" fill="#000000" font-size="23.4782638549805">people move across the neighborhood</text>
</svg>